<svg width="30" height="19" viewBox="0 0 30 19" fill="none" xmlns="http://www.w3.org/2000/svg">
    <g clip-path="url(#clip0_1001_9326)">
        <path
            d="M26.5789 11.2156C26.366 10.3377 25.6126 9.61706 24.9411 8.97174C18.7762 3.09185 7.27845 3.23926 1.35598 9.31569C-0.20326 10.9175 -0.55376 11.7266 1.02513 13.4791C6.17126 19.1919 16.2277 20.1157 22.8708 15.8081L24.6462 14.5011C24.8985 14.3242 25.2588 13.9279 25.4652 13.7117C26.1334 13.0205 26.8082 12.1623 26.5789 11.2189V11.2156ZM25.19 12.7585L23.9256 13.8984C23.7716 14.0491 23.5882 14.1736 23.3818 14.2686C17.9016 18.2977 8.94579 18.7563 3.50811 14.7042C2.76453 14.1506 0.897377 12.5128 0.828587 11.684C0.766349 10.9634 1.69337 10.056 2.23387 9.53189C8.13669 3.83216 19.0743 3.99922 24.7412 9.87584C25.1376 10.2853 25.5864 10.7144 25.7502 11.2418C25.9401 11.8413 25.6584 12.3228 25.1933 12.7519L25.19 12.7585Z"
            fill="#D1A82C" />
        <path
            d="M19.0768 12.9433C18.9523 13.2905 18.7688 13.6312 18.5264 13.9555C17.1277 15.8161 15.1164 16.9888 12.4664 16.6579C10.1013 16.3631 8.15229 14.8694 7.56266 12.8581C6.39979 8.87484 10.8285 5.35346 15.3064 6.73253C18.0842 7.59076 19.9612 10.4898 19.0735 12.9433H19.0768Z"
            fill="#D1A82C" />
        <path
            d="M13.0245 8.93897C17.0994 8.60485 17.5286 13.9082 13.6861 14.2161C9.51618 14.5503 9.05758 9.26326 13.0245 8.93897ZM12.9098 9.67273C10.3351 9.97737 10.5742 13.6101 13.4012 13.5315C16.3919 13.4496 16.2019 9.28292 12.9098 9.67273Z"
            fill="#D1A82C" />
        <path
            d="M17.862 4.74466C17.8031 4.70207 17.7376 4.57432 17.7441 4.51208C18.206 3.54248 18.4386 2.47132 18.8972 1.51154C18.9758 1.34775 19.0118 1.15776 19.3033 1.125C19.6211 1.08897 19.8144 1.30844 19.7521 1.51481C19.2673 2.46477 19.0871 3.61782 18.5925 4.54812C18.4713 4.77742 18.1568 4.94775 17.862 4.74138V4.74466Z"
            fill="#D1A82C" />
        <path
            d="M8.10132 4.62615C7.80323 4.81942 7.48876 4.65891 7.36756 4.44599C6.86638 3.57793 6.68949 2.50022 6.19814 1.61578C6.1359 1.42251 6.32916 1.21614 6.65018 1.25218C6.94172 1.28166 6.97775 1.45855 7.05637 1.6125C7.52152 2.51005 7.75082 3.50914 8.21597 4.41323C8.22252 4.47219 8.15701 4.59339 8.09804 4.62943L8.10132 4.62615Z"
            fill="#D1A82C" />
        <path
            d="M0.520928 3.79512C0.786261 3.74271 0.943494 3.7853 1.09418 3.92288C1.93276 4.68612 2.54531 5.76055 3.37734 6.54999C3.59682 6.83498 3.10546 7.08393 2.74513 6.89067C2.63048 6.82843 2.27998 6.38948 2.16533 6.26828C1.54295 5.58366 0.982803 4.86956 0.353867 4.18821C0.258872 4.06046 0.288353 3.84098 0.520928 3.7984V3.79512Z"
            fill="#D1A82C" />
        <path
            d="M24.8809 2.91166C25.31 2.81339 25.5819 3.04269 25.4115 3.36044L23.112 6.41667C22.7582 6.70166 22.2275 6.44287 22.4405 6.07272C23.2594 5.16863 23.8621 3.93368 24.6843 3.05907C24.7335 3.00666 24.7924 2.93132 24.8809 2.91166Z"
            fill="#D1A82C" />
        <path
            d="M29.1798 6.02599C29.5794 5.94738 29.8579 6.20943 29.6253 6.42235L26.4413 8.5188C26.0777 8.65638 25.6518 8.43036 25.8746 8.18141L29.1831 6.02599H29.1798Z"
            fill="#D1A82C" />
        <path
            d="M13.1296 0.51827C13.4309 0.456032 13.6995 0.537924 13.7126 0.757397C13.5849 1.75976 13.8797 2.94557 13.7126 3.925C13.6537 4.27878 12.9789 4.27878 12.9199 3.925C12.7529 2.94884 13.0477 1.75649 12.9199 0.757397C12.9199 0.672228 13.0018 0.544476 13.1296 0.51827Z"
            fill="#D1A82C" />
        <path
            d="M12.91 9.67417C16.202 9.28436 16.392 13.4511 13.4013 13.533C10.5711 13.6116 10.3353 9.97553 12.91 9.67417Z"
            fill="white" />
    </g>
    <defs>
        <clipPath id="clip0_1001_9326">
            <rect width="29.7074" height="18" fill="white" transform="translate(0 0.5)" />
        </clipPath>
    </defs>
</svg>
    