<svg preserveAspectRatio="none" width="100%" height="100%" overflow="visible" style="display: block;" viewBox="0 0 48 48" fill="none" xmlns="http://www.w3.org/2000/svg">
<g id="Close Up - iconSvg.co">
<path id="Vector" d="M37.5934 9.96394C33.8858 6.26189 28.9644 4.2216 23.725 4.2216C18.4857 4.2216 13.5642 6.26238 9.85663 9.96394C6.15458 13.6716 4.11429 18.5925 4.11429 23.8323C4.11429 29.0719 6.15507 33.9932 9.85663 37.7007C13.5643 41.4023 18.4852 43.4431 23.725 43.4431C28.9646 43.4431 33.8859 41.4023 37.5934 37.7007C41.295 33.9931 43.3358 29.0717 43.3358 23.8323C43.3358 18.5922 41.295 13.6715 37.5934 9.96394ZM35.8591 35.9673C32.6171 39.2093 28.3087 40.9926 23.7248 40.9926C19.1408 40.9926 14.8325 39.2093 11.5905 35.9673C8.34852 32.7253 6.56525 28.417 6.56525 23.8331C6.56525 19.2491 8.34852 14.9408 11.5905 11.6988C14.832 8.4568 19.1403 6.67353 23.7248 6.67353C28.3087 6.67353 32.6171 8.4568 35.8591 11.6988C39.1011 14.9403 40.8843 19.2486 40.8843 23.8331C40.8843 28.417 39.1011 32.7253 35.8591 35.9673ZM30.6561 18.6297L25.4592 23.8327L30.6621 29.0357C31.1402 29.5137 31.1402 30.292 30.6621 30.7701C30.4231 31.0091 30.1105 31.1317 29.7978 31.1317C29.4852 31.1317 29.1725 31.0091 28.9335 30.7701L23.7248 25.5671L18.5218 30.7701C18.2828 31.0091 17.9701 31.1317 17.6575 31.1317C17.3448 31.1317 17.0322 31.0091 16.7931 30.7701C16.3151 30.292 16.3151 29.5137 16.7931 29.0357L21.9905 23.8327L16.7875 18.6297C16.3095 18.1517 16.3095 17.3734 16.7875 16.8953C17.2656 16.4173 18.0439 16.4173 18.5219 16.8953L23.7249 22.0983L28.9279 16.8953C29.4059 16.4173 30.1842 16.4173 30.6623 16.8953C31.1403 17.3734 31.1341 18.1517 30.6561 18.6297Z" fill="var(--fill-0, #C84A23)"/>
</g>
</svg>
