<svg preserveAspectRatio="none" width="100%" height="100%" overflow="visible" style="display: block;" viewBox="0 0 1920 1022" fill="none" xmlns="http://www.w3.org/2000/svg">
<g id="Group">
<path id="Vector" d="M1919.67 312.32C1921.42 315.743 1912.43 275.129 1911 267.804C1911.48 272.351 1914.13 286.143 1916.45 297.454C1918.74 308.765 1920.79 317.595 1919.69 312.303H1919.67V312.32Z" fill="var(--fill-0, #F8A23A)"/>
<path id="Vector_2" d="M1908.44 408.612L1908.06 391.663C1907.43 405.553 1906.51 419.46 1905.27 433.401C1906.49 425.132 1907.55 416.864 1908.44 408.612Z" fill="var(--fill-0, #F8A23A)"/>
<path id="Vector_3" d="M1879.12 407.338C1878.38 425.049 1878.92 433.267 1880.13 436.045C1881.34 438.824 1883.16 435.963 1885.02 431.779C1886.91 427.579 1888.83 421.956 1890.51 418.98C1892.23 416.053 1893.67 415.573 1894.98 421.874L1895.77 437.997C1896.8 418.996 1897.61 400.012 1898.22 381.012C1896.86 383.261 1895.34 387.312 1893.66 391.843C1891.99 396.374 1890.08 401.137 1888.22 405.139C1886.35 409.107 1884.46 412.2 1882.84 413.06C1881.22 413.853 1879.85 412.349 1879.1 407.322H1879.12V407.338Z" fill="var(--fill-0, #F8A23A)"/>
<path id="Vector_4" d="M1885.44 253.996C1883.65 267.672 1882.33 273.46 1882.18 274.038C1882.23 273.873 1882.31 273.609 1882.98 271.36C1883.57 269.359 1884.53 266.349 1885.84 262.711C1886.07 259.718 1886.27 257.982 1886.48 255.749C1886.15 256.146 1885.79 256.03 1885.44 253.996Z" fill="var(--fill-0, #F8A23A)"/>
<path id="Vector_5" d="M1886.5 255.749C1888.83 232.713 1888.02 253.913 1886.5 255.749Z" fill="var(--fill-0, #F8A23A)"/>
<path id="Vector_6" d="M1876.58 270.119C1877.77 266.183 1878.94 262.264 1880.05 258.295C1881.14 254.31 1882.22 250.324 1883.24 246.323C1884.46 238.269 1884.93 233.325 1885.41 228.91C1885.85 224.461 1886.37 220.592 1887.76 214.87C1883.57 227.703 1880.26 243.561 1876.59 270.119H1876.58Z" fill="var(--fill-0, #F8A23A)"/>
<path id="Vector_7" d="M1863.63 320.207L1867.36 310.335C1868.42 303.588 1868.57 301.19 1863.63 320.207Z" fill="var(--fill-0, #F8A23A)"/>
<path id="Vector_8" d="M1874.67 289.418C1872.42 296.512 1869.91 303.374 1867.35 310.353C1865.48 321.647 1861.23 344.219 1870.41 302.895C1866.09 323.4 1870.77 303.87 1874.67 289.418Z" fill="var(--fill-0, #F8A23A)"/>
<path id="Vector_9" d="M1874.41 300.282C1873.85 307.988 1873.76 314.355 1872.95 321.73C1872.14 329.122 1870.67 337.523 1866.89 349.313C1871.09 345.096 1874.53 330.627 1876.1 318.274C1877.67 305.971 1877.77 295.784 1874.39 300.282H1874.41Z" fill="var(--fill-0, #F8A23A)"/>
<path id="Vector_10" d="M1871.09 480.165C1871.85 487.177 1872.69 494.188 1873.63 501.216C1875.48 493.411 1877.27 485.705 1878.94 477.817C1877.68 483.704 1876 478.66 1874.59 475.039C1873.17 471.401 1871.96 469.102 1871.09 480.165Z" fill="var(--fill-0, #F8A23A)"/>
<path id="Vector_11" d="M1869.93 230.762C1865.55 245.182 1859.71 269.59 1854.75 288.226C1857.11 282.901 1859.43 277.56 1861.68 272.202C1863.23 261.917 1863.81 252.226 1869.93 230.762Z" fill="var(--fill-0, #F8A23A)"/>
<path id="Vector_12" d="M1854.76 288.227C1851.21 296.164 1847.6 304.218 1843.72 311.99C1846.51 315.992 1850.43 304.251 1854.76 288.227Z" fill="var(--fill-0, #F8A23A)"/>
<path id="Vector_13" d="M1846.68 397.003C1853.09 379.788 1859.1 362.623 1864.47 345.161C1858.63 362.772 1852.07 380.069 1844.97 397.4L1846.68 397.003Z" fill="var(--fill-0, #F8A23A)"/>
<path id="Vector_14" d="M1858.75 225.206C1863.16 214.425 1867.51 203.626 1871.76 192.795C1865.18 209.1 1858.39 225.355 1851.37 241.528L1858.75 225.206Z" fill="var(--fill-0, #F8A23A)"/>
<path id="Vector_15" d="M1847.8 227.736C1853.67 214.507 1857.46 202.881 1860.87 192.596C1864.26 182.31 1867.25 173.347 1871.09 165.278C1869.2 167.378 1865.45 173.926 1860.88 182.459C1856.33 191.008 1850.98 201.542 1845.8 211.48C1849.19 206.123 1851.09 204.403 1851.46 206.916C1851.64 208.173 1851.44 210.505 1850.84 213.961C1850.23 217.384 1849.21 221.931 1847.82 227.719H1847.8V227.736Z" fill="var(--fill-0, #F8A23A)"/>
<path id="Vector_16" d="M1829.98 240.172C1833.83 234.285 1839.67 223.222 1845.8 211.481C1842.16 217.219 1837.45 225.702 1829.98 240.172Z" fill="var(--fill-0, #F8A23A)"/>
<path id="Vector_17" d="M1838.97 302.713C1841.48 293.965 1848.25 271.112 1849.37 260.809C1845.37 274.369 1841.42 287.962 1837.55 301.572C1837.98 302.002 1838.49 302.365 1838.99 302.713H1838.97Z" fill="var(--fill-0, #F8A23A)"/>
<path id="Vector_18" d="M1837.18 302.894L1837.55 301.587C1836.04 300.083 1835.1 298.743 1834.72 298.098C1835.05 298.627 1835.8 300 1837.17 302.894H1837.18Z" fill="var(--fill-0, #F8A23A)"/>
<path id="Vector_19" d="M1839.32 303.01C1839.2 302.878 1839.12 302.745 1838.97 302.712C1837.85 306.714 1837.5 308.087 1839.32 303.01Z" fill="var(--fill-0, #F8A23A)"/>
<path id="Vector_20" d="M1843.25 356.82C1839.04 368.031 1833.66 379.193 1828.85 392.241C1824.06 405.271 1819.71 420.039 1818.42 438.444C1823.36 424.768 1826.14 412.663 1829.51 399.864C1832.84 387.032 1836.84 373.621 1843.25 356.82Z" fill="var(--fill-0, #F8A23A)"/>
<path id="Vector_21" d="M1825.35 354.158C1826.06 357.763 1826.8 361.385 1827.58 365.023C1830.67 354.257 1834.54 338.366 1839.19 327.501C1834.72 336.431 1830.09 345.311 1825.33 354.175H1825.35V354.158Z" fill="var(--fill-0, #F8A23A)"/>
<path id="Vector_22" d="M1818.75 366.213L1825.34 354.157L1824.58 350.172L1818.75 366.213Z" fill="var(--fill-0, #F8A23A)"/>
<path id="Vector_23" d="M1822.9 280.074C1814.1 296.412 1811.11 296.908 1807.35 298.578C1807.04 307.408 1808.41 312.816 1811.32 313.891C1816.58 301.637 1826.34 279.825 1822.92 280.057H1822.9V280.074Z" fill="var(--fill-0, #F8A23A)"/>
<path id="Vector_24" d="M1828.6 294.823C1828.14 295.683 1827.79 296.063 1827.33 296.923C1826.39 300.396 1826.21 301.57 1828.6 294.823Z" fill="var(--fill-0, #F8A23A)"/>
<path id="Vector_25" d="M1779.8 286.044C1778.83 288.524 1777.98 290.707 1776.98 293.237C1778.07 291.021 1778.91 289.285 1780.2 286.656L1779.8 286.044Z" fill="var(--fill-0, #F8A23A)"/>
<path id="Vector_26" d="M1808.96 321.464C1808.21 329.931 1813.24 320.72 1819.01 308.913C1815.95 312.303 1813.31 314.32 1811.32 313.907C1808.96 319.43 1807.48 323.118 1808.96 321.464Z" fill="var(--fill-0, #F8A23A)"/>
<path id="Vector_27" d="M1815.42 255.485C1812.96 264.084 1811.26 271.492 1809.87 278.454C1813.98 265.605 1820.17 245.497 1815.42 255.485Z" fill="var(--fill-0, #F8A23A)"/>
<path id="Vector_28" d="M1830.69 285.664C1831.02 285.069 1831.37 284.374 1831.63 284.01C1834.13 275.213 1832.67 279.43 1830.69 285.664Z" fill="var(--fill-0, #F8A23A)"/>
<path id="Vector_29" d="M1830.69 285.664C1827.58 291.022 1823.13 300.53 1819.03 308.914C1821.48 306.269 1824.2 302.432 1827.33 296.925C1828.11 294.015 1829.43 289.633 1830.69 285.664Z" fill="var(--fill-0, #F8A23A)"/>
<path id="Vector_30" d="M1651.83 526.533C1660.72 509.004 1671.18 493.113 1677.91 486.63C1684.65 480.165 1687.66 483.207 1682.32 503.977C1692.04 492.302 1709.11 456.402 1727.02 415.11C1744.93 373.802 1763.88 327.004 1776.98 293.22C1769.47 308.632 1762.89 323.052 1746.99 341.209C1743.37 351.362 1741.27 364.244 1737.7 378.383C1734.1 392.505 1729.05 407.9 1718.8 422.717C1701.49 436.922 1717.63 406.792 1722.64 386.155C1713.71 409.058 1703.31 423.792 1691.13 440.857C1679.01 457.956 1665.09 477.353 1650.07 510.096C1656.64 503.911 1663.14 497.71 1669.57 491.459C1664.86 501.612 1653.94 516.164 1651.83 526.516V526.533Z" fill="var(--fill-0, #F8A23A)"/>
<path id="Vector_31" d="M1785.59 301.62L1789.77 298.181C1790.11 290.789 1794.72 275.641 1804.56 246.355C1793.07 262.131 1786 274.93 1780.22 286.655L1788.75 296.61L1785.59 301.62Z" fill="var(--fill-0, #F8A23A)"/>
<path id="Vector_32" d="M1799.45 302.183C1790.27 321.514 1782.5 334.776 1775.08 348.65C1767.67 362.541 1760.59 377.027 1753.25 399.037C1761.83 399.483 1772.41 368.395 1783.64 353.016C1776.08 355.546 1779.19 350.403 1784.35 341.407C1789.53 332.411 1796.56 319.463 1797.61 306.714C1802.43 300.86 1805.06 299.603 1807.35 298.578C1807.6 293.104 1808.35 286.374 1809.87 278.453C1809.54 279.462 1809.32 280.173 1809.06 281L1809.16 280.884C1809.09 281.049 1808.96 281.347 1808.89 281.496C1807.24 286.589 1806.11 289.632 1806.84 286.572C1806.61 287.035 1806.41 287.168 1806.3 287.283C1803.92 292.74 1801.7 297.437 1799.55 301.951C1800.11 292.608 1803.45 291.55 1806.3 287.283C1807.14 285.382 1808 283.579 1808.89 281.479C1808.94 281.347 1809.01 281.165 1809.06 280.967C1802.79 286.771 1796.44 292.641 1789.76 298.148C1789.64 301.339 1790.44 303.01 1792.06 303.522C1793.66 304.018 1796.14 303.407 1799.45 302.166V302.183Z" fill="var(--fill-0, #F8A23A)"/>
<path id="Vector_33" d="M1786.95 525.128C1787.54 521.374 1788.39 518.448 1789.21 515.454C1786.85 520.233 1785.49 523.574 1786.95 525.128Z" fill="var(--fill-0, #F8A23A)"/>
<path id="Vector_34" d="M1788.39 498.685C1791.1 493.294 1796.72 477.105 1798.59 482.198C1797.81 495.312 1792.98 501.91 1789.23 515.437C1791.81 510.277 1795.61 503.365 1798.66 495.031C1801.72 486.696 1804.01 476.923 1804.01 466.142L1801.52 471.483C1800.94 463.744 1802.87 446.529 1805.52 430.687C1808.15 414.845 1811.39 400.359 1812.65 397.681C1802.49 434.805 1795.56 461.379 1788.39 498.669V498.685Z" fill="var(--fill-0, #F8A23A)"/>
<path id="Vector_35" d="M1785.28 409.72C1779.62 415.061 1773.84 420.419 1767.9 425.612C1765.15 437.816 1762.52 449.953 1760.01 462.19L1767.6 441.288C1770.51 451.673 1778.7 425.512 1785.29 409.72H1785.28Z" fill="var(--fill-0, #F8A23A)"/>
<path id="Vector_36" d="M1787.89 266.348L1808.26 226.032C1797.66 244.536 1786.93 262.958 1776.03 281.33L1787.89 266.348Z" fill="var(--fill-0, #F8A23A)"/>
<path id="Vector_37" d="M1774.21 265.753L1791.99 230.712L1778.55 250.49L1774.21 265.753Z" fill="var(--fill-0, #F8A23A)"/>
<path id="Vector_38" d="M1027.16 606.735L1034.41 615.697C1032.44 612.556 1029.97 609.629 1027.16 606.735Z" fill="var(--fill-0, #F8A23A)"/>
<path id="Vector_39" d="M1041.48 592.283L1026.57 579.947C1034.39 587.272 1040.34 592.382 1041.48 592.283Z" fill="var(--fill-0, #F8A23A)"/>
<path id="Vector_40" d="M1381.22 67.4815C1382.35 58.1549 1383.9 47.6212 1385.04 37.6497C1386.02 27.6451 1386.8 18.2524 1387.06 11.3401C1387.56 -2.46782 1386.09 -6.28774 1379.92 14.9286C1376.48 28.8853 1372.99 42.8421 1369.43 56.7658C1373.67 54.1035 1376.63 54.3184 1378.6 56.4351C1380.4 58.5187 1381.01 62.4874 1381.22 67.4649V67.4815Z" fill="var(--fill-0, #F8A23A)"/>
<path id="Vector_41" d="M1029.49 313.66C1031.58 317.431 1033.73 321.35 1035.88 325.236C1033.69 318.092 1031.58 311.147 1029.56 304.499C1027.58 297.769 1025.67 291.336 1023.89 285.267C1025.59 294.18 1027.39 303.623 1029.49 313.66Z" fill="var(--fill-0, #F8A23A)"/>
<path id="Vector_42" d="M1095.87 480.761C1091.13 472.675 1086.21 464.638 1081.14 456.684C1085.97 465.234 1090.89 473.27 1095.87 480.761Z" fill="var(--fill-0, #F8A23A)"/>
<path id="Vector_43" d="M959.992 782.121C969.269 794.159 978.413 806.297 987.442 818.551C994.983 808.298 975.222 797.632 959.992 782.121Z" fill="var(--fill-0, #F8A23A)"/>
<path id="Vector_44" d="M1632.18 204.635C1636.48 187.685 1636.8 179.665 1634.83 176.109C1627.54 200.451 1612.75 234.797 1632.18 204.635Z" fill="var(--fill-0, #F8A23A)"/>
<path id="Vector_45" d="M667.328 325.135C671.826 332.113 678.127 338.331 685.866 344.019C681.699 337.306 676.126 331.005 667.328 325.135Z" fill="var(--fill-0, #F8A23A)"/>
<path id="Vector_46" d="M1622.41 169.064C1621.01 173.232 1620.64 175.547 1619.58 179.135C1626.33 174.72 1632.4 171.512 1634.81 176.126C1640.29 158.002 1641.59 145.649 1622.41 169.081V169.064Z" fill="var(--fill-0, #F8A23A)"/>
<path id="Vector_47" d="M323.487 1010.72C322.61 1008.95 321.932 1008.17 321.006 1006.07C322.412 1011.71 323.007 1011.91 323.487 1010.72Z" fill="var(--fill-0, #F8A23A)"/>
<path id="Vector_48" d="M54.3214 635.244C55.0986 632.234 57.5956 631.457 59.7784 630.217C57.8106 627.72 55.9585 628.547 54.3214 635.244Z" fill="var(--fill-0, #F8A23A)"/>
<path id="Vector_49" d="M1734.38 223.536C1738.41 222.561 1737.11 219.617 1734.38 223.536Z" fill="var(--fill-0, #F8A23A)"/>
<path id="Vector_50" d="M1666.18 380.269C1663.26 384.189 1659.83 389.348 1655.02 398.03C1660.21 389.05 1663.75 383.477 1666.18 380.269Z" fill="var(--fill-0, #F8A23A)"/>
<path id="Vector_51" d="M1457.38 383.228C1457.38 383.228 1457.29 383.013 1457.18 382.947C1453.94 390.801 1454.56 389.313 1457.38 383.228Z" fill="var(--fill-0, #F8A23A)"/>
<path id="Vector_52" d="M1728.97 242.917C1730.51 237.725 1731.47 233.21 1731.7 229.804C1730.64 233.028 1729.67 237.262 1728.97 242.917Z" fill="var(--fill-0, #F8A23A)"/>
<path id="Vector_53" d="M1738.25 224.793C1738.25 226.993 1738.45 228.349 1738.58 229.754C1742.37 223.652 1744.23 219.535 1738.25 224.793Z" fill="var(--fill-0, #F8A23A)"/>
<path id="Vector_54" d="M1729.52 223.486C1731.38 223.751 1731.81 226.314 1731.7 229.803C1732.58 226.959 1733.53 224.71 1734.38 223.536C1733.27 223.685 1731.73 223.834 1729.52 223.486Z" fill="var(--fill-0, #F8A23A)"/>
<path id="Vector_55" d="M570.524 830.226C569.995 828.952 569.532 828.159 568.887 826.422C569.482 844.629 570.342 841.504 570.524 830.226Z" fill="var(--fill-0, #F8A23A)"/>
<path id="Vector_56" d="M1190.4 478.611C1190.51 478.181 1190.68 477.073 1190.79 476.561C1190.76 476.064 1190.73 475.453 1190.69 475.006L1190.4 478.611Z" fill="var(--fill-0, #F8A23A)"/>
<path id="Vector_57" d="M1182.23 510.113C1185.09 483.291 1187.17 471.599 1188.44 468.027C1189.73 464.522 1190.28 469.185 1190.69 474.989C1194.11 433.45 1197.09 391.86 1199.62 350.205C1192.68 403.287 1186.86 456.7 1182.23 510.113Z" fill="var(--fill-0, #F8A23A)"/>
<path id="Vector_58" d="M1004.99 660L1023.36 667.358L1041.63 674.899C1047.52 680.389 1052.33 685.085 1056.33 689.137C1060.32 693.238 1063.49 696.711 1066.14 699.704C1071.43 705.706 1074.59 709.807 1077.85 713.28C1084.33 720.225 1091.14 724.657 1115.83 736.712C1088.12 717.547 1074.69 705.789 1068.42 697.736C1062.07 689.798 1062.85 685.631 1063.63 681.447C1064.35 677.346 1065.02 673.411 1058.68 665.506C1055.52 661.537 1050.58 656.676 1042.99 650.359C1035.42 644.025 1025.23 636.204 1011.52 626.447L1037.57 638.684C1035.68 639.081 1042.05 643.843 1040.14 644.191C1069.27 658.859 1050.28 643.513 1027.05 624.413C1015.42 614.855 1002.72 604.371 994.372 596.318C986.021 588.281 982.036 582.592 987.708 582.989C998.572 585.619 1015.95 595.011 1027.2 606.736C1020.04 597.674 1012.88 588.76 1005.82 579.665C1009.47 579.153 1027.71 593.837 1024.15 594.284L1023.54 577.416L1026.6 579.947C1018.85 572.67 1009.21 563.162 1000.37 554.15C991.544 545.121 983.507 536.522 978.795 531.296C995.976 540.772 988.816 541.665 1002.44 551.52L992.09 538.341L981.87 525.112C996.274 535.116 1008.94 546.774 1017.29 555.82C1025.64 564.832 1029.63 571.414 1026.2 571.695C1080.53 611.482 1074.46 605.446 1063.89 594.003C1058.58 588.297 1052.12 581.253 1051.26 578.161C1050.38 575.035 1055.13 576.077 1071.76 586.875C1074.9 591.969 1078.1 596.929 1081.32 601.94C1111.52 625.438 1121.65 632.4 1129.24 636.749C1136.8 641.065 1141.74 643.182 1160.48 657.966C1151.09 649.813 1127.66 630.928 1103.21 611.548C1078.82 592.217 1053.62 572.141 1043.27 558.449C1052.15 563.774 1057.09 565.593 1039.57 544.525C1074.74 576.987 1068.09 567.032 1068.75 562.335L1114.06 606.785C1112.67 604.917 1111.17 602.833 1109.38 600.832C1107.18 598.385 1105.3 596.285 1103.64 594.449C1099.58 589.984 1095.05 585.106 1090.28 580.013C1080.77 569.81 1070.32 558.73 1061.03 547.816C1064.54 548.66 1074.82 558.118 1087.67 571.083C1100.54 584.064 1116.03 600.584 1130.14 615.748C1134.22 618.758 1120.94 604.206 1105.51 587.917C1090.12 571.596 1072.37 553.604 1070.75 546.94C1075.62 550.76 1078.24 552.364 1079.19 552.033C1079.67 551.868 1079.72 551.223 1079.42 550.131C1079.14 549.073 1078.53 547.568 1077.6 545.666C1075.76 541.863 1072.77 536.489 1069.13 529.858C1065.48 523.21 1061.3 515.487 1056.93 506.806C1064.98 514.396 1070.49 522.416 1075.67 530.139C1080.81 537.878 1085.6 545.286 1091.41 552.298C1082 538.192 1072.8 523.838 1063.94 509.435C1065.31 509.948 1074.08 522.846 1078.54 529.328C1073.86 520.581 1064.88 507.451 1056.2 494.486C1047.55 481.488 1039.24 468.623 1036.75 459.71C1017.82 430.126 1035.1 449.441 1050.86 468.243C1058.76 477.569 1066.45 486.945 1069.81 489.409C1073.22 491.906 1072.31 487.442 1063.94 469.284C1069.07 476.792 1073.65 485.441 1078.58 494.817C1083.5 504.209 1088.81 514.313 1095.05 524.979C1090.02 512.825 1086.91 504.325 1084.46 497.529C1081.88 490.236 1080 484.944 1078.23 479.95C1075.85 473.419 1073.58 467.267 1070.65 459.263C1067.41 450.383 1063.15 438.725 1057.48 421.792C1065.74 433.285 1073.61 444.877 1081.19 456.733C1069.33 435.815 1058.43 412.019 1049.67 387.247C1040.91 362.624 1034.41 337.141 1029.55 313.693C1018.25 293.386 1008 276.056 1002.54 267.953C1002.87 255.369 1003.53 242.52 1004.67 229.737C1010.38 238.7 1016.45 259.685 1023.92 285.3C1022.93 280.008 1021.97 274.849 1020.98 270.07C1027.79 280.025 1033.55 293.733 1039.02 309.542C1044.48 325.318 1049.59 342.88 1054.68 360.111C1048.74 348.899 1042.39 337.042 1035.93 325.268C1041.73 343.988 1048.23 363.534 1055.26 382.65C1062.27 401.766 1069.79 420.452 1077.32 437.617C1074.97 430.589 1073.58 424.239 1073.45 420.386C1076.87 430.407 1080.18 439.271 1082.86 445.075C1085.7 451.194 1081.06 437.733 1076.41 421.907C1085.9 443.719 1095.19 465.531 1104.34 487.541L1094.43 460.967C1098.75 467.3 1102.88 473.683 1106.85 480.116C1110.82 486.582 1114.58 492.948 1118.26 499.662C1113.98 482.133 1109.4 462.422 1105.25 442.132C1103.18 431.995 1101.2 421.676 1099.43 411.506C1097.68 401.353 1096.09 391.265 1094.78 381.443C1092.17 361.814 1090.6 343.161 1090.65 327.385C1090.73 311.725 1092.42 298.81 1095.97 290.376C1098.8 316.686 1103.2 337.687 1108.14 359.813C1113.14 381.922 1118.68 405.139 1124.94 435.633C1116.49 403.8 1114.92 411.357 1115.24 425.198C1115.35 432.061 1115.96 440.759 1116.01 446.861C1116.05 452.979 1115.55 456.617 1113.17 453.806C1118.15 459.578 1125.06 488.45 1127.26 498.587C1125.97 488.583 1124.93 478.479 1124.12 468.276C1123.32 458.172 1122.81 448.085 1122.51 437.882C1127.92 462.769 1130.53 471.947 1132.57 477.437C1134.6 482.96 1136.14 484.581 1139.31 494.784C1134.01 470.161 1130.86 453.707 1129.43 442.297C1127.97 430.903 1128.15 424.57 1129.04 420.32C1129.94 416.087 1131.49 413.854 1132.86 410.878C1134.25 407.934 1135.44 404.065 1135.76 396.226C1138.24 412.945 1140.27 429.911 1141 441.735C1141.36 447.655 1141.41 452.285 1140.98 454.98C1140.55 457.659 1139.64 458.387 1138.04 456.667C1142.54 475.039 1143.78 477.04 1143.81 470.459C1143.81 463.894 1142.59 448.796 1141.55 433.301C1140.49 417.823 1139.63 401.948 1140.03 393.878C1140.39 385.808 1142.09 385.693 1145.53 401.535C1144.04 402.494 1142.56 397.4 1143.89 414.499C1143.94 399.451 1147.22 397.632 1150.16 403.271C1153.16 408.86 1155.67 422.155 1155.77 436.84C1155.32 437.071 1154.89 437.319 1154.44 437.601C1156.98 440.445 1159.85 441.966 1162.83 441.106C1164.32 440.627 1165.84 439.85 1167.36 438.279C1168.88 436.741 1170.42 434.525 1171.94 431.532C1175 425.612 1178.06 416.897 1180.89 404.164C1183.7 391.431 1186.31 374.993 1187.87 353.81C1187.65 359.3 1185.93 384.866 1184.24 411.208C1182.84 433.582 1181.22 459.131 1180.32 473.253C1184.64 425.827 1190.69 378.549 1198.48 331.436C1206.27 284.241 1215.7 238.022 1226.87 191.753C1224.03 209.645 1221.45 233.904 1218.69 260.793C1217.37 273.641 1215.86 288.359 1214.39 302.779C1212.9 317.165 1211.35 331.751 1209.73 346.071C1203.29 403.354 1195.92 456.551 1190.83 476.594C1191.21 481.885 1191.55 487.623 1192.58 488.88C1193.65 490.087 1195.34 487.045 1199.04 474.659C1199.19 469.417 1201.99 443.19 1204.85 417.443C1207.74 391.712 1210.9 366.494 1212.72 363.434C1211.83 383.874 1211.03 396.772 1210.55 405.784C1210.06 414.78 1209.84 419.857 1209.71 424.586C1209.58 429.316 1209.53 433.632 1209.18 441.156C1208.82 448.697 1208.17 459.412 1206.47 476.693C1207 468.821 1212.64 436.906 1218.94 407.603C1225.17 378.284 1232.45 351.661 1234.56 353.992C1232.5 362.26 1227.06 389.86 1221.6 416.781C1216.14 443.702 1210.74 469.979 1209.06 475.684C1211.48 466.672 1213.99 457.676 1216.59 448.697C1219.19 439.75 1221.85 430.837 1224.63 421.941C1230.15 404.147 1236.05 386.437 1242.29 368.825C1238.5 378.235 1233.09 401.303 1227.78 425.86C1222.49 450.416 1217.17 476.445 1214.11 491.956C1216.36 481.224 1217.78 482.1 1219.12 484.498C1220.48 486.863 1221.65 490.517 1224.13 485.474C1225.58 476.924 1226.89 468.342 1228.07 459.693C1229.16 464.406 1232.88 457.395 1238.4 444.728C1243.91 431.995 1251.22 413.375 1258.94 394.54C1266.68 375.721 1274.8 356.605 1281.99 343.012C1289.18 329.452 1295.34 321.283 1298.66 324.028C1293.76 334.529 1280.68 367.519 1269.16 399.864C1257.63 432.21 1247.38 463.811 1247.66 471.368C1258.81 444.959 1286.06 381.906 1315.82 321.481C1330.67 291.269 1346.19 261.735 1360.08 237.774C1373.98 213.779 1386.39 195.275 1394.82 186.875C1391.61 197.326 1388.35 207.76 1385.05 218.195C1393.93 208.554 1402.96 198.979 1412.15 189.487C1402.57 206.123 1388.75 230.15 1372.48 258.428C1357.4 284.721 1341.06 313.478 1325.28 342.02C1309.49 370.529 1294.28 398.756 1281.03 423.793C1267.8 448.911 1256.57 470.855 1248.42 486.565C1243.21 512.312 1235.51 522.813 1242.55 522.466C1237.84 537.101 1232.63 547.502 1228.43 554.414C1224.25 561.376 1221.1 564.915 1220.01 565.444L1221.17 571.182L1222.41 577.053C1223.22 580.972 1224 584.858 1224.72 588.711C1237.56 557.887 1246.75 543.682 1255.75 530.899C1264.69 518.1 1273.41 506.69 1284.59 481.273C1269.32 499.761 1254.56 518.332 1240.83 537.663C1253.28 506.806 1273.62 463.976 1292.77 431.3C1302.33 415.012 1311.54 401.237 1318.93 392.588C1326.33 383.923 1331.9 380.434 1333.98 384.667C1330.11 397.5 1316.97 424.123 1303.85 450.168C1290.72 476.197 1277.64 501.679 1273.14 511.849C1284.01 491.592 1302.43 477.057 1296.54 492.353C1289.75 502.242 1283.08 512.279 1276.48 522.317C1274.1 535.017 1286.11 516.314 1296.46 502.126C1306.76 487.938 1315.43 478.214 1305.17 508.74C1305.59 511.337 1297.95 531.544 1292.36 546.642C1286.79 561.756 1283.31 571.811 1292.56 554.365C1323.25 484.614 1427.79 273.608 1457.76 224.71C1457.24 227.323 1453.74 245.926 1448.28 268.201C1442.89 290.492 1435.63 316.355 1428.62 333.95C1417.26 361.715 1398.46 391.993 1380.33 421.411C1362.16 450.83 1344.68 479.454 1334.68 503.151C1343.34 487.111 1356.5 468.64 1361.04 462.901C1356.77 478.28 1333.22 512.031 1343.61 508.277C1376.79 449.308 1354.39 520.614 1373.92 459.66C1381.84 452.93 1381.99 457.014 1381.24 462.901C1380.52 468.805 1378.89 476.56 1383.51 477.42C1392.87 457.643 1412.63 426.042 1432.31 397.963C1451.97 369.851 1471.55 345.211 1479.92 338.861C1471.04 353.595 1461.63 373.985 1457.34 383.311C1468.79 396.855 1461.1 427.861 1474.09 436.079C1467.1 450.945 1463.51 471.798 1446.13 495.362C1454.05 486.135 1467.33 467.333 1472.29 468.325C1450.75 523.458 1458.57 470.855 1429.18 535.05C1449.51 501.415 1467.1 494.42 1485.41 476.66C1514.25 423.197 1477.68 458.668 1459.51 476.461C1501.58 404.081 1556.18 334.429 1589.7 309.178C1611.27 297.702 1567.2 358.705 1575.13 349.544C1581.81 361.913 1604.65 332.925 1624.01 308.5C1643.38 284.076 1659.39 264.364 1652.57 295.288C1642.57 320.291 1629.49 343.376 1616.64 364.46C1603.79 385.544 1591.19 404.61 1582.38 421.726C1563.23 434.045 1585.44 384.386 1578.31 382.749L1573.15 408.926C1561.41 422.618 1548.56 430.738 1553.04 415.458C1543.86 437.849 1551.57 444.992 1560.85 452.45C1570.14 459.925 1580.95 467.647 1578.47 491.576C1590.16 477.619 1604.12 464.191 1612.16 444.116L1603.41 447.787C1611.55 427.695 1621.22 416.054 1629.17 406.743C1637.16 397.433 1643.46 390.488 1645.21 379.954C1655.86 368.561 1668.73 353.513 1678.5 344.451C1688.28 335.389 1694.97 332.445 1693.7 345.559L1666.74 400.145C1674.88 384.353 1677.87 364.989 1666.46 379.905C1674.8 369.057 1668.51 389.132 1665.57 403.37C1662.59 417.624 1662.96 426.207 1683.5 392.009C1687.86 378.417 1692.28 364.873 1696.78 351.363C1707.09 339.506 1721.66 320.357 1733.24 306.532C1744.83 292.725 1753.51 284.423 1752.8 294.841C1764.66 267.176 1763.52 268.515 1762.67 268.581C1761.86 268.664 1761.3 267.44 1774.88 234.896C1757.12 274.915 1753.05 271.822 1748.95 269.292C1744.83 266.696 1740.68 264.728 1722.92 307.31C1739.19 269.772 1741.04 260.974 1741.9 253.335C1742.76 245.662 1742.63 239.179 1755.86 206.784C1746.47 224.495 1739.97 241.809 1738.56 229.803C1735.45 234.781 1731.2 240.949 1728.66 244.521C1728.72 243.942 1728.82 243.611 1728.96 242.966C1728.67 243.793 1728.46 244.405 1728.16 245.232C1726.44 247.712 1726.11 248.241 1727.9 246.026C1725.2 254.558 1721.32 264.464 1716.45 274.551C1703.85 293.948 1695.01 301.77 1687.47 307.177C1679.91 312.552 1673.66 315.512 1665.97 324.838C1666.63 314.255 1678.9 305.722 1687.2 285.812L1664.3 313.825C1674.98 294.262 1681.46 276.668 1688.09 261.801C1694.71 246.935 1701.45 234.797 1712.42 225.983L1705.18 219.584C1712.67 195.06 1711.03 182.691 1697.34 196.4C1698.18 185.75 1662.43 233.177 1683.45 205.048C1674.35 210.406 1665.07 215.648 1655.88 220.94L1661.37 211.249C1658.72 208.091 1653.17 209.364 1646.9 211.944C1640.6 214.524 1633.54 218.36 1627.44 220.063C1621.37 221.783 1616.46 221.469 1614.52 215.764C1612.54 210.026 1613.58 198.93 1619.53 179.135C1609.02 186.015 1596.91 194.928 1594.91 179.169L1612.44 144.773C1605.77 148.725 1605.59 137.513 1604.17 129.443C1602.75 121.374 1599.9 116.396 1588.63 133.098C1599.49 109.451 1603.48 95.1964 1603.29 86.7628C1603 78.2961 1598.53 75.6503 1592.64 75.2699C1586.84 74.9061 1579.28 76.7417 1573.12 77.2708C1566.91 77.8 1562.04 76.9897 1560.75 71.1523L1536.78 115.42C1532.95 111.799 1527.19 112.014 1519.9 114.693C1512.48 117.355 1503.5 122.482 1493.34 128.683L1474.16 168.817C1461.35 182.774 1458.72 172.769 1456.95 158.663C1455.16 144.591 1453.74 126.417 1444.63 124.764C1452.8 109.748 1455.11 115.768 1453.72 126.434C1456.57 113.916 1457.53 105.217 1457.03 99.4958C1456.48 93.7742 1454.53 90.9961 1451.67 90.285C1445.92 88.8464 1436.67 95.6263 1427.02 103.398C1417.41 111.154 1407.82 119.803 1401.12 121.853C1394.31 123.92 1390.5 119.356 1392.17 100.389C1381.72 113.651 1380 107.251 1380.28 95.4279C1380.8 95.5106 1381.49 94.8822 1382.33 93.6915C1382 92.997 1381.26 92.6332 1380.43 92.4348C1380.78 84.4311 1381.42 75.1872 1381.18 67.5474C1379.8 78.5276 1378.88 87.6557 1379.26 92.1702C1377.14 91.9056 1374.13 92.534 1370.49 94.3034C1368.66 95.1798 1366.74 96.3705 1364.54 97.8257C1362.24 99.2809 1359.83 101.034 1357.35 103.15C1361.43 87.7384 1365.45 72.2933 1369.4 56.8317C1368.64 57.2452 1368.21 57.0137 1367.37 57.5924C1366.62 48.084 1363.48 53.0118 1359.75 64.7858C1355.97 76.5432 1351.49 95.1137 1347.69 112.775C1342.1 119.207 1336.43 127.31 1330.94 137.645C1339.7 99.9258 1333.39 104.854 1327.43 109.219C1321.38 113.552 1315.76 117.355 1322.37 76.4936C1315.13 95.2129 1305.06 100.505 1294.39 111.303C1283.69 122.035 1272.56 138.836 1263.34 179.962C1265.21 169.114 1264.46 163.608 1267.69 163.608C1265.4 158.184 1263.01 152.76 1259.93 151.47C1256.87 150.147 1253.12 153.157 1248.47 164.385C1250.64 144.21 1252.7 124.003 1254.66 103.795C1245.48 129.873 1237.06 155.935 1229.37 182.377C1227.49 163.426 1225.9 148.46 1226.58 132.569C1227.29 116.677 1230.15 99.8431 1237.66 77.2708C1229.74 94.353 1224.81 104.49 1221.12 111.088C1217.47 117.669 1215.07 120.894 1212.8 124.019C1210.54 127.161 1208.39 130.303 1205.44 137.001C1202.52 143.698 1198.73 153.967 1193.7 171.38L1196.32 132.205C1192.99 132.718 1188.25 146.063 1184.29 155.141C1180.31 164.236 1177.02 169.114 1175.21 152.793C1171.82 134.007 1165.31 124.019 1156.89 118.447C1152.68 115.602 1148.01 114.164 1143.02 113.254C1138.04 112.394 1132.73 111.981 1127.26 111.931C1121.79 111.898 1116.13 111.931 1110.34 111.534C1107.45 111.286 1104.52 111.104 1101.58 110.708C1098.62 110.311 1095.64 109.732 1092.62 108.905C1089.59 108.078 1086.53 107.003 1083.44 105.614C1080.35 104.324 1077.22 102.72 1074.04 100.736C1067.69 96.7839 1061.11 91.2607 1054.27 83.8027C1061.99 111.716 1063.92 122.779 1063 124.962C1062.07 127.178 1058.15 120.596 1053.62 113.32C1044.66 98.7352 1032.82 81.5372 1042.63 125.276C1038.33 112.262 1033.81 102.324 1030.45 92.6332C1027.11 82.9428 1024.87 73.3186 1025.48 60.9328C1021.67 68.8372 1017.26 70.8051 1012.6 70.4082C1007.95 70.0279 1003.09 67.3655 998.787 66.1252C994.521 64.9346 990.85 65.2819 988.766 70.6562C986.699 76.0306 986.236 86.5147 988.683 105.631C983.226 92.9805 981.126 83.0917 979.621 74.5092C978.1 65.9268 977.124 58.6342 973.503 51.292C973.503 57.5428 974.131 76.1629 966.657 61.5116C962.92 54.2355 961.828 48.4808 961.696 43.0238C961.564 37.5833 962.39 32.3908 962.341 26.1235C956.818 29.1332 954.337 36.6738 954.205 47.191C954.073 57.7082 956.288 71.2681 960.059 86.7131C967.616 117.603 981.308 156.117 994.686 193.357C989.179 185.469 984.781 179.995 981.54 177.052C978.315 174.141 976.231 173.728 975.289 175.845C973.404 180.095 976.066 194.547 983.292 219.749C976.794 208.488 969.501 197.259 964.705 187.172C959.91 177.085 957.694 168.106 961.597 161.26C959.629 161.111 955.263 159.937 950.12 159.259C944.994 158.564 939.206 158.614 934.394 160.383C929.615 162.169 925.911 165.807 925.233 172.504C924.605 179.301 927.052 189.124 934.212 203.262C924.935 190.033 923.712 203.775 925.762 211.034C922.058 212.06 919.015 212.556 916.402 212.953C913.806 213.399 911.623 213.713 909.606 214.275C907.572 214.854 905.703 215.698 903.752 217.202C901.801 218.707 899.75 220.857 897.485 224.214L906.348 230.779C924.059 264.894 924.241 269.921 919.081 268.383C914.005 266.812 903.438 258.692 901.52 265.82L897.352 259.155C884.305 251.565 877.839 249.746 875.012 250.507C872.167 251.317 872.829 254.658 873.391 257.799C873.937 260.941 874.4 263.835 871.043 263.835C869.356 263.835 866.727 263.108 862.626 261.355C858.541 259.635 853.035 256.907 845.478 252.938L876.219 289.235C907.109 330.13 894.144 321.151 874.152 308.087C864.18 301.538 852.406 293.965 843.94 290.575C835.489 287.168 830.462 288.078 834.332 297.834C841.823 303.225 849.248 308.699 856.59 314.222C861.055 322.044 856.524 320.373 846.718 313.643C836.928 306.913 821.814 295.172 805.509 282.654C789.187 270.119 771.559 256.774 756.908 246.538C749.583 241.412 743.018 237.063 737.775 233.937C735.163 232.366 732.831 231.143 730.979 230.217C729.127 229.291 727.688 228.728 726.713 228.596C722.826 226.215 720.809 223.156 719.453 219.832C718.064 216.524 717.634 212.754 716.41 209.331C712.524 207.892 709.25 206.834 706.571 206.09C703.991 205.296 701.974 204.833 700.469 204.668C697.46 204.354 696.467 205.23 697.013 206.999C698.104 210.555 705.281 217.699 714.277 226.331C732.302 243.578 757.47 266.878 756.958 277.908C743.613 267.556 728.68 252.227 715.55 239.973C702.404 227.736 690.994 218.641 684.478 221.138C672.374 214.242 686.116 239.543 696.947 261.652C707.431 283.977 715.038 303.027 685.206 288.491C696.269 295.403 707.348 302.349 716.89 309.856C726.465 317.347 734.452 325.401 739.809 334.297C739.909 337.853 734.071 337.191 726.084 335.207C718.064 333.239 707.993 329.915 699.675 328.046C691.358 326.161 684.76 325.764 683.999 329.353C683.271 332.925 688.331 340.531 703.231 354.703C696.765 351.528 691.027 347.874 685.834 344.054C691.738 353.678 695.045 364.046 700.916 375.721C706.836 387.379 715.6 400.212 732.302 414.879C697.823 392.423 682.907 386.569 678.095 388.95C675.681 390.141 675.797 393.382 677.235 397.648C678.724 401.865 681.551 407.091 684.495 412.316C690.349 422.8 696.848 433.136 694.003 435.55C691.159 437.964 678.972 432.474 647.668 411.126C645.849 418.633 644.03 426.141 642.377 433.417L629.842 424.272C625.873 425.661 624.616 428.224 625.427 431.581C625.526 432.011 625.658 432.441 625.824 432.888C625.989 433.318 626.138 433.847 626.468 434.161C627.064 434.889 627.758 435.682 628.552 436.542C630.14 438.245 632.124 440.197 634.423 442.33C643.584 450.896 657.607 462.571 671.448 474.543C661.972 470.111 651.405 460.52 645.022 455.758C629.594 451.326 623.492 449.523 627.609 456.32C629.677 459.71 634.307 465.183 641.616 473.501C648.925 481.836 658.93 492.998 671.481 507.996C658.913 497.33 646.395 486.598 633.91 475.816C640.756 483.125 634.902 481.042 626.039 476.544C617.158 472.079 605.434 465.051 599.679 463.662C594.388 462.471 594.057 466.06 604.359 482.497C600.655 478.115 594.322 470.558 590.039 464.654C598.29 477.751 595.396 479.322 588.848 475.668C585.557 473.849 581.357 470.756 577.091 467.333C572.791 463.894 568.392 460.057 564.688 456.932C557.214 450.615 552.567 446.96 555.957 454.782C559.43 462.703 570.807 482.183 595.545 522.333C598.671 529.643 601.581 536.869 604.376 544.162C605.781 547.816 607.154 551.487 608.493 555.175C609.8 558.813 611.09 562.451 612.33 566.105C617.125 567.941 622.037 572.902 627.229 580.178C632.389 587.404 637.697 596.731 642.922 606.703C648.164 616.658 653.34 627.274 658.549 636.849C663.742 646.374 669.066 655.022 674.755 660.727C674.705 664.001 671.646 662.91 667.429 659.503C665.313 657.784 662.865 655.436 660.302 652.69C657.739 649.929 655.01 646.688 652.332 643.298C641.649 629.705 631.744 613.069 632.637 607.612L638.457 615.268C626.601 593.87 618.514 581.881 612.727 574.688C606.922 567.495 603.433 565.411 600.324 563.923C594.14 561.095 589.576 561.31 574.627 531.958C570.079 534.273 563.762 533.033 557.065 529.907C550.335 526.782 543.224 521.837 536.543 516.628C529.862 511.452 523.612 506.045 518.171 501.762C515.443 499.662 512.913 497.859 510.581 496.537C509.407 495.892 508.299 495.379 507.241 495.015C507.108 494.966 507.158 494.883 506.877 494.883H504.363C503.255 494.916 502.147 494.999 501.072 495.114L521.164 564.964L508.514 563.592C501.651 547.833 491.597 509.22 500.709 510.212C487.033 471.153 494.326 547.022 497.699 562.467C474.631 537.63 484.999 478.528 479.592 477.999L473.936 484.878L477.409 492.783C478.533 522.962 485.197 553.687 474.316 552.546C464.626 539.895 460.806 509.749 457.648 507.599C456.49 502.589 455.085 500.439 453.299 506.475L436.994 503.961L456.159 558.317C456.126 587.355 441.607 558.697 463.402 620.229C446.866 572.72 430.974 567.28 417.613 570.14C404.235 573.018 393.437 584.18 386.657 569.859C387.483 612.656 378.372 614.177 366.003 612.077C371.675 622.941 388.922 685.052 377.495 679.777C348.623 549.949 345.911 628.233 314.541 537.53C337.163 597.194 290.927 559.739 324.264 644.174C313.582 635.807 311.399 596.103 297.492 567.362C294.333 594.796 281.733 589.389 267.396 580.095C253.075 570.785 237.002 557.573 227.377 569.132C231.511 586.082 242.343 610.82 243.996 637.245L208.906 556.332C206.426 565.874 230.833 654.724 206.508 598.583C211.552 612.424 219.126 633.31 217.472 639.544C183.275 604.751 164.158 628.117 142.777 642.504C121.296 656.924 97.566 662.397 51.7104 592.547C67.5358 623.173 64.2285 627.621 59.7305 630.234C65.138 637.08 71.736 671.641 78.979 694.164L40.9782 636.849C55.9933 700.845 21.2502 647.333 37.1252 708.071L40.0521 695.421C46.5179 732.148 61.1361 770.728 77.2757 811.606C93.4153 852.468 111.06 895.644 123.958 941.401C116.451 899.712 131.185 927.874 145.191 951.521C159.247 975.168 172.559 994.301 163.034 934.307C171.633 951.984 168.822 964.502 176.676 985.173C168.987 944.989 171.12 935.547 184.399 950.727L186.251 960.682C206.641 944.493 227.592 980.295 260.566 998.848L246.03 954.117C253.306 958.615 258.416 972.489 264.171 983.106C251.521 912.66 247.436 983.585 232.173 906.277C248.759 951.306 258.664 948.892 268.752 948.197C278.822 947.486 289.058 948.445 305.81 1000.2C314.508 998.435 289.009 948.379 297.757 946.659L307.728 974.424L299.989 937.267C307.282 941.764 319.684 976.524 326.365 1000.5C324.231 998.005 324.314 1008.27 323.421 1010.72C339.676 1042.22 340.768 993.805 346.208 1004.06L333.326 988.745C341.446 972.34 355.155 971.547 367.722 966.966C380.307 962.352 391.75 953.919 395.686 922.053L388.426 901.002C395.702 856.784 408.419 921.028 422.855 897.777L423.45 903.086C421.863 880.695 424.294 868.591 430.164 869.732C431.652 896.124 451.496 916.431 452.141 945.882C460.327 898.439 453.051 910.015 445.808 826.886L457.515 861.877C453.844 828.506 450.008 811.374 457.433 799.749C457.019 832.376 476.88 852.699 477.971 895.429C497.55 932.058 500.13 910.544 502.561 893.842C504.975 877.14 507.207 865.3 525.48 921.425C511.06 820.155 494.871 870.608 494.97 848.185C482.8 816.881 484.85 772.332 493.664 780.749C500.742 781.394 534.889 904.822 550.5 899.167C548.78 899.067 550.434 906.608 548.747 906.558C560.686 930.42 552.55 869.533 569.55 908.907C559.76 847.97 579.951 910.114 563.448 833.335L552.65 854.502C556.37 832.541 543.687 741.128 567.747 781.344C570.195 797.037 570.691 818.303 570.443 830.292C579.703 851.922 574.858 813.524 584.4 835.733C600.754 912.66 570.112 856.552 574.66 917.026C586.45 948.346 578.81 857.643 593.445 941.616C584.515 888.137 589.278 890.535 595.281 895.958C596.025 896.636 596.802 897.331 597.563 898.026C597.943 898.356 598.323 898.67 598.704 898.968C599.117 899.249 599.349 899.547 600.043 899.696C602.309 900.407 604.31 900.539 606.112 899.167C609.634 896.438 611.966 887.839 610.792 866.887L621.64 912.726C622.103 908.791 622.351 901.184 623.079 894.569C623.806 887.955 624.997 882.349 627.643 882.415C630.272 902.639 632.604 922.929 634.588 943.269C635.001 929.908 637.564 925.658 641.566 926.253C645.552 926.849 650.959 932.339 656.73 938.54C662.501 944.741 668.62 951.637 673.73 955.093C678.84 958.566 682.891 958.466 684.297 950.926C680.427 951.918 677.136 951.852 674.292 950.876C671.448 949.867 669.05 947.999 666.999 945.436C662.898 940.326 660.12 932.504 657.524 923.508C652.414 905.5 647.602 882.845 636.672 867.483C640.276 850.731 645.138 849.508 651.786 856.552C658.384 863.597 666.602 878.975 675.598 895.396C684.594 911.817 694.4 929.362 704.289 940.756C709.234 946.461 714.145 950.562 718.94 952.249C723.719 953.935 728.383 953.175 732.5 948.974C731.74 950.942 729.292 950.661 726.134 948.759C722.942 946.825 719.007 943.253 715.236 938.705C707.679 929.61 700.866 916.596 700.965 905.285C703.777 907.088 706.951 909.353 710.375 912.032C713.781 914.694 717.436 917.787 721.239 921.325C728.813 928.403 736.965 937.25 744.473 947.9C756.263 938.97 749.797 928.238 740.769 915.852C731.64 903.466 720.131 889.179 719.321 874.296C735.675 899.481 736.469 892.85 733.063 877.868C729.722 862.852 722.132 839.205 722.843 829.3L744.737 872.344C749.963 874.61 753.254 874.626 755.122 873.287C756.991 871.931 757.404 869.153 756.826 865.432C755.684 858.007 750.558 846.762 745.465 835.848C740.355 824.901 735.229 814.186 733.856 807.703C733.162 804.462 733.41 802.279 735.08 801.651C736.734 800.973 739.793 801.767 744.82 804.528C752.873 825.149 760.612 846.068 767.938 866.937C769.426 860.141 770.667 852.98 771.857 846.084C780.192 862.191 788.46 878.347 796.662 894.553C795.19 884.019 794.512 876.495 794.76 871.253C794.992 866.011 796.182 863.15 798.216 861.629C802.251 858.553 810.023 861.596 820.59 863.547C809.841 850.45 798.481 831.929 790.758 815.806C786.889 807.72 783.978 800.295 782.49 794.292C780.985 788.273 780.969 783.792 783.118 781.691C794.463 790.935 800.151 800.907 804.087 806.662C808.055 812.416 810.42 813.789 815.298 805.272C822.575 818.717 830.727 833.881 832.992 841.851C835.324 849.855 831.57 850.549 815.828 834.757C823.997 848.135 829.321 862.108 837.16 875.453C843.824 880.712 848.818 882.729 852.605 882.729C854.49 882.729 856.11 882.25 857.417 881.357C858.723 880.464 859.782 879.224 860.674 877.785C862.46 874.908 863.535 871.253 864.495 868.012C865.421 864.738 866.165 861.844 867.471 860.57C864.263 860.951 860.278 861.116 854.887 856.618C852.026 844.613 848.785 832.558 845.428 820.718C843.774 814.814 841.955 808.844 840.087 802.891C838.218 796.955 836.316 791.035 834.348 785.164C848.553 796.409 855.466 810.002 861.816 823.578C862.212 819.56 859.616 812.565 857.268 805.504C856.094 801.965 854.986 798.426 854.325 795.185C853.647 791.928 853.448 789.017 854.126 786.768C866.032 802.56 878.567 818.171 888.489 832.723C893.45 839.999 897.766 847.044 900.957 853.691C904.132 860.322 906.199 866.59 906.745 872.394C906.249 867.896 905.72 863.431 905.158 858.983C904.579 854.502 903.917 849.971 903.239 845.489C901.883 836.51 900.395 827.613 898.775 818.799C905.058 824.604 915.179 830.673 924.82 836.907C934.427 843.158 943.489 849.541 947.045 856.387C957.066 858.073 956.338 846.118 952.7 831.102C949.641 818.502 944.68 803.9 943.01 792.903C941.356 781.873 943.109 774.564 954.006 775.689C949.078 769.653 945.044 762.972 943.489 755.729C952.518 751.016 968.707 752.819 979.439 748.734C984.781 746.717 988.733 743.277 989.527 737.109C990.32 730.941 987.939 722.011 980.531 709.278C1001.66 719.614 1023.05 729.535 1044.68 739.06C1043.87 726.179 1023.01 717.778 1002.38 706.699C981.672 695.751 961.2 682.142 958.223 663.092C957.777 661.273 957.578 659.801 957.628 658.627C957.694 657.982 957.595 657.734 957.677 657.37C957.727 657.056 957.843 656.808 958.025 656.61C958.719 655.832 960.356 656.014 962.672 656.891C967.318 658.66 974.727 663.29 983.094 668.847C999.812 679.976 1020.28 694.858 1029.56 698.463C1003.93 673.593 950.864 624.297 1003.88 647.366C1008.3 652.542 1007.98 654.245 1006.87 655.369C1005.73 656.527 1003.76 657.139 1004.94 660.016H1004.99V660ZM1042.46 557.97C1045.67 561.938 1052.56 569.644 1055.95 574.076C1059.34 578.524 1059.19 579.732 1048.1 570.967C1007.78 533.777 1028.85 549.552 1042.46 557.953V557.97ZM1078.03 393.977C1082.03 409.604 1077.62 402.841 1068.8 386.652C1069.12 382.27 1071.83 383.129 1078.03 393.977ZM1684.79 240.238C1684.31 240.85 1683.96 241.329 1683.41 242.123C1688.06 223.288 1686.04 230.614 1684.79 240.238ZM1684.16 263.835C1688.42 258.577 1691.63 252.772 1694.54 246.737C1687.88 256.89 1685.28 256.344 1684.49 251.979C1678.95 263.257 1675.92 271.525 1684.16 263.835ZM460.426 525.062L465.618 536.72C463.518 551.355 462.129 538.886 460.426 525.062Z" fill="var(--fill-0, #F8A23A)"/>
<path id="Vector_59" d="M1088.05 461.463C1084.51 454.121 1080.89 445.885 1077.25 437.568C1079.83 445.307 1083.55 453.906 1088.05 461.463Z" fill="var(--fill-0, #F8A23A)"/>
<path id="Vector_60" d="M954.849 775.473C954.419 775.391 954.402 775.688 954.038 775.672C955.923 777.937 957.957 780.087 959.991 782.138L954.849 775.49V775.473Z" fill="var(--fill-0, #F8A23A)"/>
<path id="Vector_61" d="M1326.77 526.864C1328.11 519.754 1331.15 511.452 1334.67 503.085C1329.1 513.404 1325.31 522.548 1326.77 526.864Z" fill="var(--fill-0, #F8A23A)"/>
<path id="Vector_62" d="M1771.37 218.955L1760.13 227.091C1763.88 226.38 1759.93 236.137 1757.74 243.578C1762.82 233.606 1769.34 218.74 1771.37 218.939V218.955Z" fill="var(--fill-0, #F8A23A)"/>
<path id="Vector_63" d="M1693.88 510.625C1697.3 505.73 1696.33 511.022 1699.75 506.044L1708.48 485.572C1703.7 485.01 1693.24 499.975 1693.9 510.625H1693.88Z" fill="var(--fill-0, #F8A23A)"/>
<path id="Vector_64" d="M1703.14 362.772C1685.08 398.755 1695.37 388.668 1703.07 384.236C1702.74 384.236 1702.35 384.402 1702.3 383.839C1729.04 334.23 1716.22 348.617 1703.14 362.772Z" fill="var(--fill-0, #F8A23A)"/>
<path id="Vector_65" d="M1704.7 383.542C1706.9 382.55 1708.73 382.301 1709.16 384.666C1719.76 364.723 1709.69 379.705 1704.7 383.542Z" fill="var(--fill-0, #F8A23A)"/>
<path id="Vector_66" d="M1709.36 247.415C1706.3 257.584 1735.8 203.213 1728.87 218.145C1742.46 196.383 1731.68 208.124 1720.34 223.007C1709.01 237.906 1697.24 256.03 1709.36 247.415Z" fill="var(--fill-0, #F8A23A)"/>
<path id="Vector_67" d="M1645.97 482.531L1667.04 437.469L1646.02 471.716L1645.97 482.531Z" fill="var(--fill-0, #F8A23A)"/>
<path id="Vector_68" d="M1626.05 430.588L1626.87 446.711C1630.74 439.336 1634.02 435.549 1636.94 432.887C1633.17 428.968 1632.98 417.607 1626.05 430.588Z" fill="var(--fill-0, #F8A23A)"/>
<path id="Vector_69" d="M1636.95 432.888C1638.85 435.021 1641.63 435.319 1646.78 428.853C1645.26 428.622 1641.74 428.589 1636.95 432.888Z" fill="var(--fill-0, #F8A23A)"/>
<path id="Vector_70" d="M1628.61 490.318L1631.18 479.949L1627.5 473.897L1628.61 490.318Z" fill="var(--fill-0, #F8A23A)"/>
<path id="Vector_71" d="M1551.47 376.828L1536.17 384.385C1526.75 398.623 1523.69 408.893 1530.12 404.808C1538.06 395.696 1544.39 391.761 1551.45 376.812L1551.47 376.828Z" fill="var(--fill-0, #F8A23A)"/>
<path id="Vector_72" d="M1507.53 508.79C1510.47 498.571 1515.9 488.897 1522.89 474.014L1491.66 527.146L1507.53 508.807V508.79Z" fill="var(--fill-0, #F8A23A)"/>
<path id="Vector_73" d="M1476.38 507.285C1466.93 521.573 1439.8 542.739 1452.07 545.435C1461.46 531.28 1476.77 523.788 1476.38 507.285Z" fill="var(--fill-0, #F8A23A)"/>
<path id="Vector_74" d="M1393.66 371.125L1396.09 371.505L1442.53 281.745L1393.66 371.125Z" fill="var(--fill-0, #F8A23A)"/>
<path id="Vector_75" d="M1208 552.679C1207.46 555.672 1207.34 556.995 1207.58 557.061C1207.81 557.144 1208.35 555.953 1209.33 554.068C1211.16 550.231 1213.79 543.088 1216.36 536.142C1221.45 522.202 1226.39 509.022 1224.11 524.269C1228.86 513.289 1229.82 507.088 1230.51 501.217C1231.24 495.347 1231.73 489.84 1235.94 480.381C1234.38 483.159 1233.07 485.392 1231.93 487.26C1230.96 489.063 1230.05 490.717 1229.22 492.221C1227.63 495.132 1226.38 497.53 1224.87 501.184C1221.81 508.493 1217.89 520.962 1208 552.695V552.679Z" fill="var(--fill-0, #F8A23A)"/>
<path id="Vector_76" d="M1235.92 480.363C1237.89 476.857 1240.2 472.541 1243.16 466.654C1239.8 472.144 1237.65 476.51 1235.92 480.363Z" fill="var(--fill-0, #F8A23A)"/>
<path id="Vector_77" d="M13.0969 590.828L0 572.737L14.2544 603.924L13.0969 590.828Z" fill="var(--fill-0, #F8A23A)"/>
<path id="Vector_78" d="M20.9514 666.696L0.859539 605.494L13.3446 662.595C14.1053 659.386 15.5935 653.136 20.9679 666.696H20.9514Z" fill="var(--fill-0, #F8A23A)"/>
<path id="Vector_79" d="M1144.47 638.717L1133.39 627.869C1120.99 616.574 1119.6 616.21 1116.74 615.384C1126.09 623.073 1135.31 630.845 1144.47 638.717Z" fill="var(--fill-0, #F8A23A)"/>
<path id="Vector_80" d="M1074.04 649.399C1074.64 649.317 1075.22 649.25 1075.81 649.184C1059.67 638.369 1043.47 627.637 1027.25 616.971L1074.04 649.399Z" fill="var(--fill-0, #F8A23A)"/>
<path id="Vector_81" d="M1094.71 750.239C1098.7 748.668 1090.05 738.267 1093.94 736.944C1098.72 748.652 1034.02 710.337 1094.71 750.239Z" fill="var(--fill-0, #F8A23A)"/>
</g>
</svg>
