<svg preserveAspectRatio="none" width="100%" height="100%" overflow="visible" style="display: block;" viewBox="0 0 280 111" fill="none" xmlns="http://www.w3.org/2000/svg">
<g id="Group" opacity="0.9">
<path id="Vector" d="M179.485 91.5429C177.365 91.7421 175.53 91.8417 174.036 91.8132C172.087 92.368 170.167 92.9655 168.246 93.5772C166.312 94.2174 164.377 94.9145 162.499 95.7111C160.806 96.4082 159.17 97.1479 157.534 97.8877C161.119 96.4224 164.747 95.0425 168.474 94.0609C172.158 93.0936 175.829 92.2542 179.499 91.5572L179.485 91.5429Z" fill="var(--fill-0, #E3D7C5)"/>
<path id="Vector_2" d="M252.605 67.2176C250.272 67.7298 247.384 68.4411 244.183 69.3942C240.996 70.3616 237.468 71.585 234.154 73.5197C233.343 74.0176 232.475 74.4871 231.721 75.0988C231.323 75.3833 230.939 75.682 230.54 75.9808L229.445 76.9766C227.951 78.2427 226.699 80.0067 224.992 81.8134C224.167 82.7096 223.171 83.6059 222.104 84.3741C221.023 85.1138 219.885 85.754 218.719 86.2661C216.371 87.2762 213.953 87.831 211.606 88.2008C213.683 87.9163 215.802 87.518 217.894 86.7783C219.985 86.0385 222.048 84.9431 223.826 83.4209C225.576 81.913 226.899 80.277 228.165 78.9256C228.776 78.2285 229.431 77.6737 230.099 77.1046C230.725 76.5071 231.451 76.0092 232.162 75.4971C237.952 71.4712 245.278 69.7214 252.605 67.2461V67.2176Z" fill="var(--fill-0, #E3D7C5)"/>
<path id="Vector_3" d="M268.141 20.4282C268.425 21.0826 268.681 21.737 268.923 22.3629C269.108 23.0173 269.321 23.6575 269.464 24.2977C272.295 30.6993 272.038 38.6943 268.937 45.2098C269.364 44.5696 269.677 43.8583 270.061 43.1897C270.374 42.4784 270.715 41.7813 270.986 41.0416C272.977 34.0424 271.982 26.3462 268.112 20.4282H268.141Z" fill="var(--fill-0, #E3D7C5)"/>
<path id="Vector_4" d="M179.826 89.0548C184.748 87.746 189.855 86.7075 195.076 85.8966C197.679 85.4983 200.311 85.1569 202.957 84.8866C205.617 84.6021 208.207 84.4171 210.696 84.033C213.171 83.6489 215.59 83.0799 217.695 82.0556C218.748 81.5435 219.715 80.9176 220.612 80.1778C221.494 79.4238 222.333 78.5134 223.201 77.5176C224.879 75.5259 226.956 73.3209 229.247 71.7418C231.509 70.0774 233.97 68.7544 236.459 67.6875C241.438 65.4824 246.545 64.1025 251.396 62.3954C256.233 60.7025 260.928 58.7251 264.726 55.6808C268.567 52.736 271.227 48.6247 272.749 44.3427C273.475 42.1804 273.944 39.9896 274.144 37.8131C274.3 35.6365 274.215 33.4884 273.888 31.4398C273.603 36.5896 271.939 41.9812 268.88 46.3486C267.002 49.8055 264.427 52.6222 261.042 54.7988C257.699 57.018 253.786 58.6825 249.618 60.1762C245.464 61.6984 241.097 63.1209 236.715 65.0557C232.362 67.0188 227.952 69.6506 224.396 73.4347C222.276 75.7393 220.853 77.9443 219.289 79.2389C217.738 80.5904 215.718 81.515 213.427 82.1694C211.137 82.8238 208.605 83.1653 205.959 83.4782C203.299 83.777 200.496 84.1042 197.779 84.5025C188.361 85.8966 179.058 87.9878 169.953 90.7192C170.593 91.4163 171.987 91.7435 174.036 91.7862C181.206 89.7376 188.489 88.1159 195.83 86.9636C190.652 87.305 185.36 87.9309 179.812 89.0405L179.826 89.0548Z" fill="var(--fill-0, #E3D7C5)"/>
<path id="Vector_5" d="M266.633 49.0805C264.613 51.9399 261.81 54.1165 258.524 55.9943C255.238 57.8437 251.525 59.2947 247.655 60.7173C243.772 62.1399 239.703 63.5483 235.677 65.483C231.665 67.4035 227.64 69.9357 224.382 73.4495C227.938 69.6654 232.348 67.0336 236.701 65.0705C241.083 63.1357 245.45 61.7131 249.604 60.191C253.758 58.683 257.685 57.0186 261.028 54.8136C264.399 52.637 266.988 49.8203 268.866 46.3634C268.183 47.3165 267.458 48.2554 266.647 49.0948L266.633 49.0805Z" fill="var(--fill-0, #E3D7C5)"/>
<path id="Vector_6" d="M231.893 74.1184C231.224 74.6305 230.513 75.1 229.873 75.6263C229.247 76.1811 228.635 76.7217 228.024 77.2623C226.857 78.4146 225.733 79.7376 224.481 80.9895C223.229 82.2414 221.75 83.3937 220.185 84.1761C218.62 84.9727 216.984 85.4991 215.348 85.8405C212.076 86.5376 208.861 86.5803 205.632 86.6229C202.403 86.6514 199.145 86.751 195.845 86.9644C188.504 88.1309 181.22 89.7384 174.051 91.787C175.558 91.8154 177.394 91.7158 179.499 91.5167C188.831 89.7242 198.064 88.7853 207.425 88.2447C209.786 88.0598 212.204 87.8179 214.623 87.2347C217.041 86.6798 219.502 85.7552 221.707 84.233C223.969 82.7108 225.591 80.6054 227.07 78.8129C227.81 77.8882 228.55 77.0916 229.361 76.3234C230.115 75.4983 231.04 74.8297 231.907 74.0899L231.893 74.1184Z" fill="var(--fill-0, #E3D7C5)"/>
<path id="Vector_7" d="M211.607 88.1739C209.203 88.4726 206.841 88.6007 204.522 88.7287C202.203 88.871 199.885 89.0417 197.552 89.255C192.9 89.6961 188.219 90.3078 183.539 91.1044C187.337 90.6776 191.705 90.1086 196.442 89.6249C198.804 89.3831 201.265 89.1412 203.768 88.9421C206.272 88.7429 208.904 88.5722 211.607 88.1597V88.1739Z" fill="var(--fill-0, #E3D7C5)"/>
<path id="Vector_8" d="M197.764 84.5173C200.482 84.119 203.298 83.7918 205.944 83.4931C208.59 83.1801 211.137 82.8387 213.413 82.1843C215.703 81.5441 217.723 80.6052 219.274 79.2537C220.839 77.9592 222.261 75.7542 224.381 73.4496C222.261 75.7542 220.825 77.945 219.26 79.2395C217.709 80.5767 215.689 81.5014 213.413 82.1558C211.123 82.8102 208.59 83.1516 205.944 83.4646C203.284 83.7634 200.482 84.1048 197.764 84.5173Z" fill="var(--fill-0, #E3D7C5)"/>
<path id="Vector_9" d="M249.817 8.23591C251.908 8.81918 253.929 9.57315 255.806 10.6259C257.656 11.5079 259.434 12.5748 261.07 13.7982C262.677 15.0501 264.171 16.4585 265.48 17.9949L266.462 19.2041L267.358 20.4844C267.799 21.0677 268.112 21.7221 268.51 22.3338C268.852 22.974 269.165 23.6283 269.477 24.2827C269.321 23.6568 269.122 23.0166 268.937 22.348C268.695 21.7078 268.425 21.0677 268.154 20.4133C264.1 14.1254 257.172 9.63005 249.832 8.22169L249.817 8.23591Z" fill="var(--fill-0, #E3D7C5)"/>
<path id="Vector_10" d="M217.624 12.2473C218.634 11.8205 219.659 11.3653 220.697 10.9243C225.264 8.22133 230.157 5.98786 235.279 4.66486C229.033 6.03054 223.13 8.8615 217.624 12.2473Z" fill="var(--fill-0, #E3D7C5)"/>
<path id="Vector_11" d="M169.726 90.4777C169.768 90.5773 169.868 90.6484 169.953 90.7338C179.058 88.0024 188.362 85.9112 197.779 84.517C188.319 85.8685 178.944 87.8744 169.726 90.4777Z" fill="var(--fill-0, #E3D7C5)"/>
<path id="Vector_12" d="M220.697 10.9283C216.159 13.5885 211.892 16.6755 207.723 19.8906C203.541 23.0772 199.458 26.406 195.475 29.8345C187.494 36.6914 179.926 43.9893 172.799 51.6997C179.713 45.0562 186.968 38.811 194.493 32.8219C198.277 29.8487 202.118 26.9182 206.059 24.0588C210.014 21.2278 213.983 18.3684 218.094 15.8362C223.087 12.7065 228.365 10.032 233.799 8.55253C239.22 7.07304 244.81 6.84542 249.818 8.22533C257.158 9.6337 264.101 14.1291 268.141 20.4169C267.33 18.7098 266.249 17.0312 264.954 15.4236C263.617 13.8588 262.052 12.3935 260.302 11.0847C256.774 8.52408 252.492 6.58936 247.954 5.83538C243.43 5.02451 238.608 5.38015 233.999 6.40442C229.375 7.44291 224.908 9.12157 220.683 10.914L220.697 10.9283Z" fill="var(--fill-0, #E3D7C5)"/>
<path id="Vector_13" d="M271.014 41.0428C270.459 42.878 269.805 44.6989 268.852 46.3633C271.91 41.996 273.575 36.5901 273.859 31.4546C274.187 33.5031 274.272 35.637 274.116 37.8278C273.916 40.0043 273.447 42.2093 272.721 44.3575C271.199 48.6252 268.539 52.7507 264.698 55.6955C260.914 58.7398 256.219 60.7173 251.368 62.4101C246.517 64.1172 241.41 65.4972 236.431 67.7022C233.942 68.7691 231.48 70.0921 229.219 71.7566C226.928 73.3356 224.865 75.5406 223.173 77.5323C222.305 78.5281 221.465 79.4385 220.583 80.1925C219.687 80.918 218.72 81.5582 217.667 82.0703C215.562 83.0946 213.158 83.6636 210.668 84.0477C208.178 84.4318 205.589 84.6168 202.929 84.9013C200.283 85.1716 197.651 85.4988 195.048 85.9113C189.841 86.7222 184.734 87.7607 179.798 89.0695C185.332 87.9599 190.638 87.3339 195.816 86.9925C199.23 86.4519 202.687 86.0109 206.087 85.641C209.473 85.2569 212.788 84.8159 215.832 83.7205C217.34 83.18 218.777 82.4687 220.029 81.544C221.28 80.6335 222.362 79.467 223.429 78.1724C225.491 75.5122 228.152 72.8519 231.082 70.9314C237.014 66.9909 243.743 65.1131 250.088 62.8796C256.418 60.6746 262.763 58.1281 267.401 53.4336C271.996 48.7533 274.713 42.3516 275.296 35.8077C275.88 29.2353 274.158 22.5065 270.346 17.1148C266.59 11.6805 260.985 7.59771 254.783 5.36424C251.667 4.25462 248.395 3.61446 245.095 3.51488C241.794 3.42952 238.48 3.84207 235.265 4.66717C240.727 3.48642 246.403 3.45797 251.624 5.02282C256.831 6.57345 261.554 9.48976 265.196 13.2596C268.866 17.0295 271.413 21.724 272.309 26.6035C273.233 31.483 272.736 36.5759 271 41.0428H271.014Z" fill="var(--fill-0, #E3D7C5)"/>
<path id="Vector_14" d="M268.141 20.4268C272.01 26.3448 272.992 34.041 271.014 41.0402C272.75 36.5732 273.248 31.4803 272.323 26.6009C271.427 21.7214 268.88 17.0268 265.21 13.257C261.554 9.47286 256.845 6.57078 251.639 5.02015C246.432 3.4553 240.742 3.48375 235.279 4.6645C230.158 5.98751 225.264 8.22098 220.697 10.9239C224.922 9.13144 229.389 7.45278 234.013 6.41429C238.622 5.39003 243.445 5.03438 247.968 5.84525C252.506 6.59923 256.788 8.53395 260.316 11.0946C262.066 12.4034 263.631 13.8687 264.968 15.4335C266.263 17.0268 267.344 18.7197 268.155 20.4268H268.141Z" fill="var(--fill-0, #E3D7C5)"/>
<path id="Vector_15" d="M271.014 41.0411C270.73 41.7808 270.388 42.4779 270.09 43.1892C269.705 43.8578 269.392 44.5691 268.966 45.2093C268.61 45.8779 268.311 46.5892 267.885 47.2151L267.301 48.1825L266.647 49.093C267.458 48.2536 268.183 47.329 268.866 46.3616C269.805 44.6972 270.459 42.8762 271.028 41.0411H271.014Z" fill="var(--fill-0, #E3D7C5)"/>
<path id="Vector_16" d="M154.66 99.0694L157.52 97.8745C159.156 97.1347 160.792 96.395 162.485 95.6979C164.348 94.9012 166.297 94.2042 168.232 93.564C170.152 92.9523 172.087 92.3548 174.022 91.8C171.959 91.7573 170.565 91.4301 169.939 90.733C167.506 91.4586 164.875 92.3121 162.428 93.2937C159.967 94.2611 157.591 95.2996 155.258 96.3381C150.606 98.3866 146.082 100.421 141.573 101.787C139.325 102.469 137.077 102.982 134.886 103.238C132.61 103.522 130.32 103.522 129.082 103.138C128.499 102.925 128.271 102.754 127.916 102.356C127.574 101.943 127.148 101.232 126.735 100.279C125.91 98.3439 125.184 95.954 124.302 93.4644C123.164 90.8753 121.898 88.4284 120.532 86.1808C121.486 88.2435 122.353 90.3347 123.107 92.4544C123.876 94.6025 124.487 96.6937 125.142 98.6142C125.782 100.52 126.493 102.327 127.247 103.166C127.645 103.593 127.973 103.935 128.599 104.162C129.196 104.404 129.978 104.589 130.889 104.646C132.667 104.788 134.773 104.689 136.722 104.433C138.699 104.162 140.705 103.764 142.696 103.209C146.694 102.128 150.677 100.606 154.675 99.0694H154.66Z" fill="var(--fill-0, #E3D7C5)"/>
<path id="Vector_17" d="M268.951 45.1966C268.339 46.2067 267.628 47.1456 266.903 48.0561C265.921 49.3648 264.897 50.6736 263.631 51.7263C264.157 51.328 264.712 50.9439 265.181 50.4745C265.679 50.0335 266.191 49.5782 266.632 49.0661L267.287 48.1556L267.87 47.1883C268.283 46.5623 268.596 45.8653 268.951 45.1824V45.1966Z" fill="var(--fill-0, #E3D7C5)"/>
<path id="Vector_18" d="M267.358 20.4861C267.814 21.112 268.141 21.7949 268.539 22.435C268.852 23.1179 269.222 23.7865 269.506 24.4836C269.506 24.4267 269.478 24.3555 269.464 24.2844C269.151 23.63 268.838 22.9756 268.496 22.3354C268.098 21.7237 267.785 21.0693 267.344 20.4861H267.358Z" fill="var(--fill-0, #E3D7C5)"/>
<path id="Vector_19" d="M269.478 24.2983C269.478 24.3694 269.506 24.4405 269.521 24.4974C272.608 31.838 271.669 41.284 266.917 48.0697C267.643 47.1593 268.354 46.2204 268.966 45.2103C272.053 38.6949 272.309 30.7141 269.492 24.2983H269.478Z" fill="var(--fill-0, #E3D7C5)"/>
<path id="Vector_20" d="M169.726 90.4778C178.944 87.8744 188.319 85.8686 197.779 84.5171C200.496 84.1046 203.299 83.7631 205.959 83.4644C208.605 83.1514 211.137 82.7958 213.428 82.1556C215.718 81.5155 217.724 80.5908 219.275 79.2393C220.84 77.9447 222.276 75.754 224.396 73.4494C227.654 69.9356 231.68 67.3891 235.691 65.4829C239.717 63.5481 243.786 62.1398 247.67 60.7172C251.539 59.2946 255.266 57.8435 258.538 55.9942C261.824 54.1164 264.627 51.9398 266.647 49.0804C266.206 49.5925 265.694 50.0335 265.196 50.4887C264.726 50.9582 264.172 51.3423 263.645 51.7406C261.725 53.4335 259.434 54.8988 256.888 56.1364C254.342 57.3883 251.511 58.4126 248.552 59.4368C242.662 61.4996 236.004 63.2778 229.432 67.318L228.066 68.2285L226.757 69.2669L225.477 70.3054L224.282 71.472C223.486 72.2259 222.703 73.051 222.063 73.8477C221.48 74.559 220.911 75.2703 220.327 75.9673C219.801 76.6075 219.332 77.1481 218.876 77.6033C218.421 78.0443 218.009 78.4 217.511 78.7414C216.543 79.4242 215.405 79.9933 214.111 80.4343C211.507 81.3305 208.406 81.7715 205.12 82.1698C201.763 82.5682 198.32 83.0519 194.977 83.6209C188.248 84.7447 181.59 86.21 174.847 88.0309C173.154 88.4861 171.461 88.9698 169.769 89.4677C168.915 89.7238 168.061 89.9799 167.208 90.2359C166.312 90.5347 165.415 90.8192 164.519 91.1179C160.963 92.384 157.534 93.8493 154.134 95.3004C151.289 96.6091 148.259 97.9891 145.101 99.2267C141.943 100.464 138.642 101.546 135.384 102.058C133.748 102.314 131.928 102.513 130.633 102.47C130.021 102.428 129.452 102.371 129.168 102.257C128.826 102.186 128.755 102.1 128.499 101.93C128.272 101.802 127.959 101.304 127.603 100.777C127.261 100.166 126.892 99.4543 126.536 98.6435C125.782 96.8794 125.042 95.1296 124.317 93.4225C125.199 95.9121 125.924 98.302 126.749 100.237C127.148 101.19 127.589 101.901 127.93 102.314C128.286 102.712 128.513 102.883 129.097 103.096C130.349 103.48 132.625 103.48 134.901 103.196C137.106 102.94 139.339 102.428 141.587 101.745C146.097 100.393 150.62 98.3589 155.272 96.2962C157.605 95.2719 159.967 94.2192 162.442 93.2518C164.889 92.2702 167.521 91.4167 169.953 90.6912C169.868 90.6058 169.769 90.5347 169.726 90.4351V90.4778Z" fill="var(--fill-0, #E3D7C5)"/>
<path id="Vector_21" d="M72.1206 30.2593C82.4201 42.7355 92.8193 55.1262 103.29 67.5454C108.51 73.7479 113.689 80.1496 117.53 87.4759C119.479 91.0893 121.029 95.0157 122.452 98.7998C123.192 100.678 123.96 102.555 125.069 103.978C126.151 105.429 127.673 106.155 129.536 106.325C127.701 105.998 126.378 105.159 125.51 103.765C124.614 102.37 124.017 100.55 123.448 98.6717C122.893 96.7939 122.352 94.8307 121.712 92.8391C121.072 90.8617 120.332 88.9128 119.55 86.978C116.335 79.2107 111.669 72.1404 107.031 65.4542C104.613 62.3957 102.194 59.4082 99.7757 56.435C97.4142 54.4149 95.0812 52.3948 93.7155 50.5028C91.3255 47.2024 89.0352 44.0727 86.8159 40.9999C81.4528 34.7974 76.0184 28.7798 70.5272 22.9614C67.7816 20.0594 65.0076 17.1999 62.2193 14.4117C60.8252 13.0033 59.3457 11.5807 57.7097 10.3573C56.0737 9.13386 54.1959 8.1665 52.2754 7.69704C54.6796 8.70708 56.6712 10.4284 58.3356 12.3347C60.0001 14.241 61.4653 16.3037 63.016 18.2953C66.0603 22.307 69.1047 26.3045 72.1348 30.2878L72.1206 30.2593Z" fill="var(--fill-0, #E3D7C5)"/>
<path id="Vector_22" d="M110.831 70.3752C108.526 66.8471 106.079 63.2764 103.476 59.6915C103.077 59.3359 102.679 58.966 102.267 58.5819C103.86 60.8723 105.453 63.1484 107.046 65.4388C108.313 67.0463 109.593 68.6965 110.831 70.3752Z" fill="var(--fill-0, #E3D7C5)"/>
<path id="Vector_23" d="M36.8701 8.39491C41.7069 6.2468 47.383 5.59241 52.2625 7.68361C54.183 8.16729 56.0608 9.12043 57.6968 10.3439C59.347 11.5673 60.8123 12.9899 62.2064 14.3982C64.9947 17.2007 67.7545 20.0459 70.5143 22.948C76.0198 28.7664 81.4398 34.784 86.803 40.9865C82.9905 35.7513 79.306 30.7438 75.4365 25.6225C73.4876 23.076 71.5102 20.4869 69.4759 17.8267C68.4374 16.5037 67.3989 15.1522 66.3177 13.7865C65.2508 12.4351 64.1696 11.0125 62.7897 9.44763C61.1964 7.81165 59.3897 6.50286 57.5119 5.64931C55.634 4.78153 53.742 4.3832 52.0207 4.29785C48.5211 4.12714 45.5763 4.66772 41.6927 5.26521C38.2927 5.82002 34.85 7.18571 31.8057 9.14888C28.7471 11.0836 25.9872 13.5305 23.4835 16.1338C20.9655 18.7514 18.6609 21.4543 16.4274 24.1999C14.1655 26.9455 11.9036 29.7195 9.6559 32.522L6.3128 36.7471C5.21741 38.184 4.1078 39.4643 2.94127 41.2994C2.38646 42.1814 1.84588 43.1346 1.36219 44.1731C1.13458 44.7137 0.906978 45.24 0.707815 45.8375C0.522879 46.4065 0.323715 47.0325 0.195682 47.8149C-0.373355 50.7881 0.295259 54.0032 2.25843 56.2651C3.21157 57.4032 4.43499 58.3136 5.71532 58.9965C6.78226 59.5513 7.74963 59.9354 8.58896 60.2341C10.3245 60.8743 12.0601 61.4006 13.7387 61.8559C17.1245 62.7663 20.368 63.4065 23.455 64.0467C27.6517 65.2559 31.7914 66.7354 35.4048 69.0542C37.2257 70.2349 38.7763 71.5864 40.3696 73.3077C41.9629 75.0006 43.5847 76.9638 45.619 78.7847C47.6818 80.6056 50.0717 82.0709 52.5328 83.1236C54.9939 84.1763 57.5261 84.9018 60.0014 85.4993C64.9947 86.6943 69.8315 87.4341 74.3838 89.0558C83.5737 92.2282 91.9812 97.4349 100.332 101.262C104.5 103.182 108.682 104.775 112.78 105.714C116.877 106.667 120.846 106.895 124.459 106.511C120.006 106.696 115.596 105.899 111.385 104.534C107.174 103.168 103.163 101.262 99.2649 99.2415C91.4691 95.1872 84.0574 90.5495 76.0767 87.5194C68.1386 84.3044 59.6315 84.0341 52.3763 80.4207C50.5696 79.5244 48.9052 78.4006 47.4115 77.0634C45.9177 75.7261 44.6232 74.2182 43.3002 72.7387C40.7395 69.7228 37.7805 67.1052 34.3521 65.3128C27.5236 61.6283 19.9412 60.2199 12.8141 57.7588C11.9178 57.4601 11.0358 57.1329 10.1538 56.7914C9.27181 56.4643 8.3898 56.0944 7.52202 55.6249C6.62578 55.127 5.78646 54.5153 5.14629 53.7187C4.53458 52.9078 4.09358 51.9546 3.95132 50.9304C3.79484 49.9203 3.8944 48.8818 4.13624 47.9003C4.37808 46.9329 4.73374 46.0367 5.14629 45.1689C5.98562 43.4618 7.06678 41.8827 8.16218 40.4317C12.5153 34.5564 16.8258 28.7522 21.0793 22.9907C23.2701 20.1597 25.5178 17.343 28.0784 14.7966C30.6391 12.2644 33.5127 9.98821 36.8132 8.42336L36.8701 8.39491Z" fill="var(--fill-0, #E3D7C5)"/>
<path id="Vector_24" d="M102.266 58.5835C101.455 57.8722 100.616 57.1609 99.7909 56.4354C102.224 59.4086 104.628 62.3961 107.046 65.4546C105.453 63.1643 103.86 60.8881 102.266 58.5978V58.5835Z" fill="var(--fill-0, #E3D7C5)"/>
<path id="Vector_25" d="M249.817 8.23932C245.45 7.34309 240.883 7.72719 236.388 8.89371C239.731 8.09706 243.131 7.81254 246.374 8.06861C249.618 8.31045 252.819 9.27781 255.792 10.6435C253.9 9.59078 251.88 8.82258 249.803 8.25355L249.817 8.23932Z" fill="var(--fill-0, #E3D7C5)"/>
<path id="Vector_26" d="M153.479 99.7237L156.296 98.4292C155.741 98.6426 155.215 98.8417 154.66 99.0551C153.82 99.4108 152.981 99.7522 152.156 100.108C152.597 99.9798 153.038 99.8518 153.493 99.7237H153.479Z" fill="var(--fill-0, #E3D7C5)"/>
<path id="Vector_27" d="M194.293 90.9607C179 92.8954 165.699 95.641 153.493 99.7239C149.581 101.516 145.683 103.252 141.686 104.518C139.68 105.13 137.674 105.67 135.625 105.983C133.577 106.296 131.486 106.51 129.565 106.31C132.026 106.766 134.843 106.609 137.517 106.282C140.22 105.926 142.909 105.272 145.569 104.447C150.89 102.811 156.068 100.592 161.317 98.6285C163.949 97.6469 166.581 96.7364 169.284 96.0251C172.001 95.2996 174.747 94.6168 177.507 93.9908C183.026 92.7532 188.631 91.7289 194.307 90.9465L194.293 90.9607Z" fill="var(--fill-0, #E3D7C5)"/>
<path id="Vector_28" d="M152.156 100.123C152.995 99.7671 153.834 99.4256 154.659 99.07C150.662 100.606 146.679 102.129 142.681 103.21C140.69 103.765 138.684 104.163 136.706 104.433C134.757 104.675 132.652 104.789 130.874 104.647C129.977 104.575 129.195 104.405 128.583 104.163C127.957 103.935 127.616 103.594 127.232 103.167C126.478 102.314 125.767 100.521 125.126 98.6148C124.486 96.6943 123.86 94.6031 123.092 92.4549C122.338 90.3353 121.47 88.2299 120.517 86.1813C120.176 85.6265 119.82 85.0717 119.479 84.5311C116.932 80.2633 114.116 75.3981 110.829 70.3906C109.577 68.7119 108.311 67.0617 107.045 65.4542C111.697 72.1261 116.363 79.2106 119.564 86.978C120.361 88.9127 121.086 90.8759 121.726 92.839C122.367 94.8307 122.907 96.7938 123.462 98.6717C124.031 100.549 124.628 102.37 125.525 103.765C126.392 105.144 127.715 105.998 129.551 106.325C131.471 106.524 133.562 106.311 135.611 105.998C137.645 105.699 139.665 105.144 141.671 104.533C145.669 103.267 149.566 101.531 153.479 99.7386C153.023 99.8666 152.582 99.9947 152.141 100.123H152.156Z" fill="var(--fill-0, #E3D7C5)"/>
<path id="Vector_29" d="M183.539 91.1163C182.102 91.287 180.737 91.4293 179.485 91.5431C175.815 92.2401 172.144 93.0795 168.46 94.0468C164.733 95.0284 161.105 96.4083 157.52 97.8736C157.122 98.0585 156.709 98.2435 156.282 98.4284C160.678 96.7355 165.188 95.0569 169.783 93.9757C174.349 92.8376 178.944 91.8845 183.525 91.1021L183.539 91.1163Z" fill="var(--fill-0, #E3D7C5)"/>
<path id="Vector_30" d="M157.52 97.8766L154.661 99.0716C155.215 98.8582 155.742 98.659 156.296 98.4456C156.709 98.2607 157.122 98.0615 157.534 97.8908L157.52 97.8766Z" fill="var(--fill-0, #E3D7C5)"/>
<path id="Vector_31" d="M220.697 10.9242C219.673 11.3652 218.634 11.8062 217.624 12.2473C223.13 8.86149 229.033 6.03053 235.278 4.66484C238.494 3.85397 241.808 3.42719 245.109 3.51254C248.409 3.61213 251.695 4.25229 254.796 5.36191C260.999 7.59538 266.604 11.6782 270.36 17.1125C274.172 22.5041 275.893 29.2472 275.31 35.8054C274.727 42.3493 272.01 48.7652 267.415 53.4313C262.777 58.1116 256.432 60.658 250.102 62.8773C243.757 65.1107 237.028 66.9885 231.096 70.9291C228.166 72.8354 225.505 75.5099 223.443 78.1701C222.361 79.4647 221.294 80.6312 220.043 81.5417C218.791 82.4663 217.354 83.1776 215.846 83.7182C212.816 84.8136 209.487 85.2546 206.101 85.6387C202.701 86.0086 199.244 86.4354 195.83 86.9902C199.13 86.7626 202.388 86.6772 205.617 86.6488C208.847 86.6061 212.062 86.5492 215.334 85.8663C216.956 85.5107 218.591 84.9986 220.171 84.2019C221.735 83.4195 223.215 82.2814 224.467 81.0153C225.733 79.7634 226.843 78.4404 228.009 77.2881C228.621 76.7475 229.232 76.1927 229.858 75.6521C230.499 75.1258 231.21 74.6563 231.878 74.1442C231.011 74.8839 230.086 75.5525 229.332 76.3777C228.521 77.1458 227.767 77.9425 227.042 78.8672C225.562 80.6454 223.94 82.7651 221.679 84.2873C219.473 85.8094 217.012 86.7199 214.594 87.2889C212.161 87.858 209.757 88.114 207.396 88.299C198.035 88.8538 188.802 89.7785 179.47 91.5709C180.722 91.4571 182.088 91.3006 183.525 91.1441C188.205 90.3475 192.885 89.7358 197.537 89.2948C199.87 89.0814 202.189 88.9107 204.508 88.7684C206.841 88.6404 209.202 88.5124 211.592 88.2136C213.94 87.8437 216.358 87.2889 218.705 86.2789C219.872 85.7667 221.01 85.1266 222.091 84.3868C223.158 83.6186 224.154 82.7366 224.979 81.8262C226.686 80.0337 227.938 78.2555 229.432 76.9894L230.527 75.9936C230.925 75.6948 231.324 75.4103 231.708 75.1115C232.462 74.4998 233.33 74.0304 234.14 73.5325C237.455 71.612 240.983 70.3743 244.17 69.407C247.37 68.4538 250.258 67.7425 252.591 67.2304C245.279 69.7057 237.939 71.4555 232.149 75.4814C231.437 75.9793 230.712 76.4772 230.086 77.0889C229.417 77.658 228.763 78.2128 228.151 78.9099C226.885 80.2613 225.562 81.9115 223.812 83.4052C222.034 84.9274 219.971 86.0228 217.88 86.7626C215.789 87.5165 213.669 87.9149 211.592 88.1852C208.889 88.5977 206.272 88.7542 203.754 88.9676C201.236 89.1667 198.789 89.3944 196.428 89.6504C191.69 90.1341 187.309 90.7031 183.525 91.1299C178.944 91.9123 174.349 92.8655 169.782 94.0036C165.173 95.0847 160.664 96.7634 156.282 98.4563L153.465 99.7508C165.685 95.668 178.972 92.9224 194.265 90.9877C188.589 91.7843 182.984 92.7943 177.464 94.032C174.705 94.6579 171.959 95.3266 169.242 96.0663C166.553 96.7776 163.907 97.6881 161.275 98.6696C156.026 100.633 150.848 102.852 145.527 104.488C142.867 105.299 140.178 105.968 137.475 106.323C134.801 106.65 131.984 106.807 129.523 106.352C127.659 106.181 126.137 105.455 125.056 104.004C123.947 102.582 123.178 100.704 122.439 98.8261C121.016 95.042 119.465 91.1157 117.516 87.5023C113.661 80.176 108.497 73.7743 103.276 67.5718C92.8202 55.1526 82.4069 42.7618 72.1073 30.2857C79.647 40.1869 87.1299 50.0313 94.6269 59.8756C102.024 69.8053 110.219 79.2086 115.112 90.1768C116.364 92.9366 117.374 95.6822 118.37 98.6554C118.882 100.149 119.394 101.671 120.091 103.265C120.788 104.829 121.685 106.636 123.42 108.144C125.141 109.666 127.418 110.378 129.295 110.577C131.216 110.804 132.966 110.733 134.659 110.577C138.059 110.278 141.416 109.496 144.588 108.486C150.947 106.437 156.751 103.549 162.527 101.117C163.978 100.505 165.415 99.9215 166.852 99.3952C168.289 98.8546 169.711 98.3994 171.262 97.9299C174.292 96.991 177.365 96.1374 180.466 95.3408C185.658 94.2881 191.036 93.2353 196.541 92.3107C199.301 91.8554 202.075 91.4287 204.892 91.0446C207.723 90.6605 210.753 90.2906 213.854 89.5082C215.988 88.9107 218.179 88.1425 220.299 87.0186C222.404 85.9232 224.495 84.2588 226.017 82.5801C227.568 80.9157 228.763 79.3509 230.029 78.2555C231.309 77.1032 232.689 76.0505 234.24 75.1827C240.386 71.5977 248.181 70.104 255.878 66.6471C259.676 64.9685 263.588 62.9768 267.145 60.1743C270.715 57.3861 273.745 53.73 275.737 49.6898C279.848 41.638 280.56 32.1208 277.757 23.5284C274.798 14.9359 268.283 7.96525 260.359 4.01045C256.418 1.96192 252.051 0.738492 247.598 0.226359C243.117 -0.171967 238.65 0.226359 234.368 1.27908C225.804 3.41296 218.222 7.72341 211.251 12.3753C204.309 17.0983 197.722 22.0631 191.221 27.2556C178.261 37.6405 166.069 48.9786 154.817 61.0563C151.047 65.0681 147.476 70.1182 144.105 75.6237C142.454 78.355 140.89 81.1007 139.211 83.7467C138.372 85.0697 137.504 86.3642 136.593 87.6161C136.138 88.2421 135.669 88.8538 135.171 89.4513L134.844 89.8496C134.758 89.9349 134.744 90.0203 134.616 90.1341C134.403 90.3617 134.147 90.5893 133.862 90.8312C131.316 92.9224 129.054 94.8571 127.802 96.55C130.234 95.1559 132.724 93.9466 135.014 92.6094C135.598 92.268 136.11 91.9266 136.565 91.5567C137.063 91.1157 137.561 90.6747 138.044 90.2195C139.012 89.309 139.965 88.3559 140.861 87.3743C144.503 83.4479 147.675 79.0948 151.118 74.9835C157.932 66.7325 165.159 59.0078 172.77 51.7384C179.883 44.0279 187.465 36.7158 195.446 29.8732C199.429 26.4447 203.512 23.1158 207.694 19.9292C211.863 16.7142 216.13 13.6272 220.668 10.9669L220.697 10.9242Z" fill="var(--fill-0, #E3D7C5)"/>
<path id="Vector_32" d="M218.094 15.8317C213.982 18.3639 210.013 21.2233 206.059 24.0543C202.118 26.8995 198.277 29.83 194.493 32.8175C186.968 38.8208 179.712 45.066 172.798 51.6952C165.102 59.9889 157.975 68.7806 151.388 77.942C148.117 82.5228 144.944 87.3311 140.932 91.6985C140.435 92.2391 139.922 92.7797 139.382 93.306C139.097 93.5763 138.884 93.8039 138.542 94.1027C138.173 94.4299 137.831 94.7002 137.504 94.9278C136.181 95.8667 134.958 96.578 133.72 97.332C132.496 98.0717 131.287 98.783 130.135 99.5085C128.997 100.234 127.859 101.002 127.034 101.728C127.816 102.283 128.897 102.354 130.661 101.728C132.596 101.642 134.958 100.888 138.059 99.1671C138.87 98.6976 139.652 98.2709 140.918 97.2324C141.06 97.1186 141.26 96.9479 141.345 96.8625L141.615 96.6064L142.156 96.0801C142.512 95.7244 142.853 95.3546 143.209 94.9847C144.588 93.4767 145.883 91.8123 147.092 90.0625C149.511 86.5772 151.602 82.8358 153.736 79.3504C155.898 75.8651 158.174 72.4651 160.564 69.563C170.935 56.8877 182.728 45.0802 195.489 34.3539C201.862 29.0334 208.548 23.8978 215.306 19.189C222.049 14.5656 229.119 10.625 236.403 8.86103C240.884 7.69451 245.45 7.32463 249.832 8.20664C244.824 6.8125 239.233 7.05434 233.813 8.53384C228.365 9.9991 223.101 12.6736 218.108 15.8175L218.094 15.8317Z" fill="var(--fill-0, #E3D7C5)"/>
<path id="Vector_33" d="M127.815 96.5235C126.805 97.8323 126.307 98.9988 126.251 99.895C126.179 100.777 126.549 101.36 127.033 101.73C127.858 101.005 128.996 100.236 130.134 99.5109C131.287 98.7854 132.496 98.0599 133.719 97.3343C134.957 96.5804 136.18 95.8833 137.503 94.9302C137.83 94.7026 138.172 94.4323 138.542 94.1051C138.883 93.8063 139.097 93.5645 139.381 93.3084C139.907 92.7821 140.434 92.2415 140.932 91.7009C144.943 87.3335 148.102 82.5252 151.388 77.9444C157.974 68.7829 165.102 59.9913 172.798 51.6976C165.187 58.9671 157.96 66.6917 151.146 74.9428C147.717 79.0541 144.531 83.393 140.889 87.3335C139.979 88.3151 139.04 89.2683 138.072 90.1787C137.589 90.6339 137.091 91.0749 136.593 91.516C136.138 91.8858 135.611 92.2415 135.042 92.5687C132.752 93.9059 130.262 95.1151 127.83 96.5092L127.815 96.5235Z" fill="var(--fill-0, #E3D7C5)"/>
<path id="Vector_34" d="M268.055 20.2447C268.055 20.2447 268.098 20.3443 268.141 20.4012C268.226 20.5008 268.297 20.643 268.368 20.7568C268.283 20.5861 268.169 20.4154 268.055 20.2589V20.2447Z" fill="var(--fill-0, #E3D7C5)"/>
<path id="Vector_35" d="M197.764 84.5173C200.482 84.119 203.298 83.7918 205.944 83.4931C208.59 83.1801 211.137 82.8387 213.413 82.1843C215.703 81.5441 217.723 80.6052 219.274 79.2537C220.839 77.9592 222.261 75.7542 224.381 73.4496C222.261 75.7542 220.825 77.945 219.26 79.2395C217.709 80.5767 215.689 81.5014 213.413 82.1558C211.123 82.8102 208.59 83.1516 205.944 83.4646C203.284 83.7634 200.482 84.1048 197.764 84.5173Z" fill="var(--fill-0, #E3D7C5)"/>
<path id="Vector_36" d="M254.711 10.0603C258.495 11.6678 261.98 14.0293 264.698 17.0025C265.082 17.4151 265.466 17.785 265.779 18.226C266.063 18.4536 266.305 18.6385 266.575 18.8519C265.722 17.6143 265.736 17.6 264.74 16.4193C266.106 17.6569 267.116 19.0653 268.055 20.3172C264.015 14.072 257.087 9.64774 249.817 8.25361C251.51 8.68038 253.146 9.349 254.697 10.0745L254.711 10.0603Z" fill="var(--fill-0, #E3D7C5)"/>
<path id="Vector_37" d="M125.427 96.51C125.284 96.1828 125.156 95.8698 125.014 95.5426C125.142 95.9125 125.256 96.2539 125.37 96.6096C125.398 96.5953 125.398 96.5384 125.427 96.51Z" fill="var(--fill-0, #E3D7C5)"/>
<path id="Vector_38" d="M127.916 101.516C127.831 101.445 127.759 101.274 127.66 101.146C127.56 101.232 127.489 101.431 127.404 101.63C127.845 102.355 128.144 102.64 128.528 102.868C128.2 102.555 128.101 102.227 127.902 101.502L127.916 101.516Z" fill="var(--fill-0, #E3D7C5)"/>
<path id="Vector_39" d="M217.624 12.2473C218.634 11.8205 219.659 11.3653 220.697 10.9243C225.264 8.22133 230.157 5.98786 235.279 4.66486C229.033 6.03054 223.13 8.8615 217.624 12.2473Z" fill="var(--fill-0, #E3D7C5)"/>
<path id="Vector_40" opacity="0.9" d="M169.726 90.4778C178.944 87.8744 188.319 85.8686 197.779 84.5171C200.496 84.1046 203.299 83.7631 205.959 83.4644C208.605 83.1514 211.137 82.7958 213.428 82.1556C215.718 81.5155 217.724 80.5908 219.275 79.2393C220.84 77.9447 222.276 75.754 224.396 73.4494C227.654 69.9356 231.68 67.3891 235.691 65.4829C239.717 63.5481 243.786 62.1398 247.67 60.7172C251.539 59.2946 255.266 57.8435 258.538 55.9942C261.824 54.1164 264.627 51.9398 266.647 49.0804C266.249 49.5356 265.822 49.9482 265.367 50.3323C264.129 51.8971 262.578 53.3055 260.743 54.5289C261.241 54.1021 261.725 53.6611 262.137 53.1917C261.767 53.462 261.213 53.8176 260.572 54.1448C255.593 57.3883 249.149 59.2661 242.235 61.6276C238.593 63.0218 235.137 64.5297 232.476 65.6251C231.95 65.9096 231.438 66.1799 230.911 66.4502C230.001 67.005 229.119 67.6167 228.237 68.2C227.369 68.8402 226.544 69.5372 225.705 70.1916C224.908 70.9171 224.154 71.6854 223.386 72.4393C222.632 73.2217 222.006 74.0042 221.423 74.7155C219.104 77.6887 217.923 78.8694 215.476 79.9648C213.143 81.0175 210.241 81.5724 207.112 81.9991C203.982 82.3975 200.525 82.81 197.253 83.3221C197.253 83.5071 197.096 83.7205 196.94 83.9196C193.768 84.2468 190.638 84.6167 187.551 85.0719C183.866 85.8259 180.182 86.6937 176.455 87.661C174.591 88.1447 172.728 88.6569 170.85 89.1974C168.958 89.7523 167.137 90.2786 165.102 90.9615C164.135 91.6443 168.417 90.7907 166.425 91.7723C166.169 91.8719 165.942 91.9573 165.7 92.0568C167.165 91.5589 168.531 91.1464 169.939 90.7196C169.854 90.6343 169.754 90.5631 169.712 90.4635L169.726 90.4778Z" fill="var(--fill-0, #E3D7C5)"/>
<path id="Vector_41" d="M268.951 45.1966C268.482 45.9506 267.998 46.7046 267.443 47.359C267.202 47.7431 266.988 48.113 266.704 48.4402C266.277 49.0946 265.864 49.7347 265.352 50.318C265.793 49.9339 266.234 49.5213 266.633 49.0661L267.287 48.1556L267.87 47.1883C268.283 46.5623 268.596 45.8653 268.951 45.1824V45.1966Z" fill="var(--fill-0, #E3D7C5)"/>
<path id="Vector_42" d="M126.579 102.185C127.091 103.081 127.504 103.565 128.144 103.949C128.784 104.333 129.851 104.56 131.032 104.646C132.213 104.76 133.55 104.688 134.873 104.617C136.182 104.518 137.49 104.347 138.813 104.105C144.105 103.124 149.369 101.103 154.661 99.0834L157.52 97.8884C159.156 97.1486 160.792 96.4089 162.485 95.7118C164.349 94.9152 166.298 94.2181 168.233 93.5779C170.153 92.9662 172.088 92.3687 174.023 91.8139C171.96 91.7713 170.566 91.4441 169.94 90.747C168.531 91.1738 167.166 91.5863 165.7 92.0842C164.306 92.639 163.154 93.0658 162.172 93.393C156.326 95.7261 150.905 98.429 145.471 100.449C142.768 101.459 140.065 102.313 137.405 102.825C134.844 103.308 131.8 103.621 129.851 103.308C129.524 103.323 129.325 103.237 129.054 103.195C128.855 103.095 128.642 103.024 128.528 102.882C128.144 102.654 127.845 102.37 127.404 101.644C127.234 102.071 127.106 102.569 126.565 102.185H126.579Z" fill="var(--fill-0, #E3D7C5)"/>
<path id="Vector_43" d="M14.7202 32.3502C14.834 32.2364 14.9336 32.1226 15.0332 32.0088C15.147 31.8523 15.2466 31.71 15.3462 31.5536C15.147 31.8096 14.9336 32.0657 14.7202 32.336V32.3502Z" fill="var(--fill-0, #E3D7C5)"/>
<path id="Vector_44" opacity="0.9" d="M71.5669 29.6045C81.9519 42.2087 92.4506 54.699 103.006 67.232C108.27 73.4914 113.519 79.9215 117.417 87.2906C119.394 90.9324 120.974 94.8872 122.41 98.6998C123.164 100.592 123.933 102.498 125.042 103.935C126.123 105.414 127.66 106.14 129.538 106.311C128.186 106.04 127.048 105.528 126.237 104.689C125.412 103.864 124.829 102.669 124.345 101.36C123.363 98.6997 122.681 95.755 121.685 92.7533C119.764 86.7927 117.004 81.0169 113.747 75.6538C113.22 74.914 112.68 74.1458 112.125 73.3634C112.424 73.719 112.68 74.032 112.922 74.3308C112.296 73.3349 111.684 72.3534 111.044 71.4002C110.546 71.2011 110.162 71.258 109.948 71.6278C108.455 68.6546 103.049 62.694 104.784 62.9358C104.87 62.9358 105.026 63.0212 105.183 63.135C103.789 61.3994 102.394 59.6639 101 57.9425C98.525 55.8229 96.0071 53.6747 94.5702 51.6973C94.2999 51.3275 94.0581 50.986 93.802 50.6304C92.8631 49.4497 91.91 48.1409 90.9142 46.6471C90.9142 46.6471 90.9 46.6187 90.8857 46.6045C89.1644 46.3769 92.8205 52.1099 91.1987 50.5735C84.1711 43.0907 83.7585 40.0748 85.6506 39.648C80.4439 33.6589 75.1661 27.8547 69.8456 22.2355C67.1711 19.433 64.5109 16.6732 61.7937 13.9702C60.428 12.6046 58.977 11.2389 57.3553 10.0866C55.7477 8.92004 53.9126 8.05226 52.049 7.61126C54.4105 8.57862 56.4021 10.2004 58.0523 12.0497C59.7168 13.8991 61.1536 15.905 62.6473 17.8681C65.6347 21.7945 68.608 25.7066 71.5669 29.6045Z" fill="var(--fill-0, #E3D7C5)"/>
<path id="Vector_45" opacity="0.9" d="M15.0335 32.0094C14.934 32.109 14.8344 32.2228 14.7206 32.3508C14.934 32.0805 15.1474 31.8103 15.3465 31.5684C18.5758 27.0446 21.6628 22.4496 25.2335 18.1676C28.7758 13.9283 33.0009 9.94503 38.2929 7.8396C42.7029 6.21785 47.682 5.84797 52.0351 7.61199C53.8987 8.05299 55.7339 8.92077 57.3414 10.0873C58.9632 11.2396 60.4142 12.6053 61.7799 13.971C64.497 16.6739 67.1573 19.4337 69.8318 22.2362C75.1665 27.8555 80.4301 33.6596 85.6367 39.6487C85.6936 39.6487 85.7363 39.6203 85.779 39.6203C82.3079 34.8831 78.9079 30.2881 75.3372 25.5651C73.5447 23.2178 71.7096 20.8279 69.8175 18.3668C68.8644 17.1433 67.897 15.9057 66.9012 14.6396C65.8912 13.3735 64.938 12.1216 63.7857 10.7275C62.3062 9.14838 60.4569 7.22789 57.8962 5.56346C56.6159 4.73835 55.1364 4.02706 53.6427 3.51492C52.1347 3.03124 50.5983 2.68982 49.0762 2.56179C42.9448 2.03543 37.6385 3.98438 33.8402 5.8622C30.5113 7.52663 27.78 9.64629 25.4327 11.8513C23.0854 14.0563 21.108 16.3467 19.3155 18.5802C15.8017 23.0186 12.8001 27.3433 9.75575 31.7534C8.2478 33.9584 6.76831 36.1918 5.28881 38.468C4.57752 39.5491 3.72395 40.9006 3.01266 42.3374C2.28714 43.7885 1.64696 45.3533 1.29131 47.288C0.892989 49.4362 1.09217 51.7265 2.13066 53.6328C2.65702 54.5717 3.33984 55.4395 4.17917 56.1223C4.97582 56.7909 6.04278 57.3884 6.88211 57.7299C8.56076 58.4127 9.99759 58.7541 11.5767 59.1667C13.1273 59.565 14.7064 59.9064 16.3139 60.2194C20.98 61.6847 25.5465 62.9365 29.7431 64.7148C33.9682 66.4503 37.6528 68.8261 40.5833 72.0553C42.0912 73.6771 43.5281 75.4838 45.2067 77.1909C46.8711 78.9122 48.8912 80.406 50.9824 81.5298C55.2217 83.8059 59.7456 84.816 64.056 85.7976C66.2326 86.2813 68.3665 86.7507 70.4719 87.3055C71.5246 87.5616 72.5489 87.9315 73.5732 88.2587C74.6117 88.5716 75.6217 88.9557 76.6317 89.354C80.6861 90.9189 84.6267 92.8252 88.5246 94.8026C96.3204 98.7431 104.173 103.068 112.68 105.031C107.459 103.552 102.324 101.076 97.2166 98.2879C92.0811 95.5281 86.9455 92.4268 81.4401 89.7808C80.0602 89.1264 78.6803 88.4578 77.2434 87.8888C75.8351 87.2628 74.3698 86.7507 72.9046 86.2528C69.9598 85.2285 66.9297 84.5599 63.928 83.8202C60.9263 83.0947 57.9247 82.3122 55.0653 81.1599C53.6427 80.5767 52.2627 79.8938 50.9682 79.1114C49.6736 78.3005 48.4644 77.3616 47.3548 76.2947C45.1498 74.1608 43.2862 71.6143 41.0385 69.3524C38.7624 67.119 36.1163 65.2838 33.2854 63.8897C27.6093 61.0729 21.5206 59.6077 15.6879 57.7583C14.2227 57.2889 12.7859 56.8194 11.349 56.2788C9.94068 55.7382 8.47542 55.2261 7.26621 54.4294C6.01433 53.6612 5.08963 52.3809 4.80512 50.9441C4.53482 49.4931 4.84779 48.0136 5.35993 46.6194C6.41264 43.8169 8.29047 41.4696 9.96913 39.0939C11.662 36.704 13.3264 34.3425 14.9767 32.0094H15.0335Z" fill="var(--fill-0, #E3D7C5)"/>
<path id="Vector_46" d="M105.78 63.6197C104.87 62.3109 103.959 61.0021 103.049 59.7075C102.38 59.1243 101.712 58.541 101.029 57.9435C102.423 59.6649 103.817 61.4004 105.211 63.136C105.382 63.264 105.567 63.4347 105.78 63.6197Z" fill="var(--fill-0, #E3D7C5)"/>
<path id="Vector_47" d="M155.215 94.9021C153.992 95.4569 152.697 96.0544 151.374 96.6377C150.663 97.2209 148.999 97.8326 147.647 98.2737C144.503 99.5824 141.231 100.849 137.931 101.645C137.888 101.716 137.845 101.802 137.803 101.873C137.803 101.873 137.433 101.873 136.878 101.887C135.982 102.058 135.128 102.228 134.204 102.342C133.279 102.47 132.397 102.541 131.558 102.584C131.344 102.769 131.173 102.968 131.06 103.11C130.619 103.267 130.235 103.295 129.85 103.31C131.799 103.623 134.844 103.31 137.404 102.826C140.065 102.3 142.768 101.46 145.47 100.45C150.891 98.4301 156.325 95.7272 162.172 93.3942C159.341 94.3473 157.705 94.4042 155.201 94.9163L155.215 94.9021Z" fill="var(--fill-0, #E3D7C5)"/>
<path id="Vector_48" d="M125.298 99.0994C125.071 97.8902 125.142 97.0082 125.384 96.6099C125.27 96.2542 125.142 95.8986 125.028 95.5429C123.933 92.9111 122.652 90.2082 121.287 87.8325C122.965 91.5455 124.16 95.6852 125.312 99.0994H125.298Z" fill="var(--fill-0, #E3D7C5)"/>
<path id="Vector_49" d="M107.501 65.3404C106.477 63.861 105.439 62.3957 104.357 60.902C103.931 60.5036 103.49 60.1195 103.049 59.707C103.945 61.0015 104.869 62.3103 105.78 63.6191C106.264 64.0601 106.861 64.6718 107.501 65.3404Z" fill="var(--fill-0, #E3D7C5)"/>
<path id="Vector_50" d="M169.726 90.4777C169.768 90.5773 169.868 90.6484 169.953 90.7338C179.058 88.0024 188.362 85.9112 197.779 84.517C188.319 85.8685 178.944 87.8744 169.726 90.4777Z" fill="var(--fill-0, #E3D7C5)"/>
<path id="Vector_51" opacity="0.9" d="M235.279 4.6645C230.158 5.98751 225.264 8.22098 220.697 10.9239C224.894 9.13144 229.347 7.46701 233.942 6.42852C238.522 5.40425 243.317 5.0486 247.812 5.8168C252.322 6.54232 256.604 8.43437 260.132 10.9666C263.66 13.513 266.405 16.785 268.041 20.1992C268.724 21.1381 269.535 22.1624 270.246 23.2862C269.919 22.9306 269.62 22.518 269.336 22.0912C269.009 21.6787 268.696 21.2235 268.383 20.754C268.482 20.9389 268.596 21.1523 268.696 21.3373C272.167 27.0703 272.864 34.4251 271.029 41.0402C272.764 36.5732 273.262 31.4803 272.337 26.6009C271.441 21.7214 268.895 17.0268 265.224 13.257C261.568 9.47286 256.86 6.57078 251.653 5.02015C246.446 3.4553 240.756 3.48375 235.293 4.6645H235.279Z" fill="var(--fill-0, #E3D7C5)"/>
<path id="Vector_52" opacity="0.9" d="M220.697 10.9264C219.673 11.3674 218.634 11.8084 217.624 12.2494C223.13 8.86362 229.034 6.03266 235.279 4.66697C238.494 3.8561 241.808 3.42932 245.109 3.51468C248.409 3.61426 251.695 4.25442 254.797 5.36404C260.999 7.59751 266.604 11.6803 270.36 17.1146C274.172 22.5063 275.894 29.2493 275.31 35.8075C274.727 42.3514 272.01 48.7673 267.415 53.4334C262.777 58.1137 256.433 60.6602 250.102 62.8794C243.757 65.1129 237.029 66.9907 231.096 70.9313C228.166 72.8375 225.506 75.512 223.443 78.1722C222.362 79.4668 221.295 80.6333 220.043 81.5438C218.791 82.4685 217.354 83.1798 215.846 83.7204C212.816 84.8157 209.487 85.2567 206.101 85.6408C202.701 86.0107 199.245 86.4375 195.83 86.9923C199.131 86.7647 202.388 86.6793 205.618 86.6509C208.847 86.6082 212.062 86.5513 215.334 85.8685C216.956 85.5128 218.592 85.0007 220.171 84.204C221.736 83.4216 223.215 82.2835 224.467 81.0174C225.733 79.7655 226.843 78.4425 228.009 77.2902C228.621 76.7497 229.233 76.1948 229.859 75.6543C230.499 75.1279 231.21 74.6584 231.879 74.1463C231.011 74.8861 230.086 75.5547 229.332 76.3798C228.521 77.148 227.767 77.9446 227.042 78.8693C225.562 80.6476 223.941 82.7672 221.679 84.2894C219.474 85.8116 217.013 86.722 214.594 87.2911C212.162 87.8601 209.757 88.1162 207.396 88.3011C198.035 88.8559 188.803 89.7806 179.471 91.5731C180.722 91.4592 182.088 91.3028 183.525 91.1463C188.205 90.3496 192.886 89.7379 197.537 89.2969C199.87 89.0835 202.189 88.9128 204.508 88.7705C206.841 88.6425 209.203 88.5145 211.593 88.2157C213.542 87.917 215.519 87.476 217.482 86.7647C219.445 86.0534 221.366 85.0291 223.059 83.6492C224.752 82.2551 226.018 80.676 227.213 79.3103C228.379 77.9162 229.56 76.8492 230.812 75.7965C233.358 73.7622 236.203 72.3112 239.02 71.2016C241.837 70.0919 244.568 69.2811 247.029 68.6124C252.521 66.82 258.396 65.0986 264.044 61.7555C266.846 60.1196 269.549 57.9146 271.782 55.2828C274.002 52.651 275.751 49.6208 276.961 46.3631C277.871 43.8024 278.625 40.246 279.009 36.7606C279.151 33.8585 279.009 30.8 278.44 27.656C277.885 25.8494 277.089 23.4736 276.136 21.2259C275.126 19.0067 273.945 16.9439 272.935 15.6636C268.51 9.88788 262.834 5.3925 256.433 2.54731C255.764 2.34815 255.124 2.10631 254.47 1.96405C254.014 1.89292 253.388 1.75066 252.634 1.5515C251.88 1.38079 251.013 1.18163 250.088 0.968238C248.224 0.598365 246.105 0.214265 244.298 0.000876402C240.557 0.000876402 236.815 0.541461 233.273 1.50882C232.476 1.72221 231.708 1.94983 230.968 2.19167C227.91 3.17325 224.979 4.42513 222.162 5.8335C221.209 6.6017 220.014 7.15651 218.649 7.72554C212.318 11.3105 206.571 15.5213 200.909 19.718C195.247 23.9431 189.713 28.3531 184.322 32.9196C173.538 42.0527 163.338 51.8401 153.807 62.1681C150.08 66.194 146.466 71.2727 143.18 76.7639C141.544 79.4668 139.979 82.1697 138.272 84.7588C137.419 86.0534 136.537 87.3053 135.584 88.5287L134.858 89.4249C134.588 89.7379 134.645 89.7664 134.346 90.0509C133.905 90.4919 133.279 91.004 132.653 91.4877C129.836 93.65 127.617 95.6417 126.379 97.4341C128.855 95.8835 131.401 94.6459 133.834 93.3086C134.431 92.9814 135.029 92.64 135.598 92.2843C136.167 91.9287 136.594 91.573 137.134 91.0894C138.158 90.1789 139.14 89.2258 140.079 88.23C143.877 84.2752 147.149 79.8082 150.635 75.5831C157.605 67.1045 164.989 59.1807 172.799 51.7263C179.912 44.0158 187.494 36.7037 195.475 29.8611C199.458 26.4326 203.541 23.1038 207.723 19.9171C211.891 16.7021 216.159 13.6151 220.697 10.9548V10.9264Z" fill="var(--fill-0, #E3D7C5)"/>
<path id="Vector_53" d="M221.962 84.7706L221.805 85.297C223.1 84.4292 224.323 83.3338 225.305 82.2384C226.301 81.143 227.14 80.0761 227.965 79.1229C226.358 80.8585 224.523 83.1631 221.962 84.7849V84.7706Z" fill="var(--fill-0, #E3D7C5)"/>
<path id="Vector_54" d="M271.014 41.0428C272.863 34.4277 272.152 27.0729 268.681 21.3399C270.132 23.9148 270.985 26.9307 271.085 29.7047C271.981 34.8545 271.227 40.431 268.951 45.211C269.378 44.5708 269.691 43.8595 270.075 43.1909C270.388 42.4796 270.729 41.7825 270.999 41.0428H271.014Z" fill="var(--fill-0, #E3D7C5)"/>
<path id="Vector_55" d="M183.539 91.1169C178.958 91.8993 174.363 92.8524 169.797 93.9905C165.187 95.0717 160.678 96.7503 156.296 98.4432L153.479 99.7378C165.699 95.6549 178.987 92.9093 194.279 90.9746C188.603 91.7713 182.998 92.7813 177.479 94.019C174.719 94.6449 171.973 95.3135 169.256 96.0533C166.567 96.7646 163.921 97.675 161.289 98.6566C156.04 100.62 150.862 102.839 145.541 104.475C142.881 105.286 140.192 105.955 137.49 106.31C134.815 106.637 131.998 106.794 129.537 106.339C127.659 106.168 126.123 105.428 125.042 103.963C123.932 102.526 123.164 100.606 122.41 98.7277C120.973 94.901 119.394 90.9604 117.417 87.3186C113.505 79.9353 108.27 73.5052 103.006 67.26C92.4503 54.727 81.9516 42.2367 71.5667 29.6325C80.1449 40.8994 88.652 52.081 97.1591 63.2626C101.398 68.8676 105.808 74.3588 109.536 80.1345C111.413 83.0223 113.092 85.9956 114.557 89.0683C116.037 92.1696 117.203 95.2851 118.313 98.6424C119.181 100.435 120.177 101.658 120.931 102C121.414 103.579 122.026 105.272 123.335 106.865C123.961 107.662 124.843 108.344 125.767 108.871C126.237 109.113 126.721 109.312 127.204 109.511C127.688 109.653 128.172 109.795 128.655 109.909C130.576 110.308 132.368 110.279 134.118 110.222C135.839 110.123 137.618 109.938 139.325 109.568C146.238 108.188 152.441 105.158 158.473 102.37C161.489 100.961 164.49 99.5671 167.506 98.429C170.508 97.3336 173.78 96.3236 176.952 95.4273C183.368 93.6349 189.926 92.2834 196.513 91.5579C197.523 91.7428 195.119 92.0985 194.208 92.3972C197.324 91.8282 200.411 91.3587 203.54 90.9604C206.044 90.4056 208.747 89.865 211.663 89.0968C214.566 88.3001 217.752 87.347 220.981 85.3696C217.965 87.0483 214.722 87.7738 211.592 88.1863C208.889 88.5989 206.272 88.7554 203.754 88.9688C201.236 89.1679 198.789 89.3955 196.427 89.6516C191.69 90.1353 187.309 90.7043 183.525 91.1311L183.539 91.1169Z" fill="var(--fill-0, #E3D7C5)"/>
<path id="Vector_56" d="M194.293 90.9607C179 92.8954 165.699 95.641 153.493 99.7239C149.581 101.516 145.683 103.252 141.686 104.518C139.68 105.13 137.674 105.67 135.625 105.983C133.577 106.296 131.486 106.51 129.565 106.31C132.026 106.766 134.843 106.609 137.517 106.282C140.22 105.926 142.909 105.272 145.569 104.447C150.89 102.811 156.068 100.592 161.317 98.6285C163.949 97.6469 166.581 96.7364 169.284 96.0251C172.001 95.2996 174.747 94.6168 177.507 93.9908C183.026 92.7532 188.631 91.7289 194.307 90.9465L194.293 90.9607Z" fill="var(--fill-0, #E3D7C5)"/>
<path id="Vector_57" d="M211.606 88.1732C214.736 87.7606 217.979 87.0351 220.995 85.3564C221.337 85.1431 221.635 84.9154 221.962 84.7021V84.7732C224.523 83.1657 226.344 80.8468 227.952 79.1113C232.603 73.5489 239.617 70.9314 247.029 68.5841C244.567 69.2527 241.836 70.0636 239.019 71.1732C236.203 72.2686 233.357 73.7339 230.811 75.7682C229.559 76.8209 228.378 77.8878 227.212 79.282C226.017 80.6477 224.751 82.2268 223.058 83.6209C221.365 84.9866 219.445 86.0251 217.481 86.7364C215.518 87.4477 213.527 87.8744 211.592 88.1874L211.606 88.1732Z" fill="var(--fill-0, #E3D7C5)"/>
<path id="Vector_58" d="M254.711 10.0578C253.146 9.31801 251.524 8.66362 249.831 8.23684C248.167 7.88119 246.474 7.78161 244.795 7.73893C243.074 7.78161 241.367 7.86697 239.645 8.19416H239.816C244.994 7.46864 250.03 8.08035 254.725 10.0578H254.711Z" fill="var(--fill-0, #E3D7C5)"/>
<path id="Vector_59" opacity="0.9" d="M172.784 51.6974C164.931 60.1618 157.648 69.1384 150.961 78.5133C147.618 83.2078 144.361 88.13 140.15 92.5115C139.609 93.0806 139.125 93.5643 138.485 94.1475C137.731 94.8161 137.091 95.2002 136.437 95.6412C135.142 96.4806 133.876 97.2203 132.638 97.9601C131.401 98.6998 130.177 99.4396 129.054 100.194C128.499 100.578 127.958 100.962 127.474 101.332C127.005 101.701 126.607 102.114 126.507 102.285C126.934 102.47 127.176 102.726 127.674 102.726C128.115 102.754 128.741 102.626 129.509 102.342C131.045 102.285 132.923 101.687 135.242 100.592C136.408 100.023 137.646 99.3827 139.154 98.3869C139.325 98.273 139.552 98.1166 139.766 97.9601C139.993 97.7894 140.164 97.6755 140.434 97.4479L141.231 96.7651L141.686 96.3099C142.298 95.6982 142.895 95.0438 143.479 94.3751C143.422 94.304 143.038 94.6454 142.511 95.1291C142.241 95.371 141.942 95.6412 141.643 95.9115L141.188 96.3241L140.946 96.5375C140.818 96.6371 140.705 96.7366 140.577 96.8362C140.064 97.263 139.737 97.4622 139.453 97.6329C139.168 97.8178 138.997 97.9032 138.941 97.9032C138.841 97.8747 139.026 97.7609 140.392 96.509C141.33 95.3141 142.867 93.3509 144.645 91.089C146.338 88.9266 148.145 86.5082 149.909 84.417C150.563 83.6488 151.118 82.9802 151.644 82.3542C151.829 82.0413 152.028 81.7141 152.213 81.4011C152.171 80.9174 152.27 80.4053 153.209 79.7509C154.219 78.1292 158.046 73.3635 162.086 68.8681C166.112 64.3442 170.309 60.048 171.489 58.7677C171.489 58.7677 170.735 59.4505 169.612 60.5317C168.488 61.6129 166.966 63.0497 165.5 64.5292C164.021 65.9945 162.541 67.4882 161.46 68.612C160.365 69.7359 159.682 70.4472 159.668 70.4614C160.194 69.7074 160.735 68.925 161.304 68.0857C161.304 68.2137 161.318 68.3275 161.304 68.4698C161.972 67.6731 162.627 66.8765 163.31 66.0798C163.708 64.9417 163.523 64.2447 164.874 62.4949C164.049 63.3579 163.229 64.2162 162.413 65.0698C163.58 62.6229 167.307 58.7677 169.882 56.2924C169.882 57.4162 167.378 59.9484 166.126 61.2145L167.378 59.9484C166.112 61.2003 163.679 64.3442 164.945 63.6329C165.87 63.1066 167.492 60.93 168.758 59.3367C169.014 58.9953 169.313 58.6254 169.64 58.284C169.37 58.5685 169.071 58.9384 168.758 59.3367C168.331 59.92 168.075 60.3894 168.203 60.5175C169.37 59.2087 170.579 57.9141 171.774 56.6338C171.902 56.392 172.073 56.1217 172.243 55.8514C171.93 56.1359 171.575 56.4489 171.176 56.7761L172.457 55.5384L172.243 55.8514C175.046 53.3049 175.273 51.6263 177.663 48.966C176.426 50.6162 178.659 49.1225 177.834 50.3886C178.119 50.1041 178.403 49.8338 178.702 49.5351C179.826 48.1125 181.163 46.7183 182.6 45.3242C184.179 43.3326 185.701 41.4121 187.124 39.6196C187.835 39.9326 186.853 41.1702 185.602 42.6071C187.081 41.3125 188.632 40.0464 190.239 38.7661C190.908 37.4288 190.481 37.3008 194.08 34.0288C194.037 34.5125 194.222 34.9108 194.052 35.4941C196.797 33.1468 199.6 30.8707 202.445 28.6372C202.957 28.1393 203.469 27.6414 203.967 27.1577C203.981 27.1008 204.109 26.5602 205.489 25.5786C205.006 26.105 204.494 26.6456 203.967 27.1577C205.248 26.2615 206.585 25.3226 207.965 24.3979C212.858 20.7418 217.738 17.2707 222.817 14.3971C222.717 14.3971 222.589 14.3971 222.432 14.4255C222.247 14.4967 222.048 14.582 221.849 14.6531C222.091 14.5393 222.29 14.454 222.432 14.4255C224.794 13.4013 225.42 11.9787 228.123 11.2674C227.611 11.4665 227.098 11.7084 226.586 11.9218C230.641 10.4707 233.77 8.83475 237.014 7.82471C230.456 8.97701 224.04 12.064 218.065 15.8197C213.954 18.3519 209.985 21.2113 206.03 24.0422C202.089 26.8874 198.248 29.818 194.464 32.8054C186.939 38.8087 179.684 45.0539 172.77 51.6832L172.784 51.6974Z" fill="var(--fill-0, #E3D7C5)"/>
<path id="Vector_60" d="M239.959 7.44054C239.39 7.6397 238.921 7.72505 237.825 8.16606C238.437 8.13761 239.034 8.16606 239.632 8.20874C241.339 7.88154 243.06 7.79618 244.782 7.75351C246.46 7.79618 248.153 7.89577 249.818 8.25141C248.239 7.78196 246.617 7.56857 244.995 7.39786C243.331 7.3125 241.652 7.28405 239.959 7.45476V7.44054Z" fill="var(--fill-0, #E3D7C5)"/>
<path id="Vector_61" d="M268.069 20.3028C268.069 20.3028 268.126 20.3739 268.14 20.4024C268.112 20.3455 268.097 20.3028 268.055 20.2459C268.026 20.2032 267.998 20.1606 267.969 20.1179C267.642 19.7053 267.358 19.307 267.13 18.9087C267.4 19.307 267.685 19.7196 267.969 20.1179C267.984 20.1463 268.012 20.1748 268.026 20.2032C266.39 16.8032 263.645 13.5171 260.117 10.9706C256.589 8.42418 252.321 6.54636 247.797 5.82084C243.302 5.05264 238.508 5.39406 233.927 6.43255C229.332 7.47105 224.893 9.13548 220.682 10.9279C216.144 13.5882 211.877 16.6752 207.708 19.8903C203.526 23.0769 199.443 26.4057 195.46 29.8342C187.479 36.6911 179.911 43.9889 172.784 51.6994C179.698 45.0559 186.953 38.8107 194.478 32.8216C198.262 29.8484 202.103 26.9179 206.044 24.0585C209.999 21.2275 213.968 18.3681 218.079 15.8359C224.054 12.0802 230.47 8.99322 237.028 7.84092C237.782 7.59908 238.55 7.37146 239.318 7.25766C240.087 7.10117 240.855 7.00159 241.637 6.98736C240.826 7.1723 240.371 7.30033 239.959 7.44259C241.651 7.27188 243.33 7.30033 244.995 7.38569C246.631 7.5564 248.252 7.78402 249.817 8.23924C257.087 9.63338 264.015 14.0719 268.055 20.3028H268.069Z" fill="var(--fill-0, #E3D7C5)"/>
<path id="Vector_62" d="M126.379 97.391C125.412 98.7709 125.014 100.023 125.199 100.848C125.426 101.602 125.881 102.157 126.507 102.299C126.607 102.128 127.02 101.716 127.475 101.346C127.944 100.962 128.485 100.578 129.054 100.208C130.178 99.4537 131.401 98.714 132.639 97.9742C133.876 97.2345 135.143 96.4947 136.437 95.6554C137.106 95.2144 137.732 94.8161 138.486 94.1617C139.126 93.5784 139.609 93.0805 140.15 92.5257C144.361 88.1441 147.619 83.222 150.962 78.5274C157.648 69.1526 164.932 60.176 172.784 51.7116C164.974 59.166 157.591 67.0898 150.62 75.5684C147.121 79.7935 143.863 84.2462 140.065 88.2153C139.126 89.2111 138.13 90.1642 137.12 91.0747C136.579 91.5584 136.153 91.914 135.584 92.2697C135.029 92.6253 134.431 92.9667 133.82 93.2939C131.387 94.6312 128.855 95.8688 126.365 97.4194L126.379 97.391Z" fill="var(--fill-0, #E3D7C5)"/>
<path id="Vector_63" d="M152.156 100.123C152.996 99.7671 153.835 99.4256 154.66 99.07C149.382 101.104 144.105 103.11 138.812 104.092C137.489 104.334 136.181 104.504 134.872 104.604C133.549 104.675 132.212 104.746 131.031 104.632C129.85 104.547 128.783 104.319 128.143 103.935C127.503 103.565 127.076 103.067 126.578 102.171C126.521 102.114 126.479 102.086 126.408 102.001C125.81 101.062 125.469 99.9662 125.298 99.0842C124.146 95.6558 122.951 91.5303 121.272 87.8173C120.888 87.1771 120.532 86.5227 120.134 85.9253C119.323 84.5027 118.469 82.9947 117.587 81.4299C116.421 79.5805 115.155 77.6458 113.775 75.6399C117.033 81.0031 119.792 86.7788 121.713 92.7395C122.695 95.7411 123.392 98.6859 124.373 101.346C124.871 102.669 125.44 103.85 126.265 104.675C127.076 105.514 128.214 106.041 129.566 106.297C131.486 106.496 133.577 106.283 135.626 105.97C137.66 105.671 139.68 105.116 141.686 104.504C145.684 103.238 149.582 101.503 153.494 99.7102C153.038 99.8382 152.597 99.9662 152.156 100.094V100.123Z" fill="var(--fill-0, #E3D7C5)"/>
<path id="Vector_64" d="M157.52 97.8766L154.661 99.0716C155.215 98.8582 155.742 98.659 156.296 98.4456C156.709 98.2607 157.122 98.0615 157.534 97.8908L157.52 97.8766Z" fill="var(--fill-0, #E3D7C5)"/>
<path id="Vector_65" d="M231.893 74.1184C231.224 74.6305 230.513 75.1 229.873 75.6263C229.247 76.1811 228.635 76.7217 228.024 77.2623C226.857 78.4146 225.733 79.7376 224.481 80.9895C223.229 82.2414 221.75 83.3937 220.185 84.1761C218.62 84.9727 216.984 85.4991 215.348 85.8405C212.076 86.5376 208.861 86.5803 205.632 86.6229C202.403 86.6514 199.145 86.751 195.845 86.9644C188.504 88.1309 181.22 89.7384 174.051 91.787C175.558 91.8154 177.394 91.7158 179.499 91.5167C188.831 89.7242 198.064 88.7853 207.425 88.2447C209.786 88.0598 212.204 87.8179 214.623 87.2347C217.041 86.6798 219.502 85.7552 221.707 84.233C223.969 82.7108 225.591 80.6054 227.07 78.8129C227.81 77.8882 228.55 77.0916 229.361 76.3234C230.115 75.4983 231.04 74.8297 231.907 74.0899L231.893 74.1184Z" fill="var(--fill-0, #E3D7C5)"/>
<path id="Vector_66" d="M179.826 89.0548C184.748 87.746 189.855 86.7075 195.076 85.8966C197.679 85.4983 200.311 85.1569 202.957 84.8866C205.617 84.6021 208.207 84.4171 210.696 84.033C213.171 83.6489 215.59 83.0799 217.695 82.0556C218.748 81.5435 219.715 80.9176 220.612 80.1778C221.494 79.4238 222.333 78.5134 223.201 77.5176C224.879 75.5259 226.956 73.3209 229.247 71.7418C231.509 70.0774 233.97 68.7544 236.459 67.6875C241.438 65.4824 246.545 64.1025 251.396 62.3954C256.233 60.7025 260.928 58.7251 264.726 55.6808C268.567 52.736 271.227 48.6247 272.749 44.3427C273.475 42.1804 273.944 39.9896 274.144 37.8131C274.3 35.6365 274.215 33.4884 273.888 31.4398C273.603 36.5896 271.939 41.9812 268.88 46.3486C267.002 49.8055 264.427 52.6222 261.042 54.7988C257.699 57.018 253.786 58.6825 249.618 60.1762C245.464 61.6984 241.097 63.1209 236.715 65.0557C232.362 67.0188 227.952 69.6506 224.396 73.4347C222.276 75.7393 220.853 77.9443 219.289 79.2389C217.738 80.5904 215.718 81.515 213.427 82.1694C211.137 82.8238 208.605 83.1653 205.959 83.4782C203.299 83.777 200.496 84.1042 197.779 84.5025C188.361 85.8966 179.058 87.9878 169.953 90.7192C170.593 91.4163 171.987 91.7435 174.036 91.7862C181.206 89.7376 188.489 88.1159 195.83 86.9636C190.652 87.305 185.36 87.9309 179.812 89.0405L179.826 89.0548Z" fill="var(--fill-0, #E3D7C5)"/>
<path id="Vector_67" d="M266.633 49.0805C264.613 51.9399 261.81 54.1165 258.524 55.9943C255.238 57.8437 251.525 59.2947 247.655 60.7173C243.772 62.1399 239.703 63.5483 235.677 65.483C231.665 67.4035 227.64 69.9357 224.382 73.4495C227.938 69.6654 232.348 67.0336 236.701 65.0705C241.083 63.1357 245.45 61.7131 249.604 60.191C253.758 58.683 257.685 57.0186 261.028 54.8136C264.399 52.637 266.988 49.8203 268.866 46.3634C268.183 47.3165 267.458 48.2554 266.647 49.0948L266.633 49.0805Z" fill="var(--fill-0, #E3D7C5)"/>
<path id="Vector_68" d="M271.1 29.6884C271.1 29.6884 271.1 29.7168 271.1 29.731C272.024 35.6917 270.801 42.2214 267.458 47.3569C267.998 46.7025 268.496 45.9486 268.966 45.1946C271.242 40.4147 271.996 34.8381 271.1 29.6884Z" fill="var(--fill-0, #E3D7C5)"/>
<path id="Vector_69" d="M211.607 88.1739C209.203 88.4726 206.841 88.6007 204.522 88.7287C202.203 88.871 199.885 89.0417 197.552 89.255C192.9 89.6961 188.219 90.3078 183.539 91.1044C187.337 90.6776 191.705 90.1086 196.442 89.6249C198.804 89.3831 201.265 89.1412 203.768 88.9421C206.272 88.7429 208.904 88.5722 211.607 88.1597V88.1739Z" fill="var(--fill-0, #E3D7C5)"/>
<path id="Vector_70" d="M271.014 41.0411C270.73 41.7808 270.388 42.4779 270.09 43.1892C269.705 43.8578 269.392 44.5691 268.966 45.2093C268.61 45.8779 268.311 46.5892 267.885 47.2151L267.301 48.1825L266.647 49.093C267.458 48.2536 268.183 47.329 268.866 46.3616C269.805 44.6972 270.459 42.8762 271.028 41.0411H271.014Z" fill="var(--fill-0, #E3D7C5)"/>
<path id="Vector_71" d="M114.301 75.8234C113.505 74.5004 112.665 73.1489 111.783 71.7832C111.513 71.5841 111.286 71.4845 111.058 71.3849C111.698 72.3522 112.31 73.3196 112.936 74.3154C113.491 74.984 113.932 75.4535 114.301 75.8234Z" fill="var(--fill-0, #E3D7C5)"/>
<path id="Vector_72" d="M153.479 99.7237L156.296 98.4292C155.741 98.6426 155.215 98.8417 154.66 99.0551C153.82 99.4108 152.981 99.7522 152.156 100.108C152.597 99.9798 153.038 99.8518 153.493 99.7237H153.479Z" fill="var(--fill-0, #E3D7C5)"/>
<path id="Vector_73" d="M183.539 91.1163C182.102 91.287 180.737 91.4293 179.485 91.5431C175.815 92.2401 172.144 93.0795 168.46 94.0468C164.733 95.0284 161.105 96.4083 157.52 97.8736C157.122 98.0585 156.709 98.2435 156.282 98.4284C160.678 96.7355 165.188 95.0569 169.783 93.9757C174.349 92.8376 178.944 91.8845 183.525 91.1021L183.539 91.1163Z" fill="var(--fill-0, #E3D7C5)"/>
<path id="Vector_74" d="M179.485 91.5429C177.365 91.7421 175.53 91.8417 174.036 91.8132C172.087 92.368 170.167 92.9655 168.246 93.5772C166.312 94.2174 164.377 94.9145 162.499 95.7111C160.806 96.4082 159.17 97.1479 157.534 97.8877C161.119 96.4224 164.747 95.0425 168.474 94.0609C172.158 93.0936 175.829 92.2542 179.499 91.5572L179.485 91.5429Z" fill="var(--fill-0, #E3D7C5)"/>
<path id="Vector_75" d="M273.873 31.4406C274.201 33.4891 274.286 35.623 274.129 37.8138C273.93 39.9904 273.461 42.1954 272.735 44.3435C271.213 48.6113 268.553 52.7368 264.712 55.6815C260.928 58.7259 256.233 60.7033 251.382 62.3962C246.531 64.1033 241.424 65.4832 236.445 67.6882C233.956 68.7552 231.494 70.0782 229.232 71.7426C226.942 73.3217 224.879 75.5267 223.186 77.5183C222.319 78.5141 221.479 79.4246 220.597 80.1786C219.701 80.9041 218.734 81.5442 217.681 82.0564C215.576 83.0806 213.171 83.6497 210.682 84.0338C208.192 84.4179 205.603 84.6028 202.943 84.8873C200.297 85.1576 197.665 85.4848 195.062 85.8974C189.855 86.7083 184.748 87.7467 179.812 89.0555C185.346 87.9459 190.652 87.32 195.83 86.9785C199.244 86.438 202.701 85.997 206.101 85.6271C209.487 85.243 212.802 84.802 215.846 83.7066C217.354 83.166 218.791 82.4547 220.043 81.53C221.294 80.6196 222.376 79.453 223.443 78.1585C225.505 75.4982 228.166 72.838 231.096 70.9175C237.028 66.9769 243.757 65.0991 250.102 62.8656C256.432 60.6606 262.777 58.1142 267.415 53.4196C272.01 48.7393 274.727 42.3376 275.31 35.7937C275.893 29.2214 274.172 22.4925 270.36 17.1009C266.604 11.6666 260.999 7.58375 254.796 5.35028C251.681 4.24066 248.409 3.60049 245.109 3.50091C241.808 3.41556 238.494 3.82811 235.279 4.65321C240.741 3.47246 246.417 3.44401 251.638 5.00886C256.845 6.55948 261.568 9.47579 265.21 13.2457C268.88 17.0155 271.427 21.7101 272.323 26.5896C273.247 31.469 272.75 36.5619 271.014 41.0289C270.459 42.864 269.805 44.6849 268.852 46.3493C271.91 41.982 273.575 36.5761 273.859 31.4406H273.873Z" fill="var(--fill-0, #E3D7C5)"/>
</g>
</svg>
