<svg preserveAspectRatio="none" width="100%" height="100%" overflow="visible" style="display: block;" viewBox="0 0 477 441" fill="none" xmlns="http://www.w3.org/2000/svg">
<g id="Vector" filter="url(#filter0_n_1045_2683)">
<path d="M173.585 431.945C246.578 434.676 320.623 427.805 393.417 434.363C417.217 436.497 448.102 442.315 475.814 439.342C475.956 439.214 476.084 439.086 476.226 438.958C474.434 433.182 475.387 426.596 474.292 420.664C472.713 412.1 467.236 406.608 463.58 398.77C460.379 391.913 457.164 384.999 455.314 377.673C453.408 370.176 452.981 362.394 451.544 354.798C450.406 348.809 448.756 342.876 446.807 336.987C436.252 305.178 416.748 274.407 420.674 240.336C421.798 230.634 424.786 221.245 426.649 211.657C434.032 173.915 423.064 133.187 397.628 103.767C383.402 87.3222 375.023 67.0076 360.527 50.1072C360.371 49.9223 360.214 49.7516 360.058 49.5666C354.481 43.1365 347.724 36.7064 339.131 35.9809C336.343 35.7533 333.469 36.1374 330.752 35.4545C328.035 34.7717 325.418 32.4529 325.773 29.7499C326.285 25.8805 331.89 24.7709 333.64 21.2713C335.575 17.4018 331.535 12.8353 327.182 12.1098C322.829 11.3843 318.49 13.0772 314.208 14.1441C309.926 15.2111 304.847 15.4813 301.618 12.5366C302.542 9.27885 302.827 5.85041 302.471 2.47887C296.439 3.16171 291.076 6.37676 285.372 8.41107C279.667 10.4454 272.654 11.0713 268.087 7.18764C265.669 5.13911 264.189 1.99519 261.287 0.643725C257.46 -1.13451 252.837 1.02783 249.892 4.00104C246.948 6.97426 244.885 10.7441 241.641 13.4044C231.342 21.8546 215.11 15.4956 202.492 20.1048C195.862 22.5232 190.841 27.7441 185.477 32.2395C179.204 37.4888 172.162 41.8846 164.651 45.2846C164.48 45.2846 164.323 45.2846 164.153 45.2846C164.153 45.37 164.153 45.4411 164.153 45.5265C158.249 48.1583 152.061 50.1926 145.716 51.544C129.868 54.944 119.057 61.3314 104.945 69.6678C92.9663 76.7381 80.9881 84.0502 71.0726 93.6812C56.8183 107.509 47.5857 125.334 38.5807 142.832C31.9798 155.663 25.1799 169.69 27.9397 183.788C29.2485 190.503 32.6485 196.634 34.825 203.135C40.7857 220.975 39.2493 245.102 38.2819 263.681C37.8836 271.32 35.1949 278.661 33.63 286.158C30.6426 300.611 31.8945 315.52 31.4393 330.244C30.5003 360.943 21.0543 388.186 8.27948 415.855C5.94643 420.906 3.14393 425.657 0 430.181C55.4384 430.039 117.719 429.868 173.556 431.959L173.585 431.945Z" fill="#C84A23"/>
</g>
<defs>
<filter id="filter0_n_1045_2683" x="0" y="1.17266e-08" width="476.227" height="440.171" filterUnits="userSpaceOnUse" color-interpolation-filters="sRGB">
<feFlood flood-opacity="0" result="BackgroundImageFix"/>
<feBlend mode="normal" in="SourceGraphic" in2="BackgroundImageFix" result="shape"/>
<feTurbulence type="fractalNoise" baseFrequency="0.125 0.125" stitchTiles="stitch" numOctaves="3" result="noise" seed="8283" />
<feColorMatrix in="noise" type="luminanceToAlpha" result="alphaNoise" />
<feComponentTransfer in="alphaNoise" result="coloredNoise1">
<feFuncA type="discrete" tableValues="0 0 0 0 0 0 0 0 0 1 1 1 1 1 1 1 1 1 1 1 1 1 1 1 1 1 1 1 1 1 1 1 1 1 1 1 1 1 1 1 0 0 0 0 0 0 0 0 0 0 0 0 0 0 0 0 0 0 0 0 0 0 0 0 0 0 0 0 0 0 0 0 0 0 0 0 0 0 0 0 0 0 0 0 0 0 0 0 0 0 0 0 0 0 0 0 0 0 0 0 "/>
</feComponentTransfer>
<feComposite operator="in" in2="shape" in="coloredNoise1" result="noise1Clipped" />
<feFlood flood-color="rgba(0, 0, 0, 0.08)" result="color1Flood" />
<feComposite operator="in" in2="noise1Clipped" in="color1Flood" result="color1" />
<feMerge result="effect1_noise_1045_2683">
<feMergeNode in="shape" />
<feMergeNode in="color1" />
</feMerge>
</filter>
</defs>
</svg>
