<svg preserveAspectRatio="none" width="100%" height="100%" overflow="visible" style="display: block;" viewBox="0 0 9 8" fill="none" xmlns="http://www.w3.org/2000/svg">
<g id="Group" opacity="0.9">
<path id="Vector" d="M3.9684 3.55491C3.93995 3.29884 3.89729 3.01433 3.85461 2.67291C3.81193 2.67291 3.7835 2.67291 3.74082 2.67291C3.7266 2.67291 3.69813 2.68716 3.68391 2.70139C3.82617 2.8721 3.92572 3.19929 3.9684 3.54071V3.55491Z" fill="var(--fill-0, white)"/>
<path id="Vector_2" d="M3.58417 6.68843C3.74065 5.80642 3.82601 5.30853 3.89714 4.92443C3.92559 4.69682 3.95404 4.55452 3.98249 4.31268C3.95404 4.51185 3.9256 4.68258 3.91138 4.82484C3.76912 5.63572 3.65529 6.27588 3.58417 6.68843Z" fill="var(--fill-0, white)"/>
<path id="Vector_3" d="M4.2674 3.28345C4.2674 3.28345 4.2674 3.2408 4.2674 3.22658C4.28163 3.09854 4.31005 2.98472 4.32428 2.85669C4.45231 2.08849 4.59461 1.32031 4.72264 0.566339C4.60884 1.24918 4.4808 1.93202 4.367 2.60063C4.33854 2.7998 4.29586 3.04161 4.2674 3.28345Z" fill="var(--fill-0, white)"/>
<path id="Vector_4" d="M3.86942 1.80398C4.16817 1.63326 4.2962 2.34455 4.26775 2.77133C4.26775 2.98472 4.26775 3.1412 4.26775 3.0843C4.26775 3.05585 4.29617 2.9847 4.32462 2.84244C4.3673 2.54369 4.32463 2.84243 4.29618 2.97047C4.43844 2.18804 4.55226 1.51944 4.66607 0.893496C4.66607 1.02153 4.60917 1.10689 4.45269 1.12112C4.38156 1.17802 4.2535 1.16378 4.11124 1.10688C4.02588 1.10688 3.86942 1.07844 3.59913 1.03576C3.69871 1.67593 3.76981 2.20227 3.84094 2.65749C3.9263 2.65749 3.96898 2.67176 4.02589 2.70021C3.99743 2.33034 3.95476 2.00312 3.85518 1.78974L3.86942 1.80398Z" fill="var(--fill-0, white)"/>
<path id="Vector_5" d="M4.72299 0.638154C4.69454 0.865769 4.60915 1.05071 4.46689 1.13607C4.62338 1.10762 4.66604 1.03648 4.68027 0.90845C4.6945 0.823095 4.70876 0.73775 4.72299 0.652394V0.638154Z" fill="var(--fill-0, white)"/>
<path id="Vector_6" d="M3.91238 4.84947C3.92661 4.73566 3.95506 4.49384 3.99773 4.19509C4.04041 3.73986 4.06886 3.18504 4.04041 2.71559C3.98351 2.68713 3.94082 2.67291 3.85547 2.67291C3.89814 3.01433 3.92658 3.29884 3.96925 3.55491C3.99771 3.73985 4.01196 4.09551 3.99773 4.15242C3.99773 4.19509 3.99773 4.23775 3.99773 4.2662C3.99773 4.33733 3.98349 4.39423 3.98349 4.43691C3.94082 4.7072 3.96926 4.57919 3.92658 4.86371L3.91238 4.84947Z" fill="var(--fill-0, white)"/>
<path id="Vector_7" d="M3.9971 4.30699V4.17896V4.13628V3.96558C3.9971 4.26432 3.9971 4.0936 3.9971 4.30699Z" fill="var(--fill-0, white)"/>
<path id="Vector_8" d="M4.12577 1.12091C4.26803 1.17781 4.38182 1.19205 4.46718 1.13515C4.39605 1.14938 4.26803 1.13514 4.12577 1.12091Z" fill="var(--fill-0, white)"/>
<path id="Vector_9" d="M4.25372 3.52797V3.4853C4.25372 3.38572 4.25372 3.44261 4.25372 3.34303V3.30036V3.24344C4.25372 3.27189 4.25372 3.28613 4.25372 3.30036C4.25372 3.37148 4.2537 3.45686 4.23948 3.54221L4.25372 3.52797Z" fill="var(--fill-0, white)"/>
<path id="Vector_10" d="M4.31008 3.85468C4.31008 3.85468 4.28163 3.72662 4.2674 3.65549C4.2674 3.62704 4.2674 3.62704 4.2674 3.61282C4.2674 3.58436 4.29583 3.82622 4.32428 3.85468H4.31008Z" fill="var(--fill-0, white)"/>
<path id="Vector_11" d="M3.58417 0.821681C3.58417 0.907037 3.6126 0.978172 3.6126 1.0493C3.86867 1.09198 4.0394 1.10619 4.12476 1.12041C3.99672 1.06351 3.84023 0.96394 3.58417 0.821681Z" fill="var(--fill-0, white)"/>
<path id="Vector_12" d="M4.25363 3.65267V3.68111L4.97917 3.62424C4.97917 3.62424 5.05031 3.62422 5.07876 3.61L5.37749 3.49621L4.25363 3.68111C4.25363 3.66688 4.25363 3.62421 4.25363 3.55308C4.25363 3.46773 4.25365 3.38239 4.26787 3.31126C4.23942 3.58156 4.25365 3.60998 4.26787 3.68111L4.25363 3.65267Z" fill="var(--fill-0, white)"/>
<path id="Vector_13" d="M4.36811 2.60289L4.39655 2.48906L4.68104 0.881527C4.56723 1.52169 4.45345 2.19031 4.31119 2.97274C4.32542 2.83048 4.38231 2.54597 4.33963 2.84471C4.31118 2.98697 4.29694 3.05812 4.28272 3.08657C4.26849 3.14347 4.26849 2.98699 4.28272 2.7736C4.31117 2.34682 4.19736 1.62131 3.88439 1.80625C3.98397 2.01963 4.02669 2.34681 4.05514 2.71668C4.24008 2.81626 4.26852 3.01544 4.26852 3.17192C4.26852 3.32841 4.24007 3.45642 4.26852 3.59868C4.26852 3.556 4.26852 3.49911 4.26852 3.3853C4.26852 3.31417 4.28273 3.24305 4.29696 3.17192C4.32541 2.98698 4.35386 2.80206 4.38231 2.60289H4.36811Z" fill="var(--fill-0, white)"/>
<path id="Vector_14" d="M4.26702 3.28391C4.3097 3.04207 4.33816 2.80026 4.36661 2.6011C4.33816 2.80026 4.30967 2.98519 4.28122 3.17012C4.28122 3.24125 4.26701 3.3266 4.25278 3.3835C4.25278 3.49731 4.25278 3.56843 4.25278 3.59688C4.25278 3.61111 4.25278 3.62533 4.25278 3.63956C4.25278 3.58266 4.23856 3.54001 4.25278 3.26971L4.26702 3.28391Z" fill="var(--fill-0, white)"/>
<path id="Vector_15" d="M4.36643 2.60063C4.48023 1.93202 4.60827 1.24918 4.72207 0.566339V0.637452C4.69362 0.722807 4.67938 0.808152 4.66516 0.893508V0.879268L4.38062 2.47261L4.35219 2.60063H4.36643Z" fill="var(--fill-0, white)"/>
<path id="Vector_16" d="M3.62753 2.64538C3.62753 2.64538 3.67022 2.68807 3.68444 2.7023C3.69867 2.7023 3.72713 2.68804 3.74136 2.67382C3.78404 2.67382 3.8267 2.67382 3.85515 2.67382C3.78402 2.21859 3.71287 1.67803 3.61329 1.05209C3.17229 0.980956 2.41835 1.0094 1.65015 1.22279C1.65015 1.29392 1.65012 1.36505 1.66435 1.45041V1.50728C2.5179 3.34242 3.35723 5.19183 4.19656 7.05542V7.01274V6.89891L4.18236 6.85624V6.8278L1.84929 1.67803H1.86353H1.99156C2.07691 1.67803 2.16227 1.67801 2.26185 1.70647C2.44679 1.73492 2.61749 1.79181 2.78821 1.87717C3.12963 2.04788 3.42837 2.31816 3.62753 2.65958V2.64538Z" fill="var(--fill-0, white)"/>
<path id="Vector_17" d="M4.73743 0.566545L4.76591 0.338926H4.7801L4.72323 0.637658L4.73743 0.566545Z" fill="var(--fill-0, white)"/>
<path id="Vector_18" d="M4.2674 3.29739V3.22748V3.29739Z" fill="var(--fill-0, white)"/>
<path id="Vector_19" d="M4.2674 3.22905C4.29586 3.05834 4.31006 2.90186 4.33852 2.78805C4.35274 2.68847 4.36697 2.60308 4.38119 2.53195C4.52345 1.74953 4.65151 1.02403 4.76532 0.326956L4.72264 0.568816C4.59461 1.32279 4.45231 2.09097 4.32428 2.85917C4.31005 2.9872 4.28163 3.11525 4.2674 3.22905Z" fill="var(--fill-0, white)"/>
<path id="Vector_20" d="M3.58434 0.824927C3.84041 0.967186 3.9969 1.08098 4.12494 1.12366C4.2672 1.15211 4.39521 1.15212 4.46634 1.1379C4.6086 1.06677 4.69399 0.881823 4.72244 0.639983L4.77932 0.341251C4.77932 0.341251 4.76509 0.255866 4.69396 -0.000200321C4.56593 0.0140256 4.381 0.0993758 4.12494 0.127828C3.98268 0.127828 3.86886 0.127828 3.6697 0.127828C3.48476 0.113602 3.2856 0.0567033 2.9584 -0.000200321C2.5743 0.099381 1.67808 0.355456 1.67808 1.20901C2.43205 0.995622 3.18603 0.981403 3.64126 1.03831C3.64126 0.952951 3.62701 0.881816 3.61278 0.810687L3.58434 0.824927Z" fill="var(--fill-0, white)"/>
<path id="Vector_21" d="M3.95375 3.44289C3.93952 3.64206 3.95375 4.12572 3.95375 4.4956V5.33492L3.44159 3.37174C3.41314 3.25793 3.41314 3.1299 3.44159 3.01609C3.19975 2.76003 2.88679 2.53242 2.51692 2.36171L4.09601 5.84708C4.15292 6.30231 4.22401 6.75754 4.28091 7.22699C4.28091 7.25544 4.29515 7.25544 4.29515 7.22699C4.25248 6.80021 4.22404 6.40186 4.22404 6.48722C4.25249 6.6437 4.2667 6.78596 4.29515 6.92822C4.28093 6.50144 4.20979 5.60524 4.06753 4.06884C4.02486 3.85545 3.9822 3.64204 3.95375 3.42866V3.44289Z" fill="var(--fill-0, white)"/>
<path id="Vector_22" d="M4.25344 7.19725C4.28189 7.43909 4.32458 7.7094 4.35303 7.88011C4.35303 7.8232 4.35302 7.76629 4.33879 7.69516L4.28188 7.25416C4.28188 7.25416 4.28191 7.2257 4.26768 7.19725H4.25344Z" fill="var(--fill-0, white)"/>
<path id="Vector_23" d="M4.12583 4.39474C4.11161 4.29516 4.08314 4.18135 4.06892 4.08177C4.21117 5.63239 4.28231 6.52864 4.29654 6.94119C4.36767 7.41065 4.42459 7.7663 4.45304 7.83743C4.42459 7.52446 4.25388 5.70354 4.22542 5.43325C4.36768 6.40061 4.65221 8.43494 4.45304 6.30105C4.42459 5.43327 4.42456 4.75042 4.23962 2.64498C4.23962 3.68347 4.23964 4.69348 4.12583 4.39474Z" fill="var(--fill-0, white)"/>
<path id="Vector_24" d="M4.33828 7.6839C4.33828 7.55586 4.30983 7.39935 4.29561 7.25709C4.29561 7.27132 4.29559 7.27132 4.28137 7.25709L4.33828 7.69809V7.6839Z" fill="var(--fill-0, white)"/>
<path id="Vector_25" d="M4.25344 3.5316V3.60251C4.25344 3.60251 4.25344 3.50322 4.25344 3.47484V3.5174V3.5316Z" fill="var(--fill-0, white)"/>
<path id="Vector_26" d="M3.62696 2.74297L3.65536 2.71457L3.61276 2.64365C3.61276 2.64365 3.58439 2.61528 3.5702 2.6011C3.58439 2.64365 3.61277 2.68621 3.62696 2.72877V2.74297Z" fill="var(--fill-0, white)"/>
<path id="Vector_27" d="M3.99759 4.15308C3.99759 4.15308 3.99759 4.09616 3.99759 4.05348V4.01081C3.96914 3.88277 3.94069 3.75476 3.91224 3.62672C3.85534 3.35643 3.75574 3.05769 3.62771 2.74472C3.54235 2.80163 3.45702 2.91542 3.42857 3.04346C3.6135 3.24262 3.76998 3.45598 3.86957 3.6836C3.91224 3.78318 3.96913 3.92544 3.98335 3.99657C3.98335 3.99657 3.98335 4.06772 3.98335 4.15308H3.99759Z" fill="var(--fill-0, white)"/>
<path id="Vector_28" d="M3.57024 2.60642C3.57024 2.60642 3.59869 2.63487 3.61291 2.64909C3.41375 2.30767 3.11501 2.03735 2.77359 1.86664C2.60288 1.78129 2.43217 1.72439 2.24724 1.69594C2.16188 1.68171 2.07652 1.6675 1.97694 1.6675H1.84891H1.83467L4.16774 6.81727V6.84571V6.88839C4.16774 6.88839 4.16774 6.80304 4.16774 6.76036C4.16774 6.57542 4.19618 6.84574 4.23886 7.18716C4.23886 7.21561 4.23887 7.22981 4.2531 7.24403C4.18197 6.77458 4.12506 6.31935 4.06815 5.86412L2.4891 2.3788C2.85897 2.54951 3.17193 2.77711 3.41377 3.03318C3.44222 2.90514 3.52756 2.79135 3.61291 2.73444C3.59869 2.69177 3.57027 2.64909 3.55604 2.60642H3.57024Z" fill="var(--fill-0, white)"/>
<path id="Vector_29" d="M3.99716 3.96868C3.99716 3.84065 3.9829 3.71261 3.96868 3.55612C3.91177 3.20047 3.82644 2.88751 3.68418 2.7168H3.66994C3.88333 3.1009 3.98293 3.54191 3.99716 3.96868Z" fill="var(--fill-0, white)"/>
<path id="Vector_30" d="M3.68301 2.71689C3.68301 2.71689 3.64104 2.67493 3.62705 2.66094L3.66901 2.73089H3.68301V2.71689Z" fill="var(--fill-0, white)"/>
<path id="Vector_31" d="M4.25371 3.65563C4.25371 3.65563 4.28216 3.78368 4.29639 3.85481C4.26794 3.81213 4.23947 3.5845 4.23947 3.61295C4.23947 3.47069 4.2537 3.34268 4.23947 3.18619C4.23947 3.02971 4.21103 2.83053 4.02609 2.73095C4.06877 3.20041 4.02609 3.741 3.98342 4.21046C3.94074 4.5092 3.91229 4.75103 3.89806 4.86484C3.94074 4.58032 3.92653 4.72255 3.95498 4.43803C3.95498 4.40958 3.95495 4.35269 3.96918 4.26733C3.96918 4.23888 3.96918 4.19622 3.96918 4.15354C3.96918 4.09664 3.96919 3.74097 3.94074 3.55604C3.94074 3.71252 3.95495 3.84057 3.96918 3.9686V4.1393V4.18198V4.31001C3.9265 4.55185 3.89808 4.70836 3.86963 4.92175C3.7985 5.29163 3.71314 5.78952 3.55666 6.68575C3.62779 6.28743 3.74156 5.64726 3.88382 4.82216C3.89805 4.6799 3.92653 4.49494 3.95498 4.31001C3.95498 4.11084 3.96921 4.26734 3.95498 3.9686C3.92653 3.54182 3.84116 3.08659 3.62777 2.71671C3.62777 2.71671 3.59933 2.73097 3.59933 2.74519C3.72737 3.05816 3.82692 3.3569 3.88382 3.62719C3.91228 3.76945 3.94075 3.89747 3.95498 4.01127V4.05395C3.95498 4.05395 3.95498 4.12509 3.95498 4.15354C3.95498 4.06819 3.95498 4.03973 3.95498 4.01127C3.92653 3.91169 3.88383 3.78367 3.84115 3.66987C3.74157 3.44225 3.58509 3.22885 3.40015 3.02968C3.3717 3.14349 3.3717 3.2573 3.40015 3.38533L3.89806 5.34851V4.50919C3.89806 4.13932 3.89808 3.65565 3.9123 3.45649C3.81272 2.9159 3.71312 2.37529 3.62777 1.96274L3.94074 3.99703C3.94074 3.99703 3.94074 3.96858 3.94074 4.08239C3.94074 4.13929 3.94074 4.182 3.94074 4.33849C3.89806 4.65146 3.89807 4.59454 3.85539 4.90751C3.6989 5.8322 3.52819 6.74263 3.45706 7.19786C3.44284 7.26899 3.44284 7.269 3.45706 7.11251C3.642 6.30164 3.84116 6.01712 4.21104 6.08824C4.39597 6.13092 4.6805 6.24473 5.10727 6.35854C5.54828 6.45812 6.1173 6.54349 6.78592 6.50081L0.839503 4.87908L0.626123 4.95019H0.569207V4.97863C0.569207 4.97863 0.5123 4.99287 0.654559 4.95019L1.18091 4.79368C1.65037 4.65142 2.13407 4.49494 2.63198 4.35268C3.05876 4.22465 3.4855 4.09662 3.9265 3.95436C4.18257 3.869 4.39598 3.82632 4.66627 3.72674C5.37757 3.49912 6.08886 3.25728 6.84284 3.01544C8.1943 2.57444 7.56835 2.78784 8.7491 2.40374C8.66375 2.43219 8.49306 2.48912 8.27967 2.56025C7.41189 2.83054 6.3307 3.17197 5.14995 3.54184C4.66627 3.69832 4.36754 3.76942 4.0119 3.91168C3.42863 4.11085 2.81691 4.31003 2.21942 4.50919C2.54661 4.39538 3.03027 4.2389 3.57085 4.06819C3.58508 4.06819 3.61357 4.03974 3.65625 4.02551H3.68468L3.84115 3.9686C4.13989 3.86902 4.39599 3.76942 4.72319 3.68406C4.95081 3.61293 4.89388 3.62716 4.87965 3.64139H4.83698L4.75163 3.68406C4.69472 3.71251 4.63781 3.72677 4.56668 3.75522C4.43865 3.81212 4.29641 3.85479 4.13992 3.92592L4.02609 3.9686H3.99766V3.98284L4.05457 4.09663L4.75163 3.75522L4.80854 3.71254L5.05036 3.61295C5.05036 3.61295 4.97922 3.61296 4.95077 3.62719L4.22528 3.68406C4.22528 3.68406 4.22528 3.71253 4.22528 3.65563H4.25371Z" fill="var(--fill-0, white)"/>
<path id="Vector_32" d="M4.25393 3.6728L5.37779 3.48785L5.07906 3.60164C5.07906 3.60164 5.15017 3.58742 5.19285 3.60164H5.20709V3.61588L4.97947 4.4552L3.54264 4.14223L3.5142 4.12804C3.48575 4.12804 3.4715 4.12804 3.44305 4.12804C3.35769 4.14226 3.25812 4.17068 3.14432 4.18491C3.08741 4.18491 3.03052 4.21336 2.97361 4.22758H2.87402H2.8171C2.8171 4.21336 2.81712 4.25604 2.78867 4.18491L5.77612 2.98994L5.87571 3.18912L5.90415 3.20332C6.06063 3.246 6.2029 3.16066 6.35938 3.13221C6.99955 2.91882 7.54011 2.73389 7.79617 2.64853C8.45056 2.42092 8.7351 2.33556 8.792 2.29288C8.80623 2.2502 8.79199 2.32134 8.69241 2.25021C8.66396 2.23598 8.6355 2.2075 8.59282 2.17905H8.56438V2.15061L8.50747 2.02259C5.70496 2.9615 2.85981 3.90039 0.000402206 4.85353L0.0430782 4.98156H0.0715144C0.0715144 4.98156 0.213765 5.03846 0.284894 5.02423C0.839705 4.91042 1.7075 4.64016 1.72172 4.65439C1.72172 4.65439 1.72174 4.65437 1.73596 4.68282V4.71126L1.75016 4.73974L7.11336 4.29874L7.07068 3.13221C7.07068 3.13221 7.0422 2.98995 7.0422 3.00418C7.0422 2.97573 7.07068 2.96147 7.11336 2.93302L4.25393 3.65856C4.25393 3.65856 4.25393 3.6728 4.25393 3.58744V3.51629C4.25393 3.58742 4.25393 3.63009 4.25393 3.64432V3.6728Z" fill="var(--fill-0, white)"/>
<path id="Vector_33" d="M3.59959 4.05277C4.49583 3.76825 5.5343 3.42685 6.38786 3.14233C6.21715 3.17079 6.0891 3.2419 5.93262 3.21345H5.90418V3.19921L5.80459 3.00007L2.81714 4.19504C2.81714 4.19504 2.8314 4.22349 2.84562 4.23771H2.90249H3.00209C3.05899 4.23771 3.13011 4.20926 3.17279 4.19504C3.2866 4.16659 3.38621 4.15235 3.47157 4.13812C3.50002 4.13812 3.51423 4.13812 3.54268 4.13812H3.57111V4.15236L5.00794 4.46533L5.23556 3.64021V3.62601H5.22132C5.22132 3.62601 5.13599 3.62601 5.10754 3.62601L4.86568 3.72556L4.8088 3.75404L4.11171 4.10969L4.05483 3.99585L4.08327 3.98166L4.19706 3.93898C4.35354 3.88208 4.49583 3.82518 4.62386 3.76828C4.69499 3.73983 4.7519 3.72557 4.8088 3.69712L4.89416 3.66869H4.93683C4.93683 3.66869 5.00794 3.64022 4.78032 3.69712C4.46735 3.78248 4.19707 3.88208 3.89833 3.98166L3.74186 4.03853H3.71338C3.71338 4.03853 3.65648 4.08121 3.62803 4.08121L3.59959 4.05277Z" fill="var(--fill-0, white)"/>
<path id="Vector_34" d="M4.2674 3.2971V3.28334V3.2971Z" fill="var(--fill-0, white)"/>
<path id="Vector_35" d="M4.12577 1.12091C4.26803 1.17781 4.38182 1.19205 4.46718 1.13515C4.39605 1.14938 4.26803 1.13514 4.12577 1.12091Z" fill="var(--fill-0, white)"/>
<path id="Vector_36" d="M4.25372 3.49621C4.25372 3.3824 4.25372 3.46772 4.25372 3.36814V3.3397C4.25372 3.3397 4.25372 3.35393 4.25372 3.38238C4.25372 3.38238 4.25372 3.33972 4.25372 3.31126C4.25372 3.38239 4.2537 3.46773 4.23948 3.55308V3.5104L4.25372 3.49621Z" fill="var(--fill-0, white)"/>
<path id="Vector_37" d="M1.74909 1.14086L1.73493 1.19757L1.79165 1.18342L1.74909 1.14086Z" fill="var(--fill-0, white)"/>
<path id="Vector_38" d="M1.83467 0.821681V0.850118C1.87735 0.921247 1.9485 1.02083 2.03386 1.12041L2.17613 1.09198C2.09077 1.03507 1.97693 0.935489 1.83467 0.821681Z" fill="var(--fill-0, white)"/>
<path id="Vector_39" d="M4.31008 3.85468C4.31008 3.85468 4.28163 3.72662 4.2674 3.65549C4.2674 3.62704 4.2674 3.62704 4.2674 3.61282C4.2674 3.58436 4.29583 3.82622 4.32428 3.85468H4.31008Z" fill="var(--fill-0, white)"/>
<path id="Vector_40" opacity="0.9" d="M3.58458 0.826138C3.84065 0.968397 3.99714 1.08219 4.12518 1.12487C4.26744 1.15332 4.39545 1.15334 4.46658 1.13911C4.60884 1.06798 4.69423 0.883034 4.72268 0.641194L4.75112 0.513166C4.73689 0.598521 4.72268 0.669658 4.72268 0.69811L4.76536 0.47049C4.76536 0.47049 4.76533 0.41359 4.77956 0.385138C4.79378 0.370912 4.75112 0.313986 4.75112 0.22863C4.72267 0.285534 4.70846 0.299781 4.72268 0.0721662C4.72268 0.0721662 4.72268 0.0721384 4.72268 0.0436866C4.60888 0.0579125 4.42393 0.143263 4.18209 0.171715C4.18209 0.313974 4.16784 0.442019 4.15361 0.584278C4.09671 0.470471 4.03981 0.313987 3.98291 0.185954C3.85488 0.185954 3.5988 0.157506 3.39964 0.100602C3.41387 0.342443 3.5846 0.769213 3.55615 0.982602C3.55615 0.982602 3.55615 0.996855 3.55615 1.01108C3.5846 1.01108 3.62729 1.01105 3.65574 1.02528C3.65574 0.939922 3.64149 0.868787 3.62726 0.797658L3.58458 0.826138Z" fill="var(--fill-0, white)"/>
<path id="Vector_41" d="M4.73743 0.569519L4.76591 0.398771C4.76591 0.398771 4.76589 0.469925 4.75167 0.512603L4.72323 0.640631V0.569519H4.73743Z" fill="var(--fill-0, white)"/>
<path id="Vector_42" d="M2.447 1.74793C2.90223 1.87596 3.37166 2.20313 3.62773 2.65836C3.64196 2.67259 3.67042 2.70105 3.68465 2.71528C3.69887 2.71528 3.72734 2.70107 3.74156 2.68684C3.78424 2.68684 3.8269 2.68684 3.85535 2.68684C3.78422 2.23161 3.71307 1.69101 3.61349 1.06507C3.58504 1.06507 3.55662 1.0651 3.51394 1.05087C3.48549 1.09355 3.47127 1.09355 3.42859 1.05087C3.1014 1.02242 2.71729 1.03661 2.26206 1.10774C2.26206 1.16465 2.21937 1.16466 2.16246 1.12198L2.0202 1.15042C2.19091 1.37803 2.37587 1.61991 2.447 1.76217V1.74793Z" fill="var(--fill-0, white)"/>
<path id="Vector_43" d="M4.15351 4.08494L4.13973 4.05734V4.07116L4.15351 4.08494Z" fill="var(--fill-0, white)"/>
<path id="Vector_44" opacity="0.9" d="M3.95375 3.44234C3.93952 3.64151 3.95375 4.12519 3.95375 4.50929V5.36285L3.44159 3.39967C3.41314 3.28586 3.41314 3.15783 3.44159 3.04402C3.19975 2.78795 2.88679 2.56035 2.51692 2.38964L4.09601 5.87496C4.12447 6.1168 4.16711 6.37287 4.19556 6.62893C4.19556 6.62893 4.19556 6.62895 4.19556 6.64317V6.70009L4.22404 6.87079C4.19559 6.6574 4.18137 6.41557 4.13869 6.11682C4.19559 6.5436 4.16714 6.23062 4.26672 7.12685C4.26672 7.18375 4.26672 7.22644 4.26672 7.26912C4.22404 6.82811 4.18134 6.37287 4.19556 6.45823V6.51514C4.19556 6.51514 4.20982 6.58628 4.22404 6.70009C4.12446 5.81808 4.06755 5.24901 4.0391 5.0214C3.99642 4.45236 4.12446 5.61891 4.26672 6.91347C4.25249 6.45824 4.18136 5.57623 4.0391 4.06829C3.99642 3.86912 3.96794 3.65573 3.92527 3.44234H3.95375Z" fill="var(--fill-0, white)"/>
<path id="Vector_45" opacity="0.9" d="M4.13931 4.05156V4.09424V4.0658C4.13931 4.29341 4.13928 4.40719 4.11083 4.35029L4.05395 4.08C4.19621 5.58794 4.25308 6.46995 4.28153 6.92518V7.02477C4.35266 7.43732 4.40959 7.73609 4.43804 7.80722C4.42381 7.49425 4.36692 6.83984 4.4096 7.12436C4.55186 8.09172 4.50917 7.33774 4.31001 5.20385C4.36691 5.14695 4.40957 4.96203 4.23885 2.95618C4.25308 3.76706 4.09661 3.12686 4.12507 4.08L4.13931 4.05156Z" fill="var(--fill-0, white)"/>
<path id="Vector_46" d="M4.29533 7.36866L4.32377 7.62471C4.32377 7.5109 4.30956 7.3971 4.29533 7.26906V7.36866Z" fill="var(--fill-0, white)"/>
<path id="Vector_47" d="M3.00151 0.0556557C3.00151 0.0556557 2.90195 0.0841058 2.84505 0.0983317C2.85927 0.283269 2.77391 0.212137 2.70278 0.141008C2.58897 0.16946 2.43248 0.240596 2.29022 0.325951C2.30444 0.368629 2.31868 0.411302 2.34713 0.453979C2.34713 0.453979 2.30444 0.411291 2.24754 0.354388C2.17641 0.397065 2.10529 0.453992 2.03416 0.510895C2.09106 0.638928 2.16219 0.766962 2.20486 0.866543C2.24754 0.966124 2.26178 1.03725 2.26178 1.07992C2.71701 1.00879 3.10112 0.994555 3.42832 1.02301C3.32873 0.894974 3.18648 0.439755 2.98732 0.0556557H3.00151Z" fill="var(--fill-0, white)"/>
<path id="Vector_48" d="M2.29148 1.70312C2.16345 1.58931 1.9785 1.39015 1.79357 1.17677H1.75089C1.75089 1.26212 1.75089 1.33323 1.75089 1.41858L1.77937 1.54661V1.61777C2.59025 3.36755 3.4011 5.13155 4.19775 6.89557V6.85289L1.85048 1.67468H1.86472H1.92164H2.03543C2.12078 1.67468 2.19193 1.67467 2.27729 1.70312H2.29148Z" fill="var(--fill-0, white)"/>
<path id="Vector_49" d="M4.31129 7.56795C4.31129 7.66753 4.33974 7.75287 4.35397 7.824C4.35397 7.7671 4.35395 7.69599 4.33973 7.62486L4.31129 7.36881C4.31129 7.43994 4.31126 7.51104 4.32549 7.56795H4.31129Z" fill="var(--fill-0, white)"/>
<path id="Vector_50" d="M3.58417 0.821681C3.58417 0.907037 3.6126 0.978172 3.6126 1.0493C3.86867 1.09198 4.0394 1.10619 4.12476 1.12041C3.99672 1.06351 3.84023 0.96394 3.58417 0.821681Z" fill="var(--fill-0, white)"/>
<path id="Vector_51" opacity="0.9" d="M4.25372 3.61112C4.25372 3.61112 4.25372 3.63957 4.25372 3.6538C4.25372 3.59689 4.23949 3.55422 4.25372 3.29815C4.25372 3.29815 4.25372 3.26969 4.25372 3.24123C4.25372 3.26969 4.25372 3.28391 4.25372 3.28391C4.29639 3.04207 4.32486 2.81448 4.35331 2.6011C4.32486 2.80026 4.29641 2.98519 4.26796 3.17012C4.26796 3.24125 4.2537 3.3266 4.23948 3.3835C4.23948 3.49731 4.23948 3.56843 4.23948 3.59688L4.25372 3.61112Z" fill="var(--fill-0, white)"/>
<path id="Vector_52" opacity="0.9" d="M4.25444 3.65627C4.25444 3.65627 4.28289 3.78433 4.29712 3.85546C4.26866 3.81278 4.2402 3.58515 4.2402 3.6136C4.2402 3.47134 4.25443 3.34332 4.2402 3.18684C4.2402 3.03035 4.21176 2.83118 4.02682 2.7316C4.0695 3.20105 4.02682 3.74165 3.98414 4.21111C3.94147 4.50985 3.91302 4.75168 3.89879 4.86549C3.94147 4.58097 3.92726 4.7232 3.95571 4.43868C3.95571 4.41023 3.95568 4.35333 3.9699 4.26798C3.9699 4.23953 3.9699 4.19687 3.9699 4.15419C3.9699 4.09729 3.96992 3.74162 3.94147 3.55668C3.94147 3.71317 3.95568 3.84121 3.9699 3.96925V4.13995V4.18263V4.31065C3.94145 4.49559 3.91302 4.62365 3.89879 4.78013C3.82766 5.15001 3.75654 5.57677 3.64274 6.27384C3.58583 6.473 3.60004 6.62951 3.71385 6.30232C3.7423 6.21696 3.7992 6.03199 3.7992 6.08889C3.82765 5.98931 3.85613 5.94665 3.87036 5.93243C3.94148 5.5341 3.96993 5.70481 3.99838 5.57678C4.06951 5.32071 4.08372 5.54832 4.15485 5.87551C4.15485 5.86129 4.1691 5.83282 4.18333 5.8186C4.21178 5.64789 4.24021 5.76171 4.29712 6.14581C4.35402 6.14581 4.42516 6.17426 4.48206 6.18848C4.48206 6.18848 4.51051 6.1885 4.52473 6.20272C4.58164 6.21695 4.63855 6.24539 4.70968 6.27384C4.70968 6.10313 4.73814 6.14583 4.80927 6.30232C5.25027 6.44458 5.97576 6.55836 6.81509 6.50146L0.84023 4.87973C0.84023 4.87973 0.69798 4.92239 0.62685 4.95084H0.569934L1.4235 4.70898C1.9214 4.55249 2.43355 4.39603 2.94568 4.23954C3.32978 4.12574 3.72809 3.9977 4.12641 3.88389C4.38248 3.82699 4.63854 3.71319 4.92306 3.62784C5.69126 3.37177 6.4879 3.11568 7.313 2.84539C8.37994 2.50397 7.88206 2.66046 8.80675 2.36171C8.63604 2.41862 8.29458 2.53241 7.83935 2.66044C6.9858 2.93074 5.91888 3.25797 4.75235 3.62784C4.35403 3.74165 4.08374 3.85545 3.64274 3.98349C3.1306 4.1542 2.60422 4.33913 2.06364 4.50984C2.41928 4.39603 2.94564 4.22533 3.5289 4.02616C3.54313 4.02616 3.57161 4.01194 3.60006 3.98349L3.65698 3.95501C3.88459 3.86965 4.14065 3.79853 4.41095 3.69895C4.55321 3.65627 4.70969 3.6136 4.85195 3.57092C4.85195 3.57092 4.8235 3.57092 4.80927 3.57092L4.72392 3.59936C4.72392 3.59936 4.6101 3.64206 4.53897 3.67051C4.41094 3.72742 4.25446 3.78431 4.09797 3.84122L3.98414 3.89813H3.95571L3.94147 3.92657L3.98414 4.01192L4.69544 3.69895L4.75235 3.67051C4.83771 3.62784 4.92306 3.59937 5.00841 3.57092C4.96573 3.57092 4.93727 3.57094 4.90882 3.58516L4.18333 3.64204C4.18333 3.64204 4.18333 3.6705 4.18333 3.6136L4.25444 3.65627Z" fill="var(--fill-0, white)"/>
<path id="Vector_53" d="M3.98341 4.4244C3.98341 4.4244 3.98342 4.45258 3.95521 4.62186C3.95521 4.56543 3.9693 4.49492 3.98341 4.4244Z" fill="var(--fill-0, white)"/>
<path id="Vector_54" d="M4.367 2.60063C4.33854 2.81402 4.29586 3.02741 4.2674 3.26925C4.2674 3.26925 4.26739 3.18391 4.29584 3.05587C4.4381 2.245 4.58038 1.39144 4.72264 0.566339C4.60884 1.24918 4.4808 1.93202 4.367 2.60063Z" fill="var(--fill-0, white)"/>
<path id="Vector_55" d="M3.99775 3.96966C3.9693 3.54288 3.88393 3.08765 3.67054 2.71777C3.67054 2.71777 3.64211 2.73203 3.64211 2.74625C3.77014 3.05922 3.8697 3.35796 3.9266 3.62825C3.95505 3.77051 3.98353 3.89853 3.99775 4.01233V4.05501C3.99775 4.05501 3.99775 4.12615 3.99775 4.1546C3.99775 4.06925 3.99775 4.04079 3.99775 4.01233C3.9693 3.91275 3.9266 3.78473 3.88392 3.67093C3.78434 3.44331 3.62786 3.22991 3.44292 3.03074C3.41447 3.14455 3.41447 3.25836 3.44292 3.38639L3.94084 5.34957V4.49601C3.94084 4.11191 3.94085 3.62823 3.95508 3.42907C3.8555 2.87426 3.7559 2.33366 3.67054 1.90688L3.99775 3.96966C3.99775 3.96966 4.02622 3.96967 4.01199 4.1546C4.01199 4.1546 4.01199 4.18305 4.01199 4.19728C4.01199 4.25418 4.01198 4.32529 3.99775 4.39642V4.29687C4.01198 4.09771 4.02622 4.25416 4.01199 3.95542L3.99775 3.96966Z" fill="var(--fill-0, white)"/>
<path id="Vector_56" d="M3.99759 4.15308C3.99759 4.15308 3.99759 4.09616 3.99759 4.05348V4.01081C3.96914 3.88277 3.94069 3.75476 3.91224 3.62672C3.85534 3.35643 3.75574 3.05769 3.62771 2.74472C3.54235 2.80163 3.45702 2.91542 3.42857 3.04346C3.6135 3.24262 3.76998 3.45598 3.86957 3.6836C3.91224 3.78318 3.96913 3.92544 3.98335 3.99657C3.98335 3.99657 3.98335 4.06772 3.98335 4.15308H3.99759Z" fill="var(--fill-0, white)"/>
<path id="Vector_57" d="M3.99716 4.31092V4.41051H3.98292C3.98292 4.41051 3.96871 4.55279 3.95448 4.6097C3.9118 4.89421 3.78375 5.61974 3.66994 6.25991C3.79798 5.56284 3.8691 5.13603 3.926 4.76616C3.95445 4.60968 3.9687 4.48166 3.99716 4.29672V4.31092Z" fill="var(--fill-0, white)"/>
<path id="Vector_58" d="M4.25344 3.49878V3.5411V3.59749C4.25344 3.59749 4.25344 3.51289 4.25344 3.49878Z" fill="var(--fill-0, white)"/>
<path id="Vector_59" opacity="0.9" d="M5.07822 3.59972C5.07822 3.59972 5.14933 3.57126 5.19201 3.59972H5.20625C5.20625 3.59972 5.20623 3.54281 5.23468 3.68507L3.57023 4.15455V4.11187H3.5418H3.49912H3.42801C3.34265 4.1261 3.22884 4.15456 3.11504 4.16879C3.05813 4.16879 3.00122 4.19724 2.93009 4.21146C2.90164 4.21146 2.87318 4.23992 2.8305 4.21146H2.80207C2.80207 4.21146 2.80205 4.21145 2.78783 4.19722L3.18615 2.61813L5.84639 3.17296L5.91754 3.20139C6.0598 3.20139 6.21627 3.14452 6.38698 3.10184C6.98447 2.90268 7.48238 2.73196 7.72422 2.6466C8.83384 2.24828 8.90495 2.3194 8.50663 2.23404C8.30746 2.44743 8.56356 2.3194 8.13678 2.46166C8.00875 2.49011 7.90917 2.56122 7.78113 2.53277C7.72423 2.53277 7.66733 2.50434 7.61043 2.50434C7.58198 2.47589 7.61042 2.547 7.55351 2.44742C5.32005 3.20139 3.12925 3.94114 0.966911 4.66666L0.995347 4.69514H1.05226C1.20875 4.75204 1.23721 4.69512 1.15185 4.76625L1.05226 4.80893L1.13762 4.78049C1.36523 4.70936 1.53595 4.65246 1.27988 4.73782C1.40792 4.70936 1.30835 4.73781 1.16609 4.82317C1.10919 4.86584 1.0096 4.86582 0.981151 4.97963V5.00811C3.2573 4.99388 5.51919 4.97966 7.75265 4.96543L7.83801 2.9169V2.88842C7.83801 2.88842 7.83801 2.81732 7.83801 2.78887C7.83801 2.71774 7.85223 2.74618 7.83801 2.73196C7.83801 2.74618 7.7669 2.71771 7.72422 2.84574L7.6673 2.9311C7.63885 3.59971 7.59621 4.26837 7.56775 4.92276C5.41964 4.92276 3.2715 4.92276 1.09494 4.92276L1.12338 4.88008C1.16605 4.83741 1.20874 4.78048 1.26564 4.76625C1.47903 4.66667 1.70664 4.59555 1.70664 4.59555C2.01961 4.51019 2.46064 4.36791 2.53177 4.35369C2.53177 4.35369 2.57444 4.33475 2.6598 4.29682C2.91586 4.22569 2.98701 4.18298 2.98701 4.22566V4.2399L5.67568 3.71355L5.63301 3.44325C5.63301 3.44325 5.64722 3.41479 5.66144 3.38634C5.67567 3.34366 5.71836 3.34365 5.76104 3.32942C6.04555 3.25829 6.14516 3.20142 6.18784 3.22987C6.20206 3.2441 6.20206 3.27252 6.18784 3.28674C5.00709 3.6993 3.76943 4.12611 2.48909 4.56711L2.44642 4.42484V4.46752L6.21627 3.32942C6.20205 3.24407 6.21627 3.301 6.21627 3.27255L5.43387 5.39219L2.44642 4.42484C2.44642 4.42484 2.40374 4.42484 2.36107 4.42484C2.28994 4.43907 2.16189 4.48173 1.99118 4.53863C1.86315 4.58131 1.83471 4.59553 1.87739 4.62398C1.87739 4.62398 1.8916 4.62398 1.90583 4.62398C1.92005 4.65244 1.90582 4.56711 1.9485 4.69514C3.52758 4.21146 5.14934 3.71354 6.79954 3.21563L6.77106 3.14452C6.77106 3.14452 6.71416 3.11607 6.68571 3.10184C6.65726 3.10184 6.62881 3.07336 6.64303 3.07336C6.64303 3.07336 6.65726 3.07339 6.68571 3.10184C6.74261 3.11607 6.84221 3.10182 6.97025 3.07336C6.94179 2.97378 6.97025 2.95958 6.97025 2.95958C6.91334 2.95958 6.87066 2.98803 6.82798 3.00225C6.79953 3.00225 6.77106 3.01648 6.72839 3.04493L6.7853 3.01645H6.82798C7.02714 2.93109 6.3301 3.1445 6.18784 3.17296C6.387 3.11605 6.77107 2.988 6.99868 2.9311C6.92755 2.9311 6.88491 2.95958 6.85646 2.95958H6.84222L4.21042 3.61396V3.58552C4.21042 3.58552 4.21042 3.58551 4.21042 3.57128C4.21042 3.57128 4.21042 3.55706 4.21042 3.5286C4.21042 3.55706 4.21042 3.57129 4.21042 3.58552C4.21042 3.61397 4.21042 3.61397 4.21042 3.58552L5.33428 3.40058L5.0355 3.51436L5.07822 3.59972Z" fill="var(--fill-0, white)"/>
<path id="Vector_60" d="M4.25344 3.58266V3.59662V3.52671V3.58266Z" fill="var(--fill-0, white)"/>
<path id="Vector_61" d="M4.26787 3.2993C4.26787 3.2993 4.26787 3.29928 4.26787 3.32773C4.26787 3.31351 4.26787 3.31354 4.26787 3.31354C4.23942 3.5696 4.25365 3.61228 4.26787 3.66918C4.26787 3.71186 4.26787 3.69762 4.26787 3.69762L4.99336 3.6407C4.99336 3.6407 5.0645 3.64073 5.09296 3.62651L5.39169 3.51268L4.26787 3.69762C4.26787 3.69762 4.26787 3.66916 4.26787 3.6407C4.26787 3.62648 4.26787 3.64073 4.26787 3.62651V3.56959C4.26787 3.48424 4.26784 3.41309 4.28207 3.32773L4.26787 3.2993Z" fill="var(--fill-0, white)"/>
<path id="Vector_62" d="M3.58535 4.05333C4.49581 3.75459 5.56274 3.39895 6.4163 3.12866C6.24558 3.17134 6.10334 3.21402 5.94686 3.22825L5.87575 3.19977L3.21547 2.64498L2.81714 4.22404H2.83138H2.85982C2.85982 4.22404 2.93096 4.22404 2.95941 4.22404C3.03054 4.22404 3.08745 4.19559 3.14435 4.18136C3.25816 4.15291 3.35774 4.13871 3.45733 4.12449H3.52844H3.57111L3.58535 4.16716L5.2498 3.69769C5.22135 3.55543 5.23555 3.65502 5.22132 3.62657H5.20713C5.20713 3.62657 5.12175 3.62657 5.0933 3.62657C5.00794 3.65502 4.9226 3.68344 4.83724 3.72612L4.78032 3.7546L4.06903 4.06757L4.02635 3.98222H4.04059L4.06903 3.95374L4.18286 3.89687C4.33935 3.83997 4.4816 3.78302 4.62386 3.72612C4.69499 3.69767 4.7519 3.68346 4.8088 3.65501L4.89416 3.62657C4.89416 3.62657 4.92261 3.62657 4.93683 3.62657C4.78035 3.66925 4.63809 3.71192 4.49583 3.7546C4.22554 3.83996 3.9837 3.9253 3.74186 4.01066L3.68495 4.03909C3.68495 4.03909 3.62802 4.06754 3.61379 4.08177L3.58535 4.05333Z" fill="var(--fill-0, white)"/>
<path id="Vector_63" d="M3.56996 2.60642C3.56996 2.60642 3.59841 2.63487 3.61264 2.64909C3.35657 2.19386 2.90136 1.86665 2.43191 1.73861C2.43191 1.73861 2.44612 1.76706 2.46034 1.78129C2.44612 1.82397 2.37502 1.78129 2.27544 1.69594C2.19009 1.68171 2.11894 1.6675 2.03358 1.6675H1.91979H1.86288H1.84864L4.1959 6.81727C4.1959 6.81727 4.1959 6.74615 4.1959 6.68924C4.1959 6.63234 4.1959 6.61812 4.1959 6.64657C4.1959 6.60389 4.1959 6.58967 4.1959 6.60389C4.16745 6.34783 4.12481 6.10599 4.09636 5.84992L2.51726 2.36456C2.88713 2.53527 3.20009 2.76287 3.44193 3.01894C3.47039 2.8909 3.55576 2.77711 3.64112 2.7202C3.62689 2.67753 3.59843 2.63485 3.5842 2.59218L3.56996 2.60642Z" fill="var(--fill-0, white)"/>
<path id="Vector_64" d="M3.68301 2.71689C3.68301 2.71689 3.64104 2.67493 3.62705 2.66094L3.66901 2.73089H3.68301V2.71689Z" fill="var(--fill-0, white)"/>
<path id="Vector_65" d="M3.91238 4.84947C3.92661 4.73566 3.95506 4.49384 3.99773 4.19509C4.04041 3.73986 4.06886 3.18504 4.04041 2.71559C3.98351 2.68713 3.94082 2.67291 3.85547 2.67291C3.89814 3.01433 3.92658 3.29884 3.96925 3.55491C3.99771 3.73985 4.01196 4.09551 3.99773 4.15242C3.99773 4.19509 3.99773 4.23775 3.99773 4.2662C3.99773 4.33733 3.98349 4.39423 3.98349 4.43691C3.94082 4.7072 3.96926 4.57919 3.92658 4.86371L3.91238 4.84947Z" fill="var(--fill-0, white)"/>
<path id="Vector_66" d="M3.86942 1.80398C4.16817 1.63326 4.2962 2.34455 4.26775 2.77133C4.26775 2.98472 4.26775 3.1412 4.26775 3.0843C4.26775 3.05585 4.29617 2.9847 4.32462 2.84244C4.3673 2.54369 4.32463 2.84243 4.29618 2.97047C4.43844 2.18804 4.55226 1.51944 4.66607 0.893496C4.66607 1.02153 4.60917 1.10689 4.45269 1.12112C4.38156 1.17802 4.2535 1.16378 4.11124 1.10688C4.02588 1.10688 3.86942 1.07844 3.59913 1.03576C3.69871 1.67593 3.76981 2.20227 3.84094 2.65749C3.9263 2.65749 3.96898 2.67176 4.02589 2.70021C3.99743 2.33034 3.95476 2.00312 3.85518 1.78974L3.86942 1.80398Z" fill="var(--fill-0, white)"/>
<path id="Vector_67" d="M4.72299 0.638154C4.69454 0.865769 4.60915 1.05071 4.46689 1.13607C4.62338 1.10762 4.66604 1.03648 4.68027 0.90845C4.6945 0.823095 4.70876 0.73775 4.72299 0.652394V0.638154Z" fill="var(--fill-0, white)"/>
<path id="Vector_68" d="M4.29533 3.05905C4.53717 1.69337 4.69368 0.782871 4.76481 0.398771L4.73633 0.569519C4.59407 1.39462 4.43761 2.24818 4.30957 3.05905H4.29533Z" fill="var(--fill-0, white)"/>
<path id="Vector_69" d="M3.9971 4.30699V4.17896V4.13628V3.96558C3.9971 4.26432 3.9971 4.0936 3.9971 4.30699Z" fill="var(--fill-0, white)"/>
<path id="Vector_70" d="M4.36643 2.60063C4.48023 1.93202 4.60827 1.24918 4.72207 0.566339V0.637452C4.69362 0.722807 4.67938 0.808152 4.66516 0.893508V0.879268L4.38062 2.47261L4.35219 2.60063H4.36643Z" fill="var(--fill-0, white)"/>
<path id="Vector_71" d="M4.21106 6.87151C4.21106 6.94264 4.2395 7.02797 4.2395 7.11333C4.2395 7.0422 4.22529 6.95685 4.21106 6.85727L4.18262 6.68657C4.18262 6.68657 4.18259 6.80038 4.19682 6.87151H4.21106Z" fill="var(--fill-0, white)"/>
<path id="Vector_72" d="M3.62696 2.74297L3.65536 2.71457L3.61276 2.64365C3.61276 2.64365 3.58439 2.61528 3.5702 2.6011C3.58439 2.64365 3.61277 2.68621 3.62696 2.72877V2.74297Z" fill="var(--fill-0, white)"/>
<path id="Vector_73" d="M3.99716 3.96868C3.99716 3.84065 3.9829 3.71261 3.96868 3.55612C3.91177 3.20047 3.82644 2.88751 3.68418 2.7168H3.66994C3.88333 3.1009 3.98293 3.54191 3.99716 3.96868Z" fill="var(--fill-0, white)"/>
<path id="Vector_74" d="M3.9684 3.55491C3.93995 3.29884 3.89729 3.01433 3.85461 2.67291C3.81193 2.67291 3.7835 2.67291 3.74082 2.67291C3.7266 2.67291 3.69813 2.68716 3.68391 2.70139C3.82617 2.8721 3.92572 3.19929 3.9684 3.54071V3.55491Z" fill="var(--fill-0, white)"/>
<path id="Vector_75" d="M4.31119 2.98471C4.32542 2.84245 4.38231 2.55793 4.33963 2.85668C4.31118 2.99894 4.29694 3.07009 4.28272 3.09854C4.26849 3.15544 4.26849 2.99895 4.28272 2.78557C4.31117 2.35879 4.19736 1.63323 3.88439 1.81817C3.98397 2.03156 4.02669 2.35878 4.05514 2.72865C4.24008 2.82823 4.26852 3.0274 4.26852 3.18389C4.26852 3.34037 4.24007 3.46839 4.26852 3.61065C4.26852 3.56797 4.26852 3.51108 4.26852 3.39727C4.26852 3.32614 4.28273 3.25502 4.29696 3.18389C4.32541 2.99895 4.35386 2.81398 4.38231 2.61482L4.41079 2.50103L4.69528 0.893496C4.58147 1.53366 4.46765 2.20228 4.32539 2.98471H4.31119Z" fill="var(--fill-0, white)"/>
</g>
</svg>
