<svg preserveAspectRatio="none" width="100%" height="100%" overflow="visible" style="display: block;" viewBox="0 0 132 6" fill="none" xmlns="http://www.w3.org/2000/svg">
<path id="Vector" d="M128 2.47131H0C3.25 2.47131 6.49 2.53131 9.74 2.63131C15.41 2.80131 21.08 3.09131 26.75 3.36131C29.58 3.50131 32.4 3.63131 35.23 3.74131C37.33 3.82131 39.44 3.70131 41.55 3.70131H46.53C47.63 3.70131 48.73 3.70131 49.83 3.70131C50.78 3.70131 51.73 3.38131 52.67 3.48131C53.3 3.55131 53.86 3.77131 54.51 3.72131C55 3.69131 55.47 3.52131 55.96 3.50131C56.45 3.48131 56.96 3.54131 57.46 3.53131C58.53 3.50131 59.58 3.35131 60.65 3.35131C63.02 3.35131 65.41 3.47131 67.75 3.24131C78.57 2.18131 89.9 1.98131 100.78 2.00131C108.5 2.02131 120.52 2.06131 128.01 2.46131L128 2.47131Z" stroke="var(--stroke-0, #9A9A9A)" stroke-width="3" stroke-linecap="round"/>
</svg>
