<svg preserveAspectRatio="none" width="100%" height="100%" overflow="visible" style="display: block;" viewBox="0 0 30 18" fill="none" xmlns="http://www.w3.org/2000/svg">
<g id="eye - source 2" clip-path="url(#clip0_1050_2777)">
<path id="Vector" d="M26.5789 10.7151C26.366 9.8372 25.6126 9.11654 24.9411 8.47123C18.7762 2.59134 7.27846 2.73874 1.35599 8.81518C-0.20325 10.417 -0.553751 11.2261 1.02514 12.9786C6.17127 18.6914 16.2277 19.6152 22.8708 15.3076L24.6463 14.0006C24.8985 13.8237 25.2588 13.4274 25.4652 13.2112C26.1334 12.52 26.8082 11.6618 26.5789 10.7184V10.7151ZM25.19 12.2579L23.9256 13.3979C23.7716 13.5486 23.5882 13.673 23.3818 13.768C17.9016 17.7972 8.9458 18.2558 3.50812 14.2037C2.76454 13.6501 0.897387 12.0123 0.828597 11.1835C0.766358 10.4629 1.69338 9.55549 2.23387 9.03137C8.1367 3.33165 19.0743 3.49871 24.7412 9.37532C25.1376 9.78479 25.5864 10.2139 25.7502 10.7413C25.9402 11.3407 25.6584 11.8223 25.1933 12.2514L25.19 12.2579Z" fill="var(--fill-0, #D1A82C)"/>
<path id="Vector_2" d="M19.0767 12.444C18.9523 12.7912 18.7688 13.1319 18.5264 13.4562C17.1277 15.3168 15.1164 16.4895 12.4664 16.1586C10.1013 15.8638 8.15227 14.3701 7.56265 12.3588C6.39977 8.37556 10.8285 4.85418 15.3064 6.23325C18.0842 7.09148 19.9612 9.99048 19.0735 12.444H19.0767Z" fill="var(--fill-0, #D1A82C)"/>
<path id="Vector_3" d="M13.0246 8.43969C17.0996 8.10557 17.5287 13.4089 13.6863 13.7169C9.51631 14.051 9.05771 8.76398 13.0246 8.43969ZM12.9099 9.17345C10.3352 9.47809 10.5744 13.1108 13.4013 13.0322C16.392 12.9503 16.202 8.78364 12.9099 9.17345Z" fill="var(--fill-0, #D1A82C)"/>
<path id="Vector_4" d="M17.8621 4.24528C17.8032 4.20269 17.7376 4.07494 17.7442 4.0127C18.2061 3.04309 18.4386 1.97194 18.8972 1.01215C18.9759 0.848369 19.0119 0.658379 19.3034 0.625622C19.6212 0.589589 19.8144 0.809061 19.7522 1.01543C19.2674 1.96539 19.0872 3.11843 18.5926 4.04873C18.4714 4.27803 18.1569 4.44837 17.8621 4.242V4.24528Z" fill="var(--fill-0, #D1A82C)"/>
<path id="Vector_5" d="M8.10138 4.12564C7.80329 4.3189 7.48882 4.1584 7.36762 3.94547C6.86644 3.07741 6.68955 1.99971 6.1982 1.11527C6.13596 0.921998 6.32922 0.715629 6.65024 0.751662C6.94178 0.781143 6.97782 0.958031 7.05643 1.11199C7.52158 2.00953 7.75088 3.00862 8.21603 3.91272C8.22258 3.97168 8.15707 4.09288 8.09811 4.12891L8.10138 4.12564Z" fill="var(--fill-0, #D1A82C)"/>
<path id="Vector_6" d="M0.521169 3.29492C0.786501 3.24251 0.943735 3.28509 1.09442 3.42267C1.933 4.18591 2.54556 5.26034 3.37758 6.04979C3.59706 6.33477 3.1057 6.58373 2.74537 6.39046C2.63072 6.32822 2.28022 5.88928 2.16557 5.76808C1.54319 5.08345 0.983044 4.36935 0.354108 3.688C0.259113 3.56025 0.288594 3.34078 0.521169 3.29819V3.29492Z" fill="var(--fill-0, #D1A82C)"/>
<path id="Vector_7" d="M24.881 2.41177C25.3101 2.3135 25.582 2.5428 25.4117 2.86054L23.1122 5.91677C22.7584 6.20176 22.2277 5.94298 22.4406 5.57282C23.2596 4.66873 23.8623 3.43379 24.6845 2.55917C24.7336 2.50676 24.7926 2.43142 24.881 2.41177Z" fill="var(--fill-0, #D1A82C)"/>
<path id="Vector_8" d="M29.1798 5.5264C29.5795 5.44779 29.8579 5.70984 29.6253 5.92276L26.4413 8.01922C26.0777 8.15679 25.6519 7.93077 25.8746 7.68182L29.1831 5.5264H29.1798Z" fill="var(--fill-0, #D1A82C)"/>
<path id="Vector_9" d="M13.1296 0.0183729C13.4309 -0.0438655 13.6996 0.0380271 13.7127 0.257499C13.5849 1.25987 13.8797 2.44567 13.7127 3.42511C13.6537 3.77888 12.9789 3.77888 12.9199 3.42511C12.7529 2.44895 13.0477 1.25659 12.9199 0.257499C12.9199 0.172331 13.0018 0.0445785 13.1296 0.0183729Z" fill="var(--fill-0, #D1A82C)"/>
<path id="Vector_10" d="M12.9099 9.17376C16.202 8.78395 16.392 12.9506 13.4012 13.0325C10.571 13.1112 10.3352 9.47512 12.9099 9.17376Z" fill="var(--fill-0, white)"/>
</g>
<defs>
<clipPath id="clip0_1050_2777">
<rect width="29.7074" height="18" fill="white"/>
</clipPath>
</defs>
</svg>
