<svg preserveAspectRatio="none" width="100%" height="100%" overflow="visible" style="display: block;" viewBox="0 0 40 40" fill="none" xmlns="http://www.w3.org/2000/svg">
<g id="pause-circle_svgrepo.com">
<path id="Vector" fill-rule="evenodd" clip-rule="evenodd" d="M18.2062 36.501C29.9999 38.501 36.6663 29.2043 36.6663 19.9997C36.6663 10.7949 30.9999 3.50016 21.6663 4.00098C12.4616 4.00098 2.49989 10.001 3.33299 19.9997C3.33299 29.2043 9.00141 36.501 18.2062 36.501ZM13.4599 14.3619C13.333 14.6682 13.333 15.0564 13.333 15.833V24.1663C13.333 24.9428 13.333 25.3312 13.4599 25.6375C13.629 26.0458 13.9535 26.3703 14.3619 26.5395C14.6681 26.6663 15.0564 26.6663 15.833 26.6663C16.6096 26.6663 16.9978 26.6663 17.3042 26.5395C17.7125 26.3703 18.037 26.0458 18.2062 25.6375C18.333 25.3312 18.333 24.9428 18.333 24.1663V15.833C18.333 15.0564 18.333 14.6682 18.2062 14.3619C18.037 13.9535 17.7125 13.629 17.3042 13.4599C16.9978 13.333 16.6096 13.333 15.833 13.333C15.0564 13.333 14.6681 13.333 14.3619 13.4599C13.9535 13.629 13.629 13.9535 13.4599 14.3619ZM21.7932 14.3619C21.6663 14.6682 21.6663 15.0564 21.6663 15.833V24.1663C21.6663 24.9428 21.6663 25.3312 21.7932 25.6375C21.9623 26.0458 22.2868 26.3703 22.6952 26.5395C23.0015 26.6663 23.3898 26.6663 24.1663 26.6663C24.9428 26.6663 25.3312 26.6663 25.6375 26.5395C26.0458 26.3703 26.3703 26.0458 26.5395 25.6375C26.6663 25.3312 26.6663 24.9428 26.6663 24.1663V15.833C26.6663 15.0564 26.6663 14.6682 26.5395 14.3619C26.3703 13.9535 26.0458 13.629 25.6375 13.4599C25.3312 13.333 24.9428 13.333 24.1663 13.333C23.3898 13.333 23.0015 13.333 22.6952 13.4599C22.2868 13.629 21.9623 13.9535 21.7932 14.3619Z" fill="url(#paint0_linear_1037_2431)"/>
</g>
<defs>
<linearGradient id="paint0_linear_1037_2431" x1="3.28408" y1="20.3759" x2="36.6663" y2="20.3759" gradientUnits="userSpaceOnUse">
<stop stop-color="#573B20"/>
<stop offset="1" stop-color="#392716"/>
</linearGradient>
</defs>
</svg>
